<mxfile host="app.diagrams.net" agent="Mozilla/5.0 (Windows NT 10.0; Win64; x64) AppleWebKit/537.36 (KHTML, like Gecko) Chrome/132.0.0.0 Safari/537.36 Edg/132.0.0.0" version="26.0.7">
  <diagram id="6a731a19-8d31-9384-78a2-239565b7b9f0" name="Page-1">
    <mxGraphModel dx="1092" dy="2041" grid="1" gridSize="10" guides="1" tooltips="1" connect="1" arrows="1" fold="1" page="1" pageScale="1" pageWidth="1169" pageHeight="827" background="none" math="0" shadow="0">
      <root>
        <mxCell id="0" />
        <mxCell id="1" parent="0" />
        <mxCell id="ZInu8goNgY44jtzvuvl4-1554" style="strokeColor=#FFFFFF;" edge="1" parent="1">
          <mxGeometry relative="1" as="geometry">
            <mxPoint x="195" y="490" as="sourcePoint" />
            <mxPoint x="675" y="170" as="targetPoint" />
          </mxGeometry>
        </mxCell>
        <mxCell id="ZInu8goNgY44jtzvuvl4-1556" style="strokeColor=#FFFFFF;" edge="1" parent="1">
          <mxGeometry relative="1" as="geometry">
            <mxPoint x="207" y="490" as="sourcePoint" />
            <mxPoint x="663" y="250" as="targetPoint" />
          </mxGeometry>
        </mxCell>
        <mxCell id="ZInu8goNgY44jtzvuvl4-1558" style="strokeColor=#FFFFFF;" edge="1" parent="1" target="ZInu8goNgY44jtzvuvl4-1557">
          <mxGeometry relative="1" as="geometry">
            <mxPoint x="171.375" y="490" as="sourcePoint" />
          </mxGeometry>
        </mxCell>
        <mxCell id="ZInu8goNgY44jtzvuvl4-1614" style="edgeStyle=none;curved=1;rounded=0;orthogonalLoop=1;jettySize=auto;html=1;entryX=0;entryY=0.5;entryDx=0;entryDy=0;fontSize=12;startSize=8;endSize=8;" edge="1" parent="1" source="ZInu8goNgY44jtzvuvl4-1559" target="ZInu8goNgY44jtzvuvl4-1597">
          <mxGeometry relative="1" as="geometry" />
        </mxCell>
        <mxCell id="ZInu8goNgY44jtzvuvl4-1615" style="edgeStyle=none;curved=1;rounded=0;orthogonalLoop=1;jettySize=auto;html=1;entryX=0;entryY=0.5;entryDx=0;entryDy=0;fontSize=12;startSize=8;endSize=8;" edge="1" parent="1" source="ZInu8goNgY44jtzvuvl4-1559" target="ZInu8goNgY44jtzvuvl4-1596">
          <mxGeometry relative="1" as="geometry" />
        </mxCell>
        <mxCell id="ZInu8goNgY44jtzvuvl4-1559" value="PRUEBAS DE ACEPTACIÓN" style="rounded=1;fillColor=#FFFF33;strokeColor=#000000;fontColor=#000000;" vertex="1" parent="1">
          <mxGeometry x="405" y="470" width="180" height="60" as="geometry" />
        </mxCell>
        <mxCell id="ZInu8goNgY44jtzvuvl4-1561" value="Técnicas de Prueba" style="rounded=1;fillColor=light-dark(#333333, #ededed);strokeColor=#FFFFFF;fontColor=#FFFFFF;arcSize=19;" vertex="1" parent="1">
          <mxGeometry x="830" y="-290" width="210" height="90" as="geometry" />
        </mxCell>
        <mxCell id="ZInu8goNgY44jtzvuvl4-1631" style="edgeStyle=none;curved=1;rounded=0;orthogonalLoop=1;jettySize=auto;html=1;entryX=0.5;entryY=0;entryDx=0;entryDy=0;fontSize=12;startSize=8;endSize=8;" edge="1" parent="1" source="ZInu8goNgY44jtzvuvl4-1563" target="ZInu8goNgY44jtzvuvl4-1604">
          <mxGeometry relative="1" as="geometry" />
        </mxCell>
        <mxCell id="ZInu8goNgY44jtzvuvl4-1563" value="Herramientas de Automatización" style="rounded=1;fillColor=#666666;strokeColor=#FFFFFF;fontColor=#FFFFFF;" vertex="1" parent="1">
          <mxGeometry x="60" y="-290" width="240" height="90" as="geometry" />
        </mxCell>
        <mxCell id="ZInu8goNgY44jtzvuvl4-1564" style="strokeColor=#FFFFFF;" edge="1" parent="1" source="ZInu8goNgY44jtzvuvl4-1566" target="ZInu8goNgY44jtzvuvl4-1563">
          <mxGeometry relative="1" as="geometry" />
        </mxCell>
        <mxCell id="ZInu8goNgY44jtzvuvl4-1616" style="edgeStyle=none;curved=1;rounded=0;orthogonalLoop=1;jettySize=auto;html=1;entryX=0;entryY=0.5;entryDx=0;entryDy=0;fontSize=12;startSize=8;endSize=8;" edge="1" parent="1" source="ZInu8goNgY44jtzvuvl4-1557" target="ZInu8goNgY44jtzvuvl4-1593">
          <mxGeometry relative="1" as="geometry" />
        </mxCell>
        <mxCell id="ZInu8goNgY44jtzvuvl4-1617" style="edgeStyle=none;curved=1;rounded=0;orthogonalLoop=1;jettySize=auto;html=1;entryX=0;entryY=0.5;entryDx=0;entryDy=0;fontSize=12;startSize=8;endSize=8;" edge="1" parent="1" source="ZInu8goNgY44jtzvuvl4-1557" target="ZInu8goNgY44jtzvuvl4-1592">
          <mxGeometry relative="1" as="geometry" />
        </mxCell>
        <mxCell id="ZInu8goNgY44jtzvuvl4-1618" style="edgeStyle=none;curved=1;rounded=0;orthogonalLoop=1;jettySize=auto;html=1;entryX=0;entryY=0.5;entryDx=0;entryDy=0;fontSize=12;startSize=8;endSize=8;" edge="1" parent="1" source="ZInu8goNgY44jtzvuvl4-1557" target="ZInu8goNgY44jtzvuvl4-1591">
          <mxGeometry relative="1" as="geometry" />
        </mxCell>
        <mxCell id="ZInu8goNgY44jtzvuvl4-1619" style="edgeStyle=none;curved=1;rounded=0;orthogonalLoop=1;jettySize=auto;html=1;entryX=0;entryY=0.5;entryDx=0;entryDy=0;fontSize=12;startSize=8;endSize=8;" edge="1" parent="1" source="ZInu8goNgY44jtzvuvl4-1557" target="ZInu8goNgY44jtzvuvl4-1590">
          <mxGeometry relative="1" as="geometry" />
        </mxCell>
        <mxCell id="ZInu8goNgY44jtzvuvl4-1557" value="PRUEBAS DE SISTEMA" style="rounded=1;fillColor=#33FFFF;strokeColor=light-dark(#000000, #121212);fontColor=light-dark(#000000, #121212);" vertex="1" parent="1">
          <mxGeometry x="405" y="230" width="180" height="60" as="geometry" />
        </mxCell>
        <mxCell id="ZInu8goNgY44jtzvuvl4-1568" style="strokeColor=#FFFFFF;" edge="1" parent="1" source="ZInu8goNgY44jtzvuvl4-1566" target="ZInu8goNgY44jtzvuvl4-1567">
          <mxGeometry relative="1" as="geometry" />
        </mxCell>
        <mxCell id="ZInu8goNgY44jtzvuvl4-1620" style="edgeStyle=none;curved=1;rounded=0;orthogonalLoop=1;jettySize=auto;html=1;entryX=0;entryY=0.5;entryDx=0;entryDy=0;fontSize=12;startSize=8;endSize=8;" edge="1" parent="1" source="ZInu8goNgY44jtzvuvl4-1570" target="ZInu8goNgY44jtzvuvl4-1589">
          <mxGeometry relative="1" as="geometry" />
        </mxCell>
        <mxCell id="ZInu8goNgY44jtzvuvl4-1621" style="edgeStyle=none;curved=1;rounded=0;orthogonalLoop=1;jettySize=auto;html=1;entryX=0;entryY=0.5;entryDx=0;entryDy=0;fontSize=12;startSize=8;endSize=8;" edge="1" parent="1" source="ZInu8goNgY44jtzvuvl4-1570" target="ZInu8goNgY44jtzvuvl4-1594">
          <mxGeometry relative="1" as="geometry" />
        </mxCell>
        <mxCell id="ZInu8goNgY44jtzvuvl4-1570" value="PRUEBAS DE INTGRACIÓN" style="rounded=1;fillColor=#00FF00;strokeColor=light-dark(#000000, #121212);fontColor=light-dark(#000000, #121212);" vertex="1" parent="1">
          <mxGeometry x="405" y="-10" width="180" height="60" as="geometry" />
        </mxCell>
        <mxCell id="ZInu8goNgY44jtzvuvl4-1571" style="strokeColor=#FFFFFF;" edge="1" parent="1" source="ZInu8goNgY44jtzvuvl4-1566" target="ZInu8goNgY44jtzvuvl4-1570">
          <mxGeometry relative="1" as="geometry" />
        </mxCell>
        <mxCell id="ZInu8goNgY44jtzvuvl4-1589" value="Incremental" style="rounded=1;fillColor=#555555;strokeColor=#FFFFFF;fontColor=#FFFFFF;arcSize=26;" vertex="1" parent="1">
          <mxGeometry x="620" y="-50" width="180" height="60" as="geometry" />
        </mxCell>
        <mxCell id="ZInu8goNgY44jtzvuvl4-1590" value="Rendimiento" style="rounded=1;fillColor=#555555;strokeColor=#FFFFFF;fontColor=#FFFFFF;arcSize=26;" vertex="1" parent="1">
          <mxGeometry x="620" y="350" width="180" height="60" as="geometry" />
        </mxCell>
        <mxCell id="ZInu8goNgY44jtzvuvl4-1591" value="Resistencia" style="rounded=1;fillColor=#555555;strokeColor=#FFFFFF;fontColor=#FFFFFF;arcSize=26;" vertex="1" parent="1">
          <mxGeometry x="620" y="270" width="180" height="60" as="geometry" />
        </mxCell>
        <mxCell id="ZInu8goNgY44jtzvuvl4-1592" value="Seguridad" style="rounded=1;fillColor=#555555;strokeColor=#FFFFFF;fontColor=#FFFFFF;arcSize=26;" vertex="1" parent="1">
          <mxGeometry x="620" y="190" width="180" height="60" as="geometry" />
        </mxCell>
        <mxCell id="ZInu8goNgY44jtzvuvl4-1593" value="Recuperación" style="rounded=1;fillColor=#555555;strokeColor=#FFFFFF;fontColor=#FFFFFF;arcSize=26;" vertex="1" parent="1">
          <mxGeometry x="620" y="110" width="180" height="60" as="geometry" />
        </mxCell>
        <mxCell id="ZInu8goNgY44jtzvuvl4-1594" value="No incremental" style="rounded=1;fillColor=#555555;strokeColor=#FFFFFF;fontColor=#FFFFFF;arcSize=26;" vertex="1" parent="1">
          <mxGeometry x="620" y="30" width="180" height="60" as="geometry" />
        </mxCell>
        <mxCell id="ZInu8goNgY44jtzvuvl4-1596" value="Beta" style="rounded=1;fillColor=#555555;strokeColor=#FFFFFF;fontColor=#FFFFFF;arcSize=26;" vertex="1" parent="1">
          <mxGeometry x="620" y="510" width="180" height="60" as="geometry" />
        </mxCell>
        <mxCell id="ZInu8goNgY44jtzvuvl4-1597" value="Alfa" style="rounded=1;fillColor=#555555;strokeColor=#FFFFFF;fontColor=#FFFFFF;arcSize=26;" vertex="1" parent="1">
          <mxGeometry x="620" y="430" width="180" height="60" as="geometry" />
        </mxCell>
        <mxCell id="ZInu8goNgY44jtzvuvl4-1598" style="edgeStyle=none;curved=1;rounded=0;orthogonalLoop=1;jettySize=auto;html=1;exitX=0.5;exitY=1;exitDx=0;exitDy=0;fontSize=12;startSize=8;endSize=8;" edge="1" parent="1" source="ZInu8goNgY44jtzvuvl4-1567" target="ZInu8goNgY44jtzvuvl4-1567">
          <mxGeometry relative="1" as="geometry" />
        </mxCell>
        <mxCell id="ZInu8goNgY44jtzvuvl4-1567" value="PRUEBAS UNITARIAS" style="rounded=1;fillColor=light-dark(#FF0000,#436697);strokeColor=#000000;fontColor=#000000;" vertex="1" parent="1">
          <mxGeometry x="405" y="-150" width="180" height="60" as="geometry" />
        </mxCell>
        <mxCell id="ZInu8goNgY44jtzvuvl4-1601" value="Caja Blanca" style="rounded=1;fillColor=light-dark(#ffffff, #b3b3b3);strokeColor=light-dark(#000000, #121212);fontColor=light-dark(#000000, #121212);" vertex="1" parent="1">
          <mxGeometry x="880" y="-60" width="180" height="60" as="geometry" />
        </mxCell>
        <mxCell id="ZInu8goNgY44jtzvuvl4-1602" value="Caja Negra" style="rounded=1;fillColor=#000000;strokeColor=#FFFFFF;fontColor=#FFFFFF;" vertex="1" parent="1">
          <mxGeometry x="880" y="-140" width="180" height="60" as="geometry" />
        </mxCell>
        <mxCell id="ZInu8goNgY44jtzvuvl4-1604" value="JUNIT" style="rounded=1;fillColor=#000000;strokeColor=#FFFFFF;fontColor=#FFFFFF;arcSize=0;" vertex="1" parent="1">
          <mxGeometry x="110" y="-140" width="140" height="80" as="geometry" />
        </mxCell>
        <mxCell id="ZInu8goNgY44jtzvuvl4-1609" value="" style="endArrow=none;html=1;rounded=0;fontSize=12;startSize=8;endSize=8;curved=1;entryX=0.095;entryY=0.99;entryDx=0;entryDy=0;entryPerimeter=0;" edge="1" parent="1" target="ZInu8goNgY44jtzvuvl4-1561">
          <mxGeometry width="50" height="50" relative="1" as="geometry">
            <mxPoint x="850" y="-30" as="sourcePoint" />
            <mxPoint x="640" y="130" as="targetPoint" />
          </mxGeometry>
        </mxCell>
        <mxCell id="ZInu8goNgY44jtzvuvl4-1610" value="" style="endArrow=none;html=1;rounded=0;fontSize=12;startSize=8;endSize=8;curved=1;entryX=0;entryY=0.5;entryDx=0;entryDy=0;" edge="1" parent="1" target="ZInu8goNgY44jtzvuvl4-1601">
          <mxGeometry width="50" height="50" relative="1" as="geometry">
            <mxPoint x="850" y="-30" as="sourcePoint" />
            <mxPoint x="640" y="130" as="targetPoint" />
          </mxGeometry>
        </mxCell>
        <mxCell id="ZInu8goNgY44jtzvuvl4-1612" value="" style="endArrow=none;html=1;rounded=0;fontSize=12;startSize=8;endSize=8;curved=1;entryX=0;entryY=0.5;entryDx=0;entryDy=0;" edge="1" parent="1" target="ZInu8goNgY44jtzvuvl4-1602">
          <mxGeometry width="50" height="50" relative="1" as="geometry">
            <mxPoint x="850" y="-110" as="sourcePoint" />
            <mxPoint x="890" y="-20" as="targetPoint" />
          </mxGeometry>
        </mxCell>
        <mxCell id="ZInu8goNgY44jtzvuvl4-1622" value="" style="strokeColor=#FFFFFF;" edge="1" parent="1" source="ZInu8goNgY44jtzvuvl4-1561" target="ZInu8goNgY44jtzvuvl4-1566">
          <mxGeometry relative="1" as="geometry">
            <mxPoint x="830" y="-245" as="sourcePoint" />
            <mxPoint x="300" y="-245" as="targetPoint" />
          </mxGeometry>
        </mxCell>
        <mxCell id="ZInu8goNgY44jtzvuvl4-1566" value="Estrategias de Prueba" style="rounded=1;fillColor=#333333;strokeColor=#FFFFFF;fontColor=#FFFFFF;" vertex="1" parent="1">
          <mxGeometry x="360" y="-290" width="210" height="90" as="geometry" />
        </mxCell>
        <mxCell id="ZInu8goNgY44jtzvuvl4-1623" value="" style="endArrow=none;html=1;rounded=0;fontSize=12;startSize=8;endSize=8;curved=1;entryX=0.097;entryY=1.04;entryDx=0;entryDy=0;entryPerimeter=0;" edge="1" parent="1" target="ZInu8goNgY44jtzvuvl4-1566">
          <mxGeometry width="50" height="50" relative="1" as="geometry">
            <mxPoint x="380" y="500" as="sourcePoint" />
            <mxPoint x="860" y="-191" as="targetPoint" />
          </mxGeometry>
        </mxCell>
        <mxCell id="ZInu8goNgY44jtzvuvl4-1624" value="" style="endArrow=none;html=1;rounded=0;fontSize=12;startSize=8;endSize=8;curved=1;entryX=0;entryY=0.5;entryDx=0;entryDy=0;" edge="1" parent="1" target="ZInu8goNgY44jtzvuvl4-1559">
          <mxGeometry width="50" height="50" relative="1" as="geometry">
            <mxPoint x="380" y="500" as="sourcePoint" />
            <mxPoint x="340" y="320" as="targetPoint" />
          </mxGeometry>
        </mxCell>
        <mxCell id="ZInu8goNgY44jtzvuvl4-1626" value="" style="endArrow=none;html=1;rounded=0;fontSize=12;startSize=8;endSize=8;curved=1;entryX=0;entryY=0.5;entryDx=0;entryDy=0;" edge="1" parent="1" target="ZInu8goNgY44jtzvuvl4-1557">
          <mxGeometry width="50" height="50" relative="1" as="geometry">
            <mxPoint x="380" y="260" as="sourcePoint" />
            <mxPoint x="280" y="160" as="targetPoint" />
          </mxGeometry>
        </mxCell>
        <mxCell id="ZInu8goNgY44jtzvuvl4-1627" value="" style="endArrow=none;html=1;rounded=0;fontSize=12;startSize=8;endSize=8;curved=1;entryX=0;entryY=0.5;entryDx=0;entryDy=0;" edge="1" parent="1" target="ZInu8goNgY44jtzvuvl4-1570">
          <mxGeometry width="50" height="50" relative="1" as="geometry">
            <mxPoint x="380" y="20" as="sourcePoint" />
            <mxPoint x="280" y="160" as="targetPoint" />
          </mxGeometry>
        </mxCell>
        <mxCell id="ZInu8goNgY44jtzvuvl4-1628" value="" style="endArrow=none;html=1;rounded=0;fontSize=12;startSize=8;endSize=8;curved=1;entryX=0;entryY=0.5;entryDx=0;entryDy=0;" edge="1" parent="1" target="ZInu8goNgY44jtzvuvl4-1567">
          <mxGeometry width="50" height="50" relative="1" as="geometry">
            <mxPoint x="380" y="-120" as="sourcePoint" />
            <mxPoint x="280" y="160" as="targetPoint" />
          </mxGeometry>
        </mxCell>
        <mxCell id="ZInu8goNgY44jtzvuvl4-1629" value="" style="shape=image;imageAspect=0;aspect=fixed;verticalLabelPosition=bottom;verticalAlign=top;image=data:image/jpeg,/9j/4QtWRXhpZgAATU0AKgAAAAgABwESAAMAAAABAAEAAAEaAAUAAAABAAAAYgEbAAUAAAABAAAAagEoAAMAAAABAAIAAAExAAIAAAAfAAAAcgEyAAIAAAAUAAAAkYdpAAQAAAABAAAAqAAAANQACvyAAAAnEAAK/IAAACcQQWRvYmUgUGhvdG9zaG9wIDIxLjAgKFdpbmRvd3MpADIwMjI6MDE6MTkgMTY6NDc6NDkAAAAAAAOgAQADAAAAAf//AACgAgAEAAAAAQAABtCgAwAEAAAAAQAAA1AAAAAAAAAABgEDAAMAAAABAAYAAAEaAAUAAAABAAABIgEbAAUAAAABAAABKgEoAAMAAAABAAIAAAIBAAQAAAABAAABMgICAAQAAAABAAAKHAAAAAAAAABIAAAAAQAAAEgAAAAB/9j/7QAMQWRvYmVfQ00AAv/uAA5BZG9iZQBkgAAAAAH/2wCEAAwICAgJCAwJCQwRCwoLERUPDAwPFRgTExUTExgRDAwMDAwMEQwMDAwMDAwMDAwMDAwMDAwMDAwMDAwMDAwMDAwBDQsLDQ4NEA4OEBQODg4UFA4ODg4UEQwMDAwMEREMDAwMDAwRDAwMDAwMDAwMDAwMDAwMDAwMDAwMDAwMDAwMDP/AABEIAE4AoAMBIgACEQEDEQH/3QAEAAr/xAE/AAABBQEBAQEBAQAAAAAAAAADAAECBAUGBwgJCgsBAAEFAQEBAQEBAAAAAAAAAAEAAgMEBQYHCAkKCxAAAQQBAwIEAgUHBggFAwwzAQACEQMEIRIxBUFRYRMicYEyBhSRobFCIyQVUsFiMzRygtFDByWSU/Dh8WNzNRaisoMmRJNUZEXCo3Q2F9JV4mXys4TD03Xj80YnlKSFtJXE1OT0pbXF1eX1VmZ2hpamtsbW5vY3R1dnd4eXp7fH1+f3EQACAgECBAQDBAUGBwcGBTUBAAIRAyExEgRBUWFxIhMFMoGRFKGxQiPBUtHwMyRi4XKCkkNTFWNzNPElBhaisoMHJjXC0kSTVKMXZEVVNnRl4vKzhMPTdePzRpSkhbSVxNTk9KW1xdXl9VZmdoaWprbG1ub2JzdHV2d3h5ent8f/2gAMAwEAAhEDEQA/APVUkkklKSSSSUpJJJJSkkkklLJJJJIUkkkkpSSSSSlJKrk9W6XiO2ZWZRQ8fm2WNaf81ztyjjdY6TlPDMbNx7nnhjLWOcf7LXbkOIXVhf7WSuLglw/vUabiSSSKxSSSSSn/0PVUkkklKSSWNj9YyrfrNk9IcysY1FQsY8A+oTFDvcd2z/Dv/MSU7KSxbus5df1no6Q1lf2a2r1HPIPqTtud7Tu2f4Jv5i2klKSWLm9Zy6PrJh9KYys4+TXve8h28GL/AKBDtn+AZ+YtpJSySSDm2ZFeHfZisFuQyt7qazw54BNbOW/Sd/KSUmSVDDzctvSPt3VKfQvrY+y+lg4DC8+1u9/0q2/6RT6R1EdU6fXnCs0ttL9rCdxAa91Q3Ee3c7ZuSUmy8vGwsazKyrBVRSN1j3cAfL3Oc78xjfprzvrX1u6n1Ww04zn4eG47WVMO218na37Raz6O/wD0NT/T/wBJ6yufX3qr789nS6zFOKG2XD96143Vg/8AE0nf/wBe/wCDXPdPr9XqWFUf8Jk0tPzsYqmfKTLgiaA0PiXd+HclCGIZ8kRKchxxB2hD9E/3pOgPqV9Y2/Rwmj4W1/8Akk7vqX9Y3fSwmn421n/vy6j66de6j0g4QwXtYb/VNm5odoz0tvP/ABi5n/n19Y/9LV/20P70Tgxg1cv+a5eX/jRPFkMJQjxRraMv73+cR9I+tPVejW+kXHJxWHa/GsdMbfa70LTudXt2/wDEr0bpvUsTqeGzMxHbqrOx0c1w+lXY3817F4+9xe9z3fScS4/EncV0P1H6u7B6s3De6MbO9hB4FoH6Gz+3/Mf9tf6NSQlVDo89yfOSGQY5m4SNRv8AQPT/AAX0lJJJTOu//9H1VJJRe/Yxz4LtoJgcmPBJTJcxhf8Ai8z/APwuP+pxFsdF6xR1jD+2UMdWzeWbLI3AiD7tjnt9zXbvpLGwCHfXvqBaZDaACfPbiBJSsr/xfYn/AIX/AO+ZK6hcr1SxmL9d+n5Fx21W1bA88bj69X/V20/9uLqklPLdU/8AFz0z/if4ZaL9YOsdUwOs4ePhRY2+twGMQ0Nfa4+lSX2FvqMZW9zbH7HsQcp7Mr6+Yjaju+y0kWkawQ293/uxT/nqfWv/ABYdG/qv/I9JTHOxvrfg4j+onqbLn0tNl2O2poYGt9z/AE5H6TY3/irP+EWi3q12V9WLOqVfob/s1rxEENsrD2u27925vqs9u9W+s/8AJGd/4Wt/6hyxemf+IK3/AMLZX/VXpKX9XqnUfqgzK+1hl2y5+U81tPq1N9djqNo2Nq3+z9IxP9TKOoDAoyHZQPT3MtbXh+mAWv8AUP6T7R9N30bfb/wil0n/AMQ7v/C2T+W5Wfqd/wCJzE/67/59tSU+fdae6zrXUXuMn7Va35Meam/9CtQ6VdRj9Uw8jIdsopvZZY4AugNO6drZd9JWvrPiOxPrBm1uB22v+0Vk922jeT/296zFlkgCSYHiVmysTPcF63FwzwQA+WeMDT92UH0HrGf9R+oXVO6jlV5DqWkV7H2FoDtrnf0U7fzfzkE/VH6rdXxDb0e70iNBbTYbWh37t1Vr3/5n6GxcKul/xf8Arftu7ZPpfZj6/O2d7PQ3fy/570/+uqeGYzmAYj1dt3G5z4HyscM8m84iyZiPq/woxjJ5vNw8jBy7cPJG26h214HB7teyY9ljDvYoUXPovqvZo+mxljT5tcHt/Itz69OrP1jtDPpNqqFn9aC7/wA9urWX0fDdndWw8QCfVubvH8hp9S4/9tMepCNa+jxE8fDnOOHSfDH7X2BJJJTvRP8A/9L1VJJJJTzL/qlmY2RbZ0bqL8Gq8y6nbuAn90h7fo/4P2eoz/SLR6H0CnpAtsNrsnLyDN2Q/QnUu2tEvc33O3v3Pe+x61UklOf1nomH1jHFOTLXsJNVrY3NJ0d9KWuY/wDwlbljj6rdeYBVX1y0UjQCHyB4D9P/AN/XUJJKcrof1exOjte9jjfk26WZD+SJ3bGN/MZu97vz7P8ACPT5vRDl9ZwuqevsGGCPR2Tund/hN7dn0v3FqJJKQZuP9qw78Xds9et9e+Jje0s3bfbu27lRxeinH6A7o3r7i6q2r19kfzpsdu9Lefoep/pFqJJKaHTuksxOjt6XbZ6zAx9b3gbJFhe53t3P2/zn7yo9E+r+f0nIA/aJvwWtcG4xZAlxDvUn1HNa/T8xi3UklPOfXL6vv6pity8Ru7NxAYYObKzq+n+u3+cp/wC2/wDCriuhZ2NgdVpy8tjrMdgsZdWGgkh7HVFrq37fznfpGL1hYXXPqh07qz3ZDScTMcPddWAQ/wD4+nRtn9f9Hb/wigyYbkJx3BFjyb2L4hKHK5sBFk48gwS/dyShLghL+pxuS5/+LXJd6hFdROpa0X0D/tuv0mKdn1s+rPRsN1HQaBbY6SAxjmM3fv5F1obbb/Z9VY+T9Quv0k+j6OS3sWP2GP5TLg1v/gijj/UP6w2mLGU448bLJ/CkWogEbRAPcRcLJz/xPJH25RkR48co/wDOlwOFk5N2TfblZL991ri+x50kn/qWt/MXd/Uf6uWYTD1TNZsyL27aKnCHMrOrnvn6Nt37v+Dr/wCMsYrPRPqT0/ptjMnJcc3KYdzHOG2thHDq6fd72/v2Of8A8H6a6NOjDqVvKclKEvdy6z3A3r+tL+spJJJSOg//0/VUkkklKSSSSUpJJJJSkkkklLJJJJIUkkkkpSSSSSlJJJJKUkkkkpSSSSSn/9n/7RNiUGhvdG9zaG9wIDMuMAA4QklNBCUAAAAAABAAAAAAAAAAAAAAAAAAAAAAOEJJTQQ6AAAAAADlAAAAEAAAAAEAAAAAAAtwcmludE91dHB1dAAAAAUAAAAAUHN0U2Jvb2wBAAAAAEludGVlbnVtAAAAAEludGUAAAAAQ2xybQAAAA9wcmludFNpeHRlZW5CaXRib29sAAAAAAtwcmludGVyTmFtZVRFWFQAAAABAAAAAAAPcHJpbnRQcm9vZlNldHVwT2JqYwAAAAwAUAByAG8AbwBmACAAUwBlAHQAdQBwAAAAAAAKcHJvb2ZTZXR1cAAAAAEAAAAAQmx0bmVudW0AAAAMYnVpbHRpblByb29mAAAACXByb29mQ01ZSwA4QklNBDsAAAAAAi0AAAAQAAAAAQAAAAAAEnByaW50T3V0cHV0T3B0aW9ucwAAABcAAAAAQ3B0bmJvb2wAAAAAAENsYnJib29sAAAAAABSZ3NNYm9vbAAAAAAAQ3JuQ2Jvb2wAAAAAAENudENib29sAAAAAABMYmxzYm9vbAAAAAAATmd0dmJvb2wAAAAAAEVtbERib29sAAAAAABJbnRyYm9vbAAAAAAAQmNrZ09iamMAAAABAAAAAAAAUkdCQwAAAAMAAAAAUmQgIGRvdWJAb+AAAAAAAAAAAABHcm4gZG91YkBv4AAAAAAAAAAAAEJsICBkb3ViQG/gAAAAAAAAAAAAQnJkVFVudEYjUmx0AAAAAAAAAAAAAAAAQmxkIFVudEYjUmx0AAAAAAAAAAAAAAAAUnNsdFVudEYjUHhsQFIAAAAAAAAAAAAKdmVjdG9yRGF0YWJvb2wBAAAAAFBnUHNlbnVtAAAAAFBnUHMAAAAAUGdQQwAAAABMZWZ0VW50RiNSbHQAAAAAAAAAAAAAAABUb3AgVW50RiNSbHQAAAAAAAAAAAAAAABTY2wgVW50RiNQcmNAWQAAAAAAAAAAABBjcm9wV2hlblByaW50aW5nYm9vbAAAAAAOY3JvcFJlY3RCb3R0b21sb25nAAAAAAAAAAxjcm9wUmVjdExlZnRsb25nAAAAAAAAAA1jcm9wUmVjdFJpZ2h0bG9uZwAAAAAAAAALY3JvcFJlY3RUb3Bsb25nAAAAAAA4QklNA+0AAAAAABAASAAAAAEAAgBIAAAAAQACOEJJTQQmAAAAAAAOAAAAAAAAAAAAAD+AAAA4QklNBA0AAAAAAAQAAABaOEJJTQQZAAAAAAAEAAAAHjhCSU0D8wAAAAAACQAAAAAAAAAAAQA4QklNJxAAAAAAAAoAAQAAAAAAAAACOEJJTQP1AAAAAABIAC9mZgABAGxmZgAGAAAAAAABAC9mZgABAKGZmgAGAAAAAAABADIAAAABAFoAAAAGAAAAAAABADUAAAABAC0AAAAGAAAAAAABOEJJTQP4AAAAAABwAAD/////////////////////////////A+gAAAAA/////////////////////////////wPoAAAAAP////////////////////////////8D6AAAAAD/////////////////////////////A+gAADhCSU0EAAAAAAAAAgACOEJJTQQCAAAAAAAIAAAAAAAAAAA4QklNBDAAAAAAAAQBAQEBOEJJTQQtAAAAAAAGAAEAAAAEOEJJTQQIAAAAAAAQAAAAAQAAAkAAAAJAAAAAADhCSU0EHgAAAAAABAAAAAA4QklNBBoAAAAAA0kAAAAGAAAAAAAAAAAAAANQAAAG0AAAAAoAVQBuAHQAaQB0AGwAZQBkAC0AMQAAAAEAAAAAAAAAAAAAAAAAAAAAAAAAAQAAAAAAAAAAAAAG0AAAA1AAAAAAAAAAAAAAAAAAAAAAAQAAAAAAAAAAAAAAAAAAAAAAAAAQAAAAAQAAAAAAAG51bGwAAAACAAAABmJvdW5kc09iamMAAAABAAAAAAAAUmN0MQAAAAQAAAAAVG9wIGxvbmcAAAAAAAAAAExlZnRsb25nAAAAAAAAAABCdG9tbG9uZwAAA1AAAAAAUmdodGxvbmcAAAbQAAAABnNsaWNlc1ZsTHMAAAABT2JqYwAAAAEAAAAAAAVzbGljZQAAABIAAAAHc2xpY2VJRGxvbmcAAAAAAAAAB2dyb3VwSURsb25nAAAAAAAAAAZvcmlnaW5lbnVtAAAADEVTbGljZU9yaWdpbgAAAA1hdXRvR2VuZXJhdGVkAAAAAFR5cGVlbnVtAAAACkVTbGljZVR5cGUAAAAASW1nIAAAAAZib3VuZHNPYmpjAAAAAQAAAAAAAFJjdDEAAAAEAAAAAFRvcCBsb25nAAAAAAAAAABMZWZ0bG9uZwAAAAAAAAAAQnRvbWxvbmcAAANQAAAAAFJnaHRsb25nAAAG0AAAAAN1cmxURVhUAAAAAQAAAAAAAG51bGxURVhUAAAAAQAAAAAAAE1zZ2VURVhUAAAAAQAAAAAABmFsdFRhZ1RFWFQAAAABAAAAAAAOY2VsbFRleHRJc0hUTUxib29sAQAAAAhjZWxsVGV4dFRFWFQAAAABAAAAAAAJaG9yekFsaWduZW51bQAAAA9FU2xpY2VIb3J6QWxpZ24AAAAHZGVmYXVsdAAAAAl2ZXJ0QWxpZ25lbnVtAAAAD0VTbGljZVZlcnRBbGlnbgAAAAdkZWZhdWx0AAAAC2JnQ29sb3JUeXBlZW51bQAAABFFU2xpY2VCR0NvbG9yVHlwZQAAAABOb25lAAAACXRvcE91dHNldGxvbmcAAAAAAAAACmxlZnRPdXRzZXRsb25nAAAAAAAAAAxib3R0b21PdXRzZXRsb25nAAAAAAAAAAtyaWdodE91dHNldGxvbmcAAAAAADhCSU0EKAAAAAAADAAAAAI/8AAAAAAAADhCSU0EEQAAAAAAAQEAOEJJTQQUAAAAAAAEAAAABDhCSU0EDAAAAAAKOAAAAAEAAACgAAAATgAAAeAAAJJAAAAKHAAYAAH/2P/tAAxBZG9iZV9DTQAC/+4ADkFkb2JlAGSAAAAAAf/bAIQADAgICAkIDAkJDBELCgsRFQ8MDA8VGBMTFRMTGBEMDAwMDAwRDAwMDAwMDAwMDAwMDAwMDAwMDAwMDAwMDAwMDAENCwsNDg0QDg4QFA4ODhQUDg4ODhQRDAwMDAwREQwMDAwMDBEMDAwMDAwMDAwMDAwMDAwMDAwMDAwMDAwMDAwM/8AAEQgATgCgAwEiAAIRAQMRAf/dAAQACv/EAT8AAAEFAQEBAQEBAAAAAAAAAAMAAQIEBQYHCAkKCwEAAQUBAQEBAQEAAAAAAAAAAQACAwQFBgcICQoLEAABBAEDAgQCBQcGCAUDDDMBAAIRAwQhEjEFQVFhEyJxgTIGFJGhsUIjJBVSwWIzNHKC0UMHJZJT8OHxY3M1FqKygyZEk1RkRcKjdDYX0lXiZfKzhMPTdePzRieUpIW0lcTU5PSltcXV5fVWZnaGlqa2xtbm9jdHV2d3h5ent8fX5/cRAAICAQIEBAMEBQYHBwYFNQEAAhEDITESBEFRYXEiEwUygZEUobFCI8FS0fAzJGLhcoKSQ1MVY3M08SUGFqKygwcmNcLSRJNUoxdkRVU2dGXi8rOEw9N14/NGlKSFtJXE1OT0pbXF1eX1VmZ2hpamtsbW5vYnN0dXZ3eHl6e3x//aAAwDAQACEQMRAD8A9VSSSSUpJJJJSkkkklKSSSSUskkkkhSSSSSlJJJJKUkquT1bpeI7ZlZlFDx+bZY1p/zXO3KON1jpOU8Mxs3HueeGMtY5x/stduQ4hdWF/tZK4uCXD+9RpuJJJIrFJJJJKf/Q9VSSSSUpJJY2P1jKt+s2T0hzKxjUVCxjwD6hMUO9x3bP8O/8xJTspLFu6zl1/WejpDWV/ZravUc8g+pO253tO7Z/gm/mLaSUpJYub1nLo+smH0pjKzj5Ne97yHbwYv8AoEO2f4Bn5i2klLJJIObZkV4d9mKwW5DK3uprPDngE1s5b9J38pJSZJUMPNy29I+3dUp9C+tj7L6WDgMLz7W73/Srb/pFPpHUR1Tp9ecKzS20v2sJ3EBr3VDcR7dztm5JSbLy8bCxrMrKsFVFI3WPdwB8vc5zvzGN+mvO+tfW7qfVbDTjOfh4bjtZUw7bXydrftFrPo7/APQ1P9P/AEnrK59feqvvz2dLrMU4obZcP3rXjdWD/wATSd//AF7/AINc90+v1epYVR/wmTS0/OxiqZ8pMuCJoDQ+Jd34dyUIYhnyREpyHHEHaEP0T/ek6A+pX1jb9HCaPhbX/wCSTu+pf1jd9LCafjbWf+/LqPrp17qPSDhDBe1hv9U2bmh2jPS28/8AGLmf+fX1j/0tX/bQ/vRODGDVy/5rl5f+NE8WQwlCPFGtoy/vf5xH0j609V6Nb6RccnFYdr8ax0xt9rvQtO51e3b/AMSvRum9SxOp4bMzEduqs7HRzXD6VdjfzXsXj73F73Pd9JxLj8SdxXQ/Ufq7sHqzcN7oxs72EHgWgfobP7f8x/21/o1JCVUOjz3J85IZBjmbhI1G/wBA9P8ABfSUkklM67//0fVUklF79jHPgu2gmByY8ElMlzGF/wCLzP8A/C4/6nEWx0XrFHWMP7ZQx1bN5ZssjcCIPu2Oe33Ndu+ksbAId9e+oFpkNoAJ89uIElKyv/F9if8Ahf8A75krqFyvVLGYv136fkXHbVbVsDzxuPr1f9XbT/24uqSU8t1T/wAXPTP+J/hlov1g6x1TA6zh4+FFjb63AYxDQ19rj6VJfYW+oxlb3NsfsexBynsyvr5iNqO77LSRaRrBDb3f+7FP+ep9a/8AFh0b+q/8j0lMc7G+t+DiP6iepsufS02XY7amhga33P8ATkfpNjf+Ks/4RaLerXZX1Ys6pV+hv+zWvEQQ2ysPa7bv3bm+qz271b6z/wAkZ3/ha3/qHLF6Z/4grf8Awtlf9Vekpf1eqdR+qDMr7WGXbLn5TzW0+rU312Oo2jY2rf7P0jE/1Mo6gMCjIdlA9Pcy1teH6YBa/wBQ/pPtH03fRt9v/CKXSf8AxDu/8LZP5blZ+p3/AInMT/rv/n21JT591p7rOtdRe4yftVrfkx5qb/0K1DpV1GP1TDyMh2yim9lljgC6A07p2tl30la+s+I7E+sGbW4Hba/7RWT3baN5P/b3rMWWSAJJgeJWbKxM9wXrcXDPBAD5Z4wNP3ZQfQesZ/1H6hdU7qOVXkOpaRXsfYWgO2ud/RTt/N/OQT9Ufqt1fENvR7vSI0FtNhtaHfu3VWvf/mfobFwq6X/F/wCt+27tk+l9mPr87Z3s9Dd/L/nvT/66p4ZjOYBiPV23cbnPgfKxwzybziLJmI+r/CjGMnm83DyMHLtw8kbbqHbXgcHu17Jj2WMO9ihRc+i+q9mj6bGWNPm1we38i3Pr06s/WO0M+k2qoWf1oLv/AD26tZfR8N2d1bDxAJ9W5u8fyGn1Lj/20x6kI1r6PETx8Oc44dJ8MftfYEkklO9E/wD/0vVUkkklPMv+qWZjZFtnRuovwarzLqdu4Cf3SHt+j/g/Z6jP9ItHofQKekC2w2uycvIM3ZD9CdS7a0S9zfc7e/c977HrVSSU5/WeiYfWMcU5Mtewk1Wtjc0nR30pa5j/APCVuWOPqt15gFVfXLRSNAIfIHgP0/8A39dQkkpyuh/V7E6O172ON+TbpZkP5IndsY38xm73u/Ps/wAI9Pm9EOX1nC6p6+wYYI9HZO6d3+E3t2fS/cWokkpBm4/2rDvxd2z163174mN7Szdt9u7buVHF6KcfoDujevuLqravX2R/Omx270t5+h6n+kWokkpodO6SzE6O3pdtnrMDH1veBskWF7ne3c/b/OfvKj0T6v5/ScgD9om/Ba1wbjFkCXEO9SfUc1r9PzGLdSSU859cvq+/qmK3LxG7s3EBhg5srOr6f67f5yn/ALb/AMKuK6FnY2B1WnLy2Osx2Cxl1YaCSHsdUWurft/Od+kYvWFhdc+qHTurPdkNJxMxw911YBD/APj6dG2f1/0dv/CKDJhuQnHcEWPJvYviEocrmwEWTjyDBL93JKEuCEv6nG5Ln/4tcl3qEV1E6lrRfQP+26/SYp2fWz6s9Gw3UdBoFtjpIDGOYzd+/kXWhttv9n1Vj5P1C6/ST6Po5LexY/YY/lMuDW/+CKOP9Q/rDaYsZTjjxssn8KRaiARtEA9xFwsnP/E8kfblGRHjxyj/AM6XA4WTk3ZN9uVkv33WuL7HnSSf+pa38xd39R/q5ZhMPVM1mzIvbtoqcIcys6ue+fo23fu/4Ov/AIyxis9E+pPT+m2Myclxzcph3Mc4ba2EcOrp93vb+/Y5/wDwfpro06MOpW8pyUoS93LrPcDev60v6ykkklI6D//T9VSSSSUpJJJJSkkkklKSSSSUskkkkhSSSSSlJJJJKUkkkkpSSSSSlJJJJKf/2ThCSU0EIQAAAAAAVwAAAAEBAAAADwBBAGQAbwBiAGUAIABQAGgAbwB0AG8AcwBoAG8AcAAAABQAQQBkAG8AYgBlACAAUABoAG8AdABvAHMAaABvAHAAIAAyADAAMgAwAAAAAQA4QklNBAYAAAAAAAcABgAAAAEBAP/hDlhodHRwOi8vbnMuYWRvYmUuY29tL3hhcC8xLjAvADw/eHBhY2tldCBiZWdpbj0i77u/IiBpZD0iVzVNME1wQ2VoaUh6cmVTek5UY3prYzlkIj8+IDx4OnhtcG1ldGEgeG1sbnM6eD0iYWRvYmU6bnM6bWV0YS8iIHg6eG1wdGs9IkFkb2JlIFhNUCBDb3JlIDUuNi1jMTQ4IDc5LjE2NDAzNiwgMjAxOS8wOC8xMy0wMTowNjo1NyAgICAgICAgIj4gPHJkZjpSREYgeG1sbnM6cmRmPSJodHRwOi8vd3d3LnczLm9yZy8xOTk5LzAyLzIyLXJkZi1zeW50YXgtbnMjIj4gPHJkZjpEZXNjcmlwdGlvbiByZGY6YWJvdXQ9IiIgeG1sbnM6eG1wPSJodHRwOi8vbnMuYWRvYmUuY29tL3hhcC8xLjAvIiB4bWxuczp4bXBNTT0iaHR0cDovL25zLmFkb2JlLmNvbS94YXAvMS4wL21tLyIgeG1sbnM6c3RFdnQ9Imh0dHA6Ly9ucy5hZG9iZS5jb20veGFwLzEuMC9zVHlwZS9SZXNvdXJjZUV2ZW50IyIgeG1sbnM6cGhvdG9zaG9wPSJodHRwOi8vbnMuYWRvYmUuY29tL3Bob3Rvc2hvcC8xLjAvIiB4bWxuczpkYz0iaHR0cDovL3B1cmwub3JnL2RjL2VsZW1lbnRzLzEuMS8iIHhtcDpDcmVhdG9yVG9vbD0iQWRvYmUgUGhvdG9zaG9wIDIxLjAgKFdpbmRvd3MpIiB4bXA6Q3JlYXRlRGF0ZT0iMjAyMi0wMS0xOVQxNjo0Nzo0OSswODowMCIgeG1wOk1ldGFkYXRhRGF0ZT0iMjAyMi0wMS0xOVQxNjo0Nzo0OSswODowMCIgeG1wOk1vZGlmeURhdGU9IjIwMjItMDEtMTlUMTY6NDc6NDkrMDg6MDAiIHhtcE1NOkluc3RhbmNlSUQ9InhtcC5paWQ6NTFjZmI3ZmMtYWQ4Ny0xNjQwLWI5OTMtZTg3ODg2ODczNGI4IiB4bXBNTTpEb2N1bWVudElEPSJhZG9iZTpkb2NpZDpwaG90b3Nob3A6YTI3MDkyOTktZGIwYy00YTQ1LTk5OTMtNWRjYjZlNjgwZWFlIiB4bXBNTTpPcmlnaW5hbERvY3VtZW50SUQ9InhtcC5kaWQ6MzM3MWM4YjYtZmYzNy05ODQ5LTg1MzgtZmJkZTE5NDBmOWYwIiBwaG90b3Nob3A6Q29sb3JNb2RlPSIzIiBkYzpmb3JtYXQ9ImltYWdlL2pwZWciPiA8eG1wTU06SGlzdG9yeT4gPHJkZjpTZXE+IDxyZGY6bGkgc3RFdnQ6YWN0aW9uPSJjcmVhdGVkIiBzdEV2dDppbnN0YW5jZUlEPSJ4bXAuaWlkOjMzNzFjOGI2LWZmMzctOTg0OS04NTM4LWZiZGUxOTQwZjlmMCIgc3RFdnQ6d2hlbj0iMjAyMi0wMS0xOVQxNjo0Nzo0OSswODowMCIgc3RFdnQ6c29mdHdhcmVBZ2VudD0iQWRvYmUgUGhvdG9zaG9wIDIxLjAgKFdpbmRvd3MpIi8+IDxyZGY6bGkgc3RFdnQ6YWN0aW9uPSJzYXZlZCIgc3RFdnQ6aW5zdGFuY2VJRD0ieG1wLmlpZDo1MWNmYjdmYy1hZDg3LTE2NDAtYjk5My1lODc4ODY4NzM0YjgiIHN0RXZ0OndoZW49IjIwMjItMDEtMTlUMTY6NDc6NDkrMDg6MDAiIHN0RXZ0OnNvZnR3YXJlQWdlbnQ9IkFkb2JlIFBob3Rvc2hvcCAyMS4wIChXaW5kb3dzKSIgc3RFdnQ6Y2hhbmdlZD0iLyIvPiA8L3JkZjpTZXE+IDwveG1wTU06SGlzdG9yeT4gPHBob3Rvc2hvcDpUZXh0TGF5ZXJzPiA8cmRmOkJhZz4gPHJkZjpsaSBwaG90b3Nob3A6TGF5ZXJOYW1lPSJKVW5pdCIgcGhvdG9zaG9wOkxheWVyVGV4dD0iSlVuaXQiLz4gPC9yZGY6QmFnPiA8L3Bob3Rvc2hvcDpUZXh0TGF5ZXJzPiA8L3JkZjpEZXNjcmlwdGlvbj4gPC9yZGY6UkRGPiA8L3g6eG1wbWV0YT4gICAgICAgICAgICAgICAgICAgICAgICAgICAgICAgICAgICAgICAgICAgICAgICAgICAgICAgICAgICAgICAgICAgICAgICAgICAgICAgICAgICAgICAgICAgICAgICAgICAgICAgICAgICAgICAgICAgICAgICAgICAgICAgICAgICAgICAgICAgICAgICAgICAgICAgICAgICAgICAgICAgICAgICAgICAgICAgICAgICAgICAgICAgICAgICAgICAgICAgICAgICAgICAgICAgICAgICAgICAgICAgICAgICAgICAgICAgICAgICAgICAgICAgICAgICAgICAgICAgICAgICAgICAgICAgICAgICAgICAgICAgICAgICAgICAgICAgICAgICAgICAgICAgICAgICAgICAgICAgICAgICAgICAgICAgICAgICAgICAgICAgICAgICAgICAgICAgICAgICAgICAgICAgICAgICAgICAgICAgICAgICAgICAgICAgICAgICAgICAgICAgICAgICAgICAgICAgICAgICAgICAgICAgICAgICAgICAgICAgICAgICAgICAgICAgICAgICAgICAgICAgICAgICAgICAgICAgICAgICAgICAgICAgICAgICAgICAgICAgICAgICAgICAgICAgICAgICAgICAgICAgICAgICAgICAgICAgICAgICAgICAgICAgICAgICAgICAgICAgICAgICAgICAgICAgICAgICAgICAgICAgICAgICAgICAgICAgICAgICAgICAgICAgICAgICAgICAgICAgICAgICAgICAgICAgICAgICAgICAgICAgICAgICAgICAgICAgICAgICAgICAgICAgICAgICAgICAgICAgICAgICAgICAgICAgICAgICAgICAgICAgICAgICAgICAgICAgICAgICAgICAgICAgICAgICAgICAgICAgICAgICAgICAgICAgICAgICAgICAgICAgICAgICAgICAgICAgICAgICAgICAgICAgICAgICAgICAgICAgICAgICAgICAgICAgICAgICAgICAgICAgICAgICAgICAgICAgICAgICAgICAgICAgICAgICAgICAgICAgICAgICAgICAgICAgICAgICAgICAgICAgICAgICAgICAgICAgICAgICAgICAgICAgICAgICAgICAgICAgICAgICAgICAgICAgICAgICAgICAgICAgICAgICAgICAgICAgICAgICAgICAgICAgICAgICAgICAgICAgICAgICAgICAgICAgICAgICAgICAgICAgICAgICAgICAgICAgICAgICAgICAgICAgICAgICAgICAgICAgICAgICAgICAgICAgICAgICAgICAgICAgICAgICAgICAgICAgICAgICAgICAgICAgICAgICAgICAgICAgICAgICAgICAgICAgICAgICAgICAgICAgICAgICAgICAgICAgICAgICAgICAgICAgICAgICAgICAgICAgICAgICAgICAgICAgICAgICAgICAgICAgICAgICAgICAgICAgICAgICAgICAgICAgICAgICAgICAgICAgICAgICAgICAgICAgICAgICAgICAgICAgICAgICAgICAgICAgICAgICAgICAgICAgICAgICAgICAgICAgICAgICAgICAgICAgICAgICAgICAgICAgICAgICAgICAgICAgICAgICAgICAgICAgICAgICAgICAgICAgICAgICAgICAgICAgICAgICAgICAgICAgICAgICAgICAgICAgICAgICAgICAgICAgICAgICAgICAgICAgICAgICAgICAgICAgICAgICAgICAgICAgICAgICAgICAgICAgICAgICAgICAgICAgICAgICAgICAgICAgICAgICAgICAgICAgICAgICAgICAgICAgICAgICAgICAgICAgICAgICAgICAgICAgICAgICAgICAgICAgICAgICAgICAgICAgICAgICAgICAgICAgICAgICAgICAgICAgICAgICAgICAgICAgICAgICAgICAgICAgICAgICAgICAgICAgICAgICAgICAgICAgICAgICAgICAgICAgICAgICAgICAgICAgICAgICAgICAgICAgICAgICAgICAgICAgICAgICAgICAgICAgICAgICAgICAgICAgICAgICAgICAgICAgICAgICAgICAgICAgICAgICAgICAgICAgICAgICAgICAgICAgICAgICAgICAgICAgICAgICAgICAgICAgICAgICAgICAgICAgICAgICAgICAgICAgICAgICAgICAgICAgICAgICAgICAgICAgICAgICAgICAgICAgICAgICAgICAgICAgICAgICAgICAgICAgICAgICAgICAgICAgICAgICAgICAgICAgICAgICAgICAgICAgICAgICAgICAgICAgICAgICAgICAgICAgICAgICAgICAgICAgICAgICAgICAgICAgICAgICAgICAgICAgICAgICAgICAgICAgICAgICAgICAgICAgICAgICAgICAgICAgICAgICAgICAgICAgICAgICAgICAgICAgICAgICAgICAgICAgICAgICAgICAgICAgICAgICAgICAgICAgICAgICAgICAgICAgICAgICAgICAgICAgICA8P3hwYWNrZXQgZW5kPSJ3Ij8+/+4ADkFkb2JlAGRAAAAAAf/bAIQAAgICAwIDBAICBAUEAwQFBgUFBQUGCAcHBwcHCAsJCQkJCQkLCwsLCwsLCwwMDAwMDAwMDAwMDAwMDAwMDAwMDAEDAwMHBAcNBwcNDw0NDQ8PDg4ODg8PDAwMDAwPDwwMDAwMDA8MDAwMDAwMDAwMDAwMDAwMDAwMDAwMDAwMDAwM/8AAEQgDUAbQAwERAAIRAQMRAf/dAAQA2v/EAaIAAAAHAQEBAQEAAAAAAAAAAAQFAwIGAQAHCAkKCwEAAgIDAQEBAQEAAAAAAAAAAQACAwQFBgcICQoLEAACAQMDAgQCBgcDBAIGAnMBAgMRBAAFIRIxQVEGE2EicYEUMpGhBxWxQiPBUtHhMxZi8CRygvElQzRTkqKyY3PCNUQnk6OzNhdUZHTD0uIIJoMJChgZhJRFRqS0VtNVKBry4/PE1OT0ZXWFlaW1xdXl9WZ2hpamtsbW5vY3R1dnd4eXp7fH1+f3OEhYaHiImKi4yNjo+Ck5SVlpeYmZqbnJ2en5KjpKWmp6ipqqusra6voRAAICAQIDBQUEBQYECAMDbQEAAhEDBCESMUEFURNhIgZxgZEyobHwFMHR4SNCFVJicvEzJDRDghaSUyWiY7LCB3PSNeJEgxdUkwgJChgZJjZFGidkdFU38qOzwygp0+PzhJSktMTU5PRldYWVpbXF1eX1RlZmdoaWprbG1ub2R1dnd4eXp7fH1+f3OEhYaHiImKi4yNjo+DlJWWl5iZmpucnZ6fkqOkpaanqKmqq6ytrq+v/aAAwDAQACEQMRAD8A+/mKuxV2KuxV2KuxV2KuxV2KuxV2KuxV2KuxV2KuxV2KuxV2KuxV2KuxV2KuxV2KuxV2KuxV2KuxV2KuxV2KuxV2KuxV2KuxV2KuxV2KuxV2KuxV2KuxV2KuxV2KuxV2KuxV2KuxV2KuxV2KuxV2KuxV2KuxV2KuxV2KuxV2KuxV2KuxV2KuxV2KuxV2KuxV2KuxV2KuxV2KuxV2KuxV2KuxV2KuxV2KrMWLsVdirsVdirsVdirsVdirsVdirsVdirsVdirsVdirsVdirsVdirsVdirsVdirsVdirsVdirsVdirsVdirsVdirsVdirsVdirsVdirsVdirsVdirsVdirsVdirsVdirsVdirsVdirsVdirsVdirsVdirsVdirsVdirsVdirsVdirsVdirsVdirsVdirsVdirsVdirsVdirsVdirsVdirsVdirsVdirsVdirsVdirsVdirsVdirsVdirsVdirsVdirsVdirsVdirsVdirsVdirsVdirsVdirsVdirsVdirsVdirsVdirsVdirsVdirsVdir/9D7+Yq7FXYq7FXYq7FXYq7FXYq7FXYq7FXYq7FXYq7FXYq7FXYq7FXYq7FXYq7FXYq7FXYq7FXYq7FXYq7FXYq7FXYq7FXYq7FXYq7FXYq7FXYq7FXYq7FXYq7FXYq7FXYq7FXYq7FXYq7FXYq7FXYq7FXYq7FXYq7FXYq7FXYq7FXYq7FXYq7FXYq7FXYq7FXYq7FXYq7FXYq7FXYq7FXYq7FXYq7FXYqsxYuxV2KuxV2KuxV2KuxV2KuxV2KuxV2KuxV2KuxV2KuxV2KuxV2KuxV2KuxV2KuxV2KuxV2KuxV2KuxV2KuxV2KuxV2KuxV2KuxV2KuxV2KuxV2KuxV2KuxV2KuxV2KuxV2KuxV2KuxV2KuxV2KuxV2KuxV2KuxV2KuxV2KuxV2KuxV2KuxV2KuxV2KuxV2KuxV2KuxV2KuxV2KuxV2KuxV2KuxV2KuxV2KuxV2KuxV2KuxV2KuxV2KuxV2KuxV2KuxV2KuxV2KuxV2KuxV2KuxV2KuxV2KuxV2KuxV2KuxV2KuxV2KuxV2KuxV2KuxV2Kv/0fv5irsVdirsVdirsVdirsVdirsVdirsVdirsVdirsVdirsVdirsVdirsVdirsVdirsVdirsVdirsVdirsVdirsVdirsVdirsVdirsVdirsVdirsVdirsVdirsVdirsVdirsVdirsVdirsVdirsVdirsVdirsVdirsVdirsVdirsVdirsVdirsVdirsVdirsVdirsVdirsVdirsVdirsVdirsVdirsVdiqzFi7FXYq7FXYq7FXYq7FXYq7FXYq7FXYq7FXYq7FXYq7FXYq7FXYq7FXYq7FXYq7FXYq7FXYq7FXYq7FXYq7FXYq7FXYq7FXYq7FXYq7FXYq7FXYq7FXYq7FXYq7FXYq7FXYq7FXYq7FXYq7FXYq7FXYq7FXYq7FXYq7FXYq7FXYq7FXYq7FXYq7FXYq7FXYq7FXYq7FXYq7FXYq7FXYq7FXYq7FXYq7FXYq7FXYq7FXYq7FXYq7FXYq7FXYq7FXYq7FXYq7FXYq7FXYq7FXYq7FXYq7FXYq7FXYq7FXYq7FXYq7FXYq7FXYq7FXYq7FXYq//S+/mKuxV2KuxV2KuxV2KuxV2KuxV2KuxV2KuxV2KuxV2KuxV2KuxV2KuxV2KuxV2KuxV2KuxV2KuxV2KuxV2KuxV2KuxV2KuxV2KuxV2KuxV2KuxV2KuxV2KuxV2KuxV2KuxV2KuxV2KuxV2KuxV2KuxV2KuxV2KuxV2KuxV2KuxV2KuxV2KuxV2KuxV2KuxV2KuxV2KuxV2KuxV2KuxV2KuxV2KuxV2KrMWLsVdirsVdirsVdirsVdirsVdirsVdirsVdirsVdirsVdirsVdirsVdirsVdirsVdirsVdirsVdirsVdirsVdirsVdirsVdirsVdirsVdirsVdirsVdirsVdirsVdirsVdirsVdirsVdirsVdirsVdirsVdirsVdirsVdirsVdirsVdirsVdirsVdirsVdirsVdirsVdirsVdirsVdirsVdirsVdirsVdirsVdirsVdirsVdirsVdirsVdirsVdirsVdirsVdirsVdirsVdirsVdirsVdirsVdirsVdirsVdirsVdirsVdirsVdirsVdir/9P7+Yq7FXYq7FXYq7FXYq7FXYq7FXYq7FXYq7FXYq7FXYq7FXYq7FXYq7FXYq7FXYq7FXYq7FXYq7FXYq7FXYq7FXYq7FXYq7FXYq7FXYq7FXYq7FXYq7FXYq7FXYq7FXYq7FXYq7FXYq7FXYq7FXYq7FXYq7FXYq7FXYq7FXYq7FXYq7FXYq7FXYq7FXYq7FXYq7FXYq7FXYq7FXYq7FXYq7FXYq7FXYqsxYuxV2KuxV2KuxV2KuxV2KuxV2KuxV2KuxV2KuxV2KuxV2KuxV2KuxV2KuxV2KuxV2KuxV2KuxV2KuxV2KuxV2KuxV2KuxV2KuxV2KuxV2KuxV2KuxV2KuxV2KuxV2KuxV2KuxV2KuxV2KuxV2KuxV2KuxV2KuxV2KuxV2KuxV2KuxV2KuxV2KuxV2KuxV2KuxV2KuxV2KuxV2KuxV2KuxV2KuxV2KuxV2KuxV2KuxV2KuxV2KuxV2KuxV2KuxV2KuxV2KuxV2KuxV2KuxV2KuxV2KuxV2KuxV2KuxV2KuxV2KuxV2KuxV2KuxV2KuxV2Kv/1Pv5irsVdirsVdirsVdirsVdirsVdirsVdirsVdirsVdirsVdirsVdirsVdirsVdirsVdirsVdirsVdirsVdirsVdirsVdirsVdirsVdirsVdirsVdirsVdirsVdirsVdirsVdirsVdirsVdirsVdirsVdirsVdirsVdirsVdirsVdirsVdirsVdirsVdirsVdirsVdirsVdirsVdirsVdirsVdirsVdiqzFi7FXYq7FXYq7FXYq7FXYq7FXYq7FXYq7FXYq7FXYq7FXYq7FXYq7FXYq7FXYq7FXYq7FXYq7FXYq7FXYq7FXYq7FXYq7FXYq7FXYq7FXYq7FXYq7FXYq7FXYq7FXYq7FXYq7FXYq7FXYq7FXYq7FXYq7FXYq7FXYq7FXYq7FXYq7FXYq7FXYq7FXYq7FXYq7FXYq7FXYq7FXYq7FXYq7FXYq7FXYq7FXYq7FXYq7FXYq7FXYq7FXYq7FXYq7FXYq7FXYq7FXYq7FXYq7FXYq7FXYq7FXYq7FXYq7FXYq7FXYq7FXYq7FXYq7FXYq7FXYq//V+/mKuxV2KuxV2KuxV2KuxV2KuxV2KuxV2KuxV2KuxV2KuxV2KuxV2KuxV2KuxV2KuxV2KuxV2KuxV2KuxV2KuxV2KuxV2KuxV2KuxV2KuxV2KuxV2KuxV2KuxV2KuxV2KuxV2KuxV2KuxV2KuxV2KuxV2KuxV2KuxV2KuxV2KuxV2KuxV2KuxV2KuxV2KuxV2KuxV2KuxV2KuxV2KuxV2KuxV2KuxV2KrMWLsVdirsVdirsVdirsVdirsVdirsVdirsVdirsVdirsVdirsVdirsVdirsVdirsVdirsVdirsVdirsVdirsVdirsVdirsVdirsVdirsVdirsVdirsVdirsVdirsVdirsVdirsVdirsVdirsVdirsVdirsVdirsVdirsVdirsVdirsVdirsVdirsVdirsVdirsVdirsVdirsVdirsVdirsVdirsVdirsVdirsVdirsVdirsVdirsVdirsVdirsVdirsVdirsVdirsVdirsVdirsVdirsVdirsVdirsVdirsVdirsVdirsVdirsVdirsVdir/9b7+Yq7FXYq7FXYq7FXYq7FXYq7FXYq7FXYq7FXYq7FXYq7FXYq7FXYq7FXYq7FXYq7FXYq7FXYq7FXYq7FXYq7FXYq7FXYq7FXYq7FXYq7FXYq7FXYq7FXYq7FXYq7FXYq7FXYq7FXYq7FXYq7FXYq7FXYq7FXYq7FXYq7FXYq7FXYq7FXYq7FXYq7FXYq7FXYq7FXYq7FXYq7FXYq7FXYq7FXYq7FXYqsxYuxV2KuxV2KuxV2KuxV2KuxV2KuxV2KuxV2KuxV2KuxV2KuxV2KuxV2KuxV2KuxV2KuxV2KuxV2KuxV2KuxV2KuxV2KuxV2KuxV2KuxV2KuxV2KuxV2KuxV2KuxV2KuxV2KuxV2KuxV2KuxV2KuxV2KuxV2KuxV2KuxV2KuxV2KuxV2KuxV2KuxV2KuxV2KuxV2KuxV2KuxV2KuxV2KuxV2KuxV2KuxV2KuxV2KuxV2KuxV2KuxV2KuxV2KuxV2KuxV2KuxV2KuxV2KuxV2KuxV2KuxV2KuxV2KuxV2KuxV2KuxV2KuxV2KuxV2KuxV2Kv/1/v5irsVdirsVdirsVdirsVdirsVdirsVdirsVdirsVdirsVdirsVdirsVdirsVdirsVdirsVdirsVdirsVdirsVdirsVdirsVdirsVdirsVdirsVdirsVdirsVdirsVdirsVdirsVdirsVdirsVdirsVdirsVdirsVdirsVdirsVdirsVdirsVdirsVdirsVdirsVdirsVdirsVdirsVdirsVdirsVdiqzFi7FXYq7FXYq7FXYq7FXYq7FXYq7FXYq7FXYq7FXYq7FXYq7FXYq7FXYq7FXYq7FXYq7FXYq7FXYq7FXYq7FXYq7FXYq7FXYq7FXYq7FXYq7FXYq7FXYq7FXYq7FXYq7FXYq7FXYq7FXYq7FXYq7FXYq7FXYq7FXYq7FXYq7FXYq7FXYq7FXYq7FXYq7FXYq7FXYq7FXYq7FXYq7FXYq7FXYq7FXYq7FXYq7FXYq7FXYq7FXYq7FXYq7FXYq7FXYq7FXYq7FXYq7FXYq7FXYq7FXYq7FXYq7FXYq7FXYq7FXYq7FXYq7FXYq7FXYq7FXYq//Q+/mKuxV2KuxV2KuxV2KuxV2KuxV2KuxV2KuxV2KuxV2KuxV2KuxV2KuxV2KuxV2KuxV2KuxV2KuxV2KuxV2KuxV2KuxV2KuxV2KuxV2KuxV2KuxV2KuxV2KuxV2KuxV2KuxV2KuxV2KuxV2KuxV2KuxV2KuxV2KuxV2KuxV2KuxV2KuxV2KuxV2KuxV2KuxV2KuxV2KuxV2KuxV2KuxV2KuxV2KuxV2KrMWLsVdirsVdirsVdirsVdirsVdirsVdirsVdirsVdirsVdirsVdirsVdirsVdirsVdirsVdirsVdirsVdirsVdirsVdirsVdirsVdirsVdirsVdirsVdirsVdirsVdirsVdirsVdirsVdirsVdirsVdirsVdirsVdirsVdirsVdirsVdirsVdirsVdirsVdirsVdirsVdirsVdirsVdirsVdirsVdirsVdirsVdirsVdirsVdirsVdirsVdirsVdirsVdirsVdirsVdirsVdirsVdirsVdirsVdirsVdirsVdirsVdirsVdirsVdirsVdir/9H7+Yq7FXYq7FXYq7FXYq7FXYq7FXYq7FXYq7FXYq7FXYq7FXYq7FXYq7FXYq7FXYq7FXYq7FXYq7FXYq7FXYq7FXYq7FXYq7FXYq7FXYq7FXYq7FXYq7FXYq7FXYq7FXYq7FXYq7FXYq7FXYq7FXYq7FXYq7FXYq7FXYq7FXYq7FXYq7FXYq7FXYq7FXYq7FXYq7FXYq7FXYq7FXYq7FXYq7FXYq7FXYqsxYuxV2KuxV2KuxV2KuxV2KuxV2KuxV2KuxV2KuxV2KuxV2KuxV2KuxV2KuxV2KuxV2KuxV2KuxV2KuxV2KuxV2KuxV2KuxV2KuxV2KuxV2KuxV2KuxV2KuxV2KuxV2KuxV2KuxV2KuxV2KuxV2KuxV2KuxV2KuxV2KuxV2KuxV2KuxV2KuxV2KuxV2KuxV2KuxV2KuxV2KuxV2KuxV2KuxV2KuxV2KuxV2KuxV2KuxV2KuxV2KuxV2KuxV2KuxV2KuxV2KuxV2KuxV2KuxV2KuxV2KuxV2KuxV2KuxV2KuxV2KuxV2KuxV2KuxV2KuxV2Kv/0vv5irsVdirsVdirsVdirsVdirsVdirsVdirsVdirsVdirsVdirsVdirsVdirsVdirsVdirsVdirsVdirsVdirsVdirsVdirsVdirsVdirsVdirsVdirsVdirsVdirsVdirsVdirsVdirsVdirsVdirsVdirsVdirsVdirsVdirsVdirsVdirsVdirsVdirsVdirsVdirsVdirsVdirsVdirsVdirsVdiqzFi7FXYq7FXYq7FXYq7FXYq7FXYq7FXYq7FXYq7FXYq7FXYq7FXYq7FXYq7FXYq7FXYq7FXYq7FXYq7FXYq7FXYq7FXYq7FXYq7FXYq7FXYq7FXYq7FXYq7FXYq7FXYq7FXYq7FXYq7FXYq7FXYq7FXYq7FXYq7FXYq7FXYq7FXYq7FXYq7FXYq7FXYq7FXYq7FXYq7FXYq7FXYq7FXYq7FXYq7FXYq7FXYq7FXYq7FXYq7FXYq7FXYq7FXYq7FXYq7FXYq7FXYq7FXYq7FXYq7FXYq7FXYq7FXYq7FXYq7FXYq7FXYq7FXYq7FXYq7FXYq//T+/mKuxV2KuxV2KuxV2KuxV2KuxV2KuxV2KuxV2KuxV2KuxV2KuxV2KuxV2KuxV2KuxV2KuxV2KuxV2KuxV2KuxV2KuxV2KuxV2KuxV2KuxV2KuxV2KuxV2KuxV2KuxV2KuxV2KuxV2KuxV2KuxV2KuxV2KuxV2KuxV2KuxV2KuxV2KuxV2KuxV2KuxV2KuxV2KuxV2KuxV2KuxV2KuxV2KuxV2KuxV2KrMWLsVdirsVdirsVdirsVdirsVdirsVdirsVdirsVdirsVdirsVdirsVdirsVdirsVdirsVdirsVdirsVdirsVdirsVdirsVdirsVdirsVdirsVdirsVdirsVdirsVdirsVdirsVdirsVdirsVdirsVdirsVdirsVdirsVdirsVdirsVdirsVdirsVdirsVdirsVdirsVdirsVdirsVdirsVdirsVdirsVdirsVdirsVdirsVdirsVdirsVdirsVdirsVdirsVdirsVdirsVdirsVdirsVdirsVdirsVdirsVdirsVdirsVdirsVdirsVdir/9T7+Yq7FXYq7FXYq7FXYq7FXYq7FXYq7FXYq7FXYq7FXYq7FXYq7FXYq7FXYq7FXYq7FXYq7FXYq7FXYq7FXYq7FXYq7FXYq7FXYq7FXYq7FXYq7FXYq7FXYq7FXYq7FXYq7FXYq7FXYq7FXYq7FXYq7FXYq7FXYq7FXYq7FXYq7FXYq7FXYq7FXYq7FXYq7FXYq7FXYq7FXYq7FXYq7FXYq7FXYq7FXYqsxYuxV2KuxV2KuxV2KuxV2KuxV2KuxV2KuxV2KuxV2KuxV2KuxV2KuxV2KuxV2KuxV2KuxV2KuxV2KuxV2KuxV2KuxV2KuxV2KuxV2KuxV2KuxV2KuxV2KuxV2KuxV2KuxV2KuxV2KuxV2KuxV2KuxV2KuxV2KuxV2KuxV2KuxV2KuxV2KuxV2KuxV2KuxV2KuxV2KuxV2KuxV2KuxV2KuxV2KuxV2KuxV2KuxV2KuxV2KuxV2KuxV2KuxV2KuxV2KuxV2KuxV2KuxV2KuxV2KuxV2KuxV2KuxV2KuxV2KuxV2KuxV2KuxV2KuxV2KuxV2Kv/1fv5irsVdirsVdirsVdirsVdirsVdirsVdirsVdirsVdirsVdirsVdirsVdirsVdirsVdirsVdirsVdirsVdirsVdirsVdirsVdirsVdirsVdirsVdirsVdirsVdirsVdirsVdirsVdirsVdirsVdirsVdirsVdirsVdirsVdirsVdirsVdirsVdirsVdirsVdirsVdirsVdirsVdirsVdirsVdirsVdiqzFi7FXYq7FXYq7FXYq7FXYq7FXYq7FXYq7FXYq7FXYq7FXYq7FXYq7FXYq7FXYq7FXYq7FXYq7FXYq7FXYq7FXYq7FXYq7FXYq7FXYq7FXYq7FXYq7FXYq7FXYq7FXYq7FXYq7FXYq7FXYq7FXYq7FXYq7FXYq7FXYq7FXYq7FXYq7FXYq7FXYq7FXYq7FXYq7FXYq7FXYq7FXYq7FXYq7FXYq7FXYq7FXYq7FXYq7FXYq7FXYq7FXYq7FXYq7FXYq7FXYq7FXYq7FXYq7FXYq7FXYq7FXYq7FXYq7FXYq7FXYq7FXYq7FXYq7FXYq7FXYq//W+/mKuxV2KuxV2KuxV2KuxV2KuxV2KuxV2KuxV2KuxV2KuxV2KuxV2KuxV2KuxV2KuxV2KuxV2KuxV2KuxV2KuxV2KuxV2KuxV2KuxV2KuxV2KuxV2KuxV2KuxV2KuxV2KuxV2KuxV2KuxV2KuxV2KuxV2KuxV2KuxV2KuxV2KuxV2KuxV2KuxV2KuxV2KuxV2KuxV2KuxV2KuxV2KuxV2KuxV2KuxV2KrMWLsVdirsVdirsVdirsVdirsVdirsVdirsVdirsVdirsVdirsVdirsVdirsVdirsVdirsVdirsVdirsVdirsVdirsVdirsVdirsVdirsVdirsVdirsVdirsVdirsVdirsVdirsVdirsVdirsVdirsVdirsVdirsVdirsVdirsVdirsVdirsVdirsVdirsVdirsVdirsVdirsVdirsVdirsVdirsVdirsVdirsVdirsVdirsVdirsVdirsVdirsVdirsVdirsVdirsVdirsVdirsVdirsVdirsVdirsVdirsVdirsVdirsVdirsVdirsVdir/9f7+Yq7FXYq7FXYq7FXYq7FXYq7FXYq7FXYq7FXYq7FXYq7FXYq7FXYq7FXYq7FXYq7FXYq7FXYq7FXYq7FXYq7FXYq7FXYq7FXYq7FXYq7FXYq7FXYq7FXYq7FXYq7FXYq7FXYq7FXYq7FXYq7FXYq7FXYq7FXYq7FXYq7FXYq7FXYq7FXYq7FXYq7FXYq7FXYq7FXYq7FXYq7FXYq7FXYq7FXYq7FXYqsxYuxV2KuxV2KuxV2KuxV2KuxV2KuxV2KuxV2KuxV2KuxV2KuxV2KuxV2KuxV2KuxV2KuxV2KuxV2KuxV2KuxV2KuxV2KuxV2KuxV2KuxV2KuxV2KuxV2KuxV2KuxV2KuxV2KuxV2KuxV2KuxV2KuxV2KuxV2KuxV2KuxV2KuxV2KuxV2KuxV2KuxV2KuxV2KuxV2KuxV2KuxV2KuxV2KuxV2KuxV2KuxV2KuxV2KuxV2KuxV2KuxV2KuxV2KuxV2KuxV2KuxV2KuxV2KuxV2KuxV2KuxV2KuxV2KuxV2KuxV2KuxV2KuxV2KuxV2KuxV2Kv/0Pv5irsVdirsVdirsVdirsVdirsVdirsVdirsVdirsVdirsVdirsVdirsVdirsVdirsVdirsVdirsVdirsVdirsVdirsVdirsVdirsVdirsVdirsVdirsVdirsVdirsVdirsVdirsVdirsVdirsVdirsVdirsVdirsVdirsVdirsVdirsVdirsVdirsVdirsVdirsVdirsVdirsVdirsVdirsVdirsVdiqzFi7FXYq7FXYq7FXYq7FXYq7FXYq7FXYq7FXYq7FXYq7FXYq7FXYq7FXYq7FXYq7FXYq7FXYq7FXYq7FXYq7FXYq7FXYq7FXYq7FXYq7FXYq7FXYq7FXYq7FXYq7FXYq7FXYq7FXYq7FXYq7FXYq7FXYq7FXYq7FXYq7FXYq7FXYq7FXYq7FXYq7FXYq7FXYq7FXYq7FXYq7FXYq7FXYq7FXYq7FXYq7FXYq7FXYq7FXYq7FXYq7FXYq7FXYq7FXYq7FXYq7FXYq7FXYq7FXYq7FXYq7FXYq7FXYq7FXYq7FXYq7FXYq7FXYq7FXYq7FXYq//R+/mKuxV2KuxV2KuxV2KuxV2KuxV2KuxV2KuxV2KuxV2KuxV2KuxV2KuxV2KuxV2KuxV2KuxV2KuxV2KuxV2KuxV2KuxV2KuxV2KuxV2KuxV2KuxV2KuxV2KuxV2KuxV2KuxV2KuxV2KuxV2KuxV2KuxV2KuxV2KuxV2KuxV2KuxV2KuxV2KuxV2KuxV2KuxV2KuxV2KuxV2KuxV2KuxV2KuxV2KuxV2KrMWLsVdirsVdirsVdirsVdirsVdirsVdirsVdirsVdirsVdirsVdirsVdirsVdirsVdirsVdirsVdirsVdirsVdirsVdirsVdirsVdirsVdirsVdirsVdirsVdirsVdirsVdirsVdirsVdirsVdirsVdirsVdirsVdirsVdirsVdirsVdirsVdirsVdirsVdirsVdirsVdirsVdirsVdirsVdirsVdirsVdirsVdirsVdirsVdirsVdirsVdirsVdirsVdirsVdirsVdirsVdirsVdirsVdirsVdirsVdirsVdirsVdirsVdirsVdirsVdir/9L7+Yq7FXYq7FXYq7FXYq7FXYq7FXYq7FXYq7FXYq7FXYq7FXYq7FXYq7FXYq7FXYq7FXYq7FXYq7FXYq7FXYq7FXYq7FXYq7FXYq7FXYq7FXYq7FXYq7FXYq7FXYq7FXYq7FXYq7FXYq7FXYq7FXYq7FXYq7FXYq7FXYq7FXYq7FXYq7FXYq7FXYq7FXYq7FXYq7FXYq7FXYq7FXYq7FXYq7FXYq7FXYqsxYuxV2KuxV2KuxV2KuxV2KuxV2KuxV2KuxV2KuxV2KuxV2KuxV2KuxV2KuxV2KuxV2KuxV2KuxV2KuxV2KuxV2KuxV2KuxV2KuxV2KuxV2KuxV2KuxV2KuxV2KuxV2KuxV2KuxV2KuxV2KuxV2KuxV2KuxV2KuxV2KuxV2KuxV2KuxV2KuxV2KuxV2KuxV2KuxV2KuxV2KuxV2KuxV2KuxV2KuxV2KuxV2KuxV2KuxV2KuxV2KuxV2KuxV2KuxV2KuxV2KuxV2KuxV2KuxV2KuxV2KuxV2KuxV2KuxV2KuxV2KuxV2KuxV2KuxV2KuxV2Kv/0/v5irsVdirsVdirsVdirsVdirsVdirsVdirsVdirsVdirsVdirsVdirsVdirsVdirsVdirsVdirsVdirsVdirsVdirsVdirsVdirsVdirsVdirsVdirsVdirsVdirsVdirsVdirsVdirsVdirsVdirsVdirsVdirsVdirsVdirsVdirsVdirsVdirsVdirsVdirsVdirsVdirsVdirsVdirsVdirsVdiqzFi7FXYq7FXYq7FXYq7FXYq7FXYq7FXYq7FXYq7FXYq7FXYq7FXYq7FXYq7FXYq7FXYq7FXYq7FXYq7FXYq7FXYq7FXYq7FXYq7FXYq7FXYq7FXYq7FXYq7FXYq7FXYq7FXYq7FXYq7FXYq7FXYq7FXYq7FXYq7FXYq7FXYq8681/m75K8j8l8169YWcq9YXnVpv8AkUtXP/A5i5tbiw/XID47/Lm7jQez2s1/9zinId9Hh/0xqP2vnTzJ/wA52/lvoxaPRhqOrOPstb2/pRk+5naNgPkhzWZfaHDDlZ9w/XT2Oi/4FfaOffJwY/60rP8AsBIfa8M13/n4hevyTyz5Zhi/lkvLtpK/NERKf8Gc1+T2mP8ADH5l6nS/8B6A3zZifKMQPtJl9zxzWf8AnOX80NTr9Rn0/Tq9Pq1mrU/5HmXMGftBnlyoe4frt6TTf8C7s3F9QnP+tKv9wIvMtT/5yb/NLV6m680XyV/5Zylv/wAmVTMWfaueXOZ+G33O7wexHZmH6cEPjcv90Swa+/NTzrqZJ1HzHrE9f9+39w363zHlrMsucpfMu0xdg6PF9GHGPdCI/Qxm48wapdkm6vbmUnrzmdv1nKTkkeZLnQ0mKH0xiPcAljzSSf3jM3fck5G24RA5KkV3PB/cyulP5WI/ViJEIljjLmAmtr5p1mxPKy1G8hbxjuJF/UcmM0hyJ+bjz0OHJ9UIn3xB/Qyuy/OPz7p1PqPmjWowP2V1C44/dzp+GXR12WPKcvmXAy+zmhy/VgxH/Mj+pn2l/wDOV35r6RQW/mW4kA7XEUE9fpljY/jmTDtjUR/iPxo/eHU5/YHsvNzwgf1TKP8AuSHqGif855fmPptF1OLS9RXuZrZ43+gxOgH/AAJzLx+0WaPOj8P1F0ep/wCBT2fl+g5Ie6QI/wBkCfteyeXv+fiETFY/NXlllX9qWyuwx+iORB/yczOxe038+PyP6P2vN6z/AIDx54c3wlH/AH0Sf9y978t/85sfldr/ABS8vrrSpG6LfWr9fdofVUfMsBmxxdvYJ8yR7x+q3lNb/wADLtPT/TGMx/QkPulwn7H0R5a8+eW/Oaer5T1ex1IUqRa3EcrL/rKpJH0gZssWohl+gg+4vHa3srUaE1nxyh/WiR8iRRZZl7gOxV2KuxV2KuxV2KuxV2KuxV2KuxV2KuxV2KuxV2KuxV2KuxV2KuxV2KuxV2KuxV2KuxV2KuxV2KuxV2KuxV2KuxV2KuxV2KuxV2KuxV2KuxV2KuxV/9T7+Yq7FXYq7FXYq7FXYq7FXYq7FXYq7FXYq7FXYq7FXYq7FXYq7FXYq7FXYq7FXYq7FXYq7FXYq7FXYq7FXYq7FXYq7FXYq7FXYq7FXYq7FXYq7FXYq7FXYq7FXYq7FXYq7FXYq7FXYq7FXYq7FXYq7FXYq7FXYq7FXYq7FXYq7FXYq7FXYq7FXYq7FXYq7FXYq7FXYq7FXYq7FXYq7FXYq7FXYq7FXYqsxYuxV2KuxV2KuxV2KuxV2KuxV2KuxV2KuxV2KuxV2KuxV2KuxV2KuxV2KuxV2KuxV2KuxV2KuxV2KuxV2KuxV2KuxV2KuxV2KuxV2KuxV2KuxV2KuxV2KuxV2KuxV2KuxV2KuxV2KuxV2KuxV2KuxV2KuxV2KrJJEhRpZWCooLMzGgAHUknATSYxMjQfOPn7/nLH8tvIHOCfVV1O9Sv+jaWBcNUdi4IiBHcFwfbNZqe2MODrZ7hv+z7XsuyfYDtHtHcQ4I/zsno+z6j8I0+NfO3/AD8E16+L2/kHRrbT4dwJ71muJSPEIvBFPsfUGaLP7STO2OIHv3/H2vpHZn/AjwY99TklM90fTH5niJ/2L5J84fnp5+8+F18z6/fTQPXlBHJ6MB/55RcEP0jNNn7QzZvqkfdyHyD6B2d7LaHs/wDucUQR1I4pf6aVn7Xk+Yb0DsVdirsVdirsVdirsVdirsVdirsVdirsVdiqrBPJbSLcWztHKhqroSGB8QRuMINcmMoiQo7h7t5N/wCcnfzL8kcY9M1+5ubZafuL8i6Sg7Ay8mUf6jLmwwdrZ8PKRPv3+95XtL2H7O1+88UQe+HoP+xoH4gvrnyR/wA/Cd0tvzG0LbYPc6XJ/wAyJT/zN+jN1p/aXpkj8R+o/rfPe1P+BDzOky/5uQf7+P8AxD7Q8hf85BeQPzI4Q+WdbtzePQC0uCbeevgEk4lv9hyHvm90/aWHP9Mhfcdj9r5r2t7I67syzmxnhH8UfVH5xuv86nsuZzzjsVdirsVdirsVdirsVdirsVdirsVdirsVdirsVdirsVdirsVdirsVdirsVdirsVdirsVdirsVdirsVdirsVdirsVdirsVdirsVdirsVdir//V+/mKuxV2KuxV2KuxV2KuxV2KuxV2KuxV2KuxV2KuxV2KuxV2KuxV2KuxV2KuxV2KuxV2KuxV2KuxV2KuxV2KuxV2KuxV2KuxV2KuxV2KuxV2KuxV2KuxV2KuxV2KuxV2KuxV2KuxV2KuxV2KuxV2KuxV2KuxV2KuxV2KuxV2KuxV2KuxV2KuxV2KuxV2KuxV2KuxV2KuxV2KuxV2KuxV2KuxV2KuxV2KrMWLsVdirsVdirsVdirsVdirsVdirsVdirsVdirsVdirsVdirsVdirsVdirsVdirsVdirsVdirsVdirsVdirsVdirsVdirsVdirsVdirsVdirsVdirsVdirsVdirsVdirsVdirsVdirsVdirsVdirsVdirFfN3njQPIVkdZ846jb6daCtHncKWI7Iv2nb/JUE+2U5tRDCLmQA53Z/ZeftCfh6eBmfIcveeQHmaD4M/Mr/nP6wsjJp35V6Yb2QVAvtQ5RxV8VhUh2H+s0Z/yc53Ve0YG2IX5nl8v7H1fsX/gSznU9bPh/oQ3l8ZH0j4CXvfBH5gfnb52/M53PnDWLie2Y1FpG3pWy+FIkopp4kFvE5zup1+XUfXI+7p8n1jsj2Y0fZQ/cYwD/ADj6p/6Y2flQ8nlWYbvnYq7FXYq7FXYq7FXYq7FXYq7FXYq7FXYq7FXYq7FXYq7FXYq7FUw0j/e61/4zx/8AEhluD6x7x97pvaL/ABHP/wAKyf7gvSvy9/5yU/MT8tDHF5f1qeWxjp/od6frMHEfshZKlB/xjKH3ztoaiUORfyu7N9qNZoNscyR/Nl6o/by/zafoD+WX/PwPy9rZj078zrCTR7k0BvLXlPbE+LJT1UHsBJ7nM3HrQfq2fReyv+CNhy+nUxMD/OHqj8vqH+yfeHlzzRpHnCxTW/K19b6hYSfZmtpFkWvgSpNCO4O47jMyMhLcPoWl1ePVR48UhIHqDafZJyHYq7FXYq7FXYq7FXYq7FXYq7FXYq7FXYq7FXYq7FXYq7FXYq7FXYq7FXYq7FXYq7FXYq7FXYq7FXYq7FXYq7FXYq7FXYq7FXYq/wD/1vv5irsVdirsVdirsVdirsVdirsVdirsVdirsVdirsVdirsVdirsVdirsVdirsVdirsVdirsVdirsVdirsVdirsVdirsVdirsVdirsVdirsVdirsVdirsVdirsVdirsVdirsVdirsVdirsVdirsVdirsVdirsVdirsVdirsVdirsVdirsVdirsVdirsVdirsVdirsVdirsVdirsVdirsVdirsVdirsVdiqzFi7FXYq7FXYq7FXYq7FXYq7FXYq7FXYq7FXYq7FXYq7FXYq7FXYq7FXYq7FXYq7FXYq7FXYq7FXYq7FXYq7FXYq7FXYq7FXYq7FXYq7FXYq7FXYq7FXYq7FXYq7FXYq7FXYq7FXYq7FXYq7FXYqxXzh540HyBp7a95y1CDT7JduczULH+VFFWdv8AJUE+2U59RDAOKZoOf2d2Xn7RyeFp4Gcu4dPMnkB5kgPzj/Nr/nPa7ujLo/5QWn1aLdf0neoGkPvFDuq+xk5VHVFOcvrPaInbCK8z+gfr+T7L7P8A/AojCsmulZ/1OJ2/zpcz7o1/WL8+/MnmnWPOF6+teab641C+frNcyNI1PAVOwHYCgHYZzeXNLKeKRJPm+uaLQYtFDw8MRCI6RFf2nz5pBlbluxV2KuxV2KuxV2KuxV2KuxV2KuxV2KuxV2KuxV2KuxV2KuxV2KuxV2KphpH+91r/AMZ4/wDiQy3B9Y94+903tF/iOf8A4Vk/3BYpnYP5HOxVl3k3z75i/L2+GteStSudNuxSrQOQrgdnQ1V1/wAlgR7ZKEzDcOZoe0c2ilx4ZGJ8jz945H3F+jn5Rf8APwOKX0tH/OSy9Jtl/SlghK/OWDcjxLRk+0YzOxa3pL5vpvY3/BGBqGsjX9OP++j+mP8ApX6NeWPNej+dNPj1/wAqX0GoafL9ia3cOte4NOjDupoR3AzPjISFh9N0msx6uAyYpCUT1Bv8HyZBknJdirsVdirsVdirsVdirsVdirsVdirsVdirsVdirsVdirsVdirsVdirsVdirsVdirsVdirsVdirsVdirsVdirsVdirsVdir/9f7+Yq7FXYq7FXYq7FXYq7FXYq7FXYq7FXYq7FXYq7FXYq7FXYq7FXYq7FXYq7FXYq7FXYq7FXYq7FXYq7FXYq7FXYq7FXYq7FXYq7FXYq7FXYq7FXYq7FXYq7FXYq7FXYq7FXYq7FXYq7FXYq7FXYq7FXYq7FXYq7FXYq7FXYq7FXYq7FXYq7FXYq7FXYq7FXYq7FXYq7FXYq7FXYq7FXYq7FXYq7FXYqsxYuxV2KuxV2KuxV2KuxV2KuxV2KuxV2KuxV2KuxV2KuxV2KuxV2KuxV2KuxV2KuxV2KuxV2KuxV2KuxV2KuxV2KuxV2KuxV2KuxV2KuxV2KuxV2KuxV2KuxV2KuxV2KuxV2KuxV2KuxV2KqU88drG9zcuscMal3dyFVVAqSSdgAOpwE1uUwgZmhuTyAfAf51/wDOcmk+WzN5e/KeOPVdRWqNqElfqkZ7+mAQZSPHZO4LjbOc1/b8cfpxbnv6fDv+73vrXsz/AMC7Lqqy60mEf5g+s/1ukPtl5RfmF5x886/+YGoNr3nLUJ9QvWrR5mqEB34oooqL/kqAPbOTz6iec8UzZfcezuy8HZ2Pw9PAQj5dfMnmT5kksUylz3Yq7FXYq7FXYq7FXYq7FXYq7FXYq7FXYq7FXYq7FXYq7FXYq7FXYq7FXYq7FUw0j/e61/4zx/8AEhluD6x7x97pvaL/ABHP/wAKyf7gsUzsH8jnYq7FXYqzvyB+Znmb8r9QGt+R9Rmsbio9RUNYpQP2ZIzVHH+sDTqKHJwyGBsOw7O7Vz9nz48EjE/YfeOR+L9VPyR/5zm8v+dPR8v/AJnLHoestRFugT9SmY+LGphJ8HJT/LHTNjh1gltLZ9c7B9vsOrrHqaxy7/4D/wAT8dvN95RyJMiyxMGRgGVlNQQdwQR1BzMfQgb3C/Cl2KuxV2KuxV2KuxV2KuxV2KuxV2KuxV2KuxV2KuxV2KuxV2KuxV2KuxV2KuxV2KuxV2KuxV2KuxV2KuxV2KuxV2Kv/9D7+Yq7FXYq7FXYq7FXYq7FXYq7FXYq7FXYq7FXYq7FXYq7FXYq7FXYq7FXYq7FXYq7FXYq7FXYq7FXYq7FXYq7FXYq7FXYq7FXYq7FXYq7FXYq7FXYq7FXYq7FXYq7FXYq7FXYq7FXYq7FXYq7FXYq7FXYq7FXYq7FXYq7FXYq7FXYq7FXYq7FXYq7FXYq7FXYq7FXYq7FXYq7FXYq7FXYq7FXYq7FXYqsxYuxV2KuxV2KuxV2KuxV2KuxV2KuxV2KuxV2KuxV2KuxV2KuxV2KuxV2KuxV2KuxV2KuxV2KuxV2KuxV2KuxV2KuxV2KuxV2KuxV2KuxV2KuxV2KuxV2KuxV2KuxV2KuxV2KuxV2KuxV5L+bX51+V/ya079J+bbn/SpFJtrKGjXE5H8q9lr1dqKPGtAcLWa/HpRcz7h1L0Hs/wCzOp7bycGAbD6pnaMfee/yFl+PX50/85MebPzmkexvZf0d5f5Vj022YhCAdjM2xlb50UHdUU5xOv7VyavY7R7h+nvfor2a9idL2IOKI48nWcuf+aP4R9veS+dc1j2LsVdirsVdirsVdirsVdirsVdirsVdirsVdirsVdirsVdirsVdirsVdirsVdirsVdiqYaR/vda/wDGeP8A4kMtwfWPePvdN7Rf4jn/AOFZP9wWKZ2D+RzsVdirsVdirsVfUX5F/wDOVnmv8mXi0mRzq3lkEBtPuHNY1rubeTcxn/J3Q7/DU8syMOpOPzD1nYHtfqOyiIfXj/mnp/VPT3cvLq/Y/wDKn85PK/5yaZ+mvJd2JHQD6xaS0W4t2PaRKn6GFUb9ljQ5tMeUZBYfbOyO28HakOPCffE/VH3j9PI9C9Ty127sVdirsVdirsVdirsVdirsVdirsVdirsVdirsVdirsVdirsVdirsVdirsVdirsVdirsVdirsVdirsVdirsVdir/9H7+Yq7FXYq7FXYq7FXYq7FXYq7FXYq7FXYq7FXYq7FXYq7FXYq7FXYq7FXYq7FXYq7FXYq7FXYq7FXYq7FXYq7FXYq7FXYq7FXYq7FXYq7FXYq7FXYq7FXYq7FXYq7FXYq7FXYq7FXYq7FXYq7FXYq7FXYq7FXYq7FXYq7FXYq7FXYq7FXYq7FXYq7FXYq7FXYq7FXYq7FXYq7FXYq7FXYq7FXYq7FXYqsxYuxV2KuxV2KuxV2KuxV2KuxV2KuxV2KuxV2KuxV2KuxV2KuxV2KuxV2KuxV2KuxV2KuxV2KuxV2KuxV2KuxV2KuxV2KuxV2KuxV2KuxV2KuxV2KuxV2KuxV2KuxV2KuxV2KuxV2Kvh//nIn/nMHTfy69fyh+XjRaj5mFY5p/t29m3Q1ptJIP5B8Kn7ZqCh0HafbccHox7y+wfrP4Pc+n+x3/A7ydpVn1VwxcwOU8n/Ex8+Z/h/nPyS8x+ZdU836jP5h8zXct9qNw3KWeZuTHwHgAOgUUAGwAGcZlyyynikbJfoLR6LFo8YxYYiMRyA5fjvPM9UjytynYq7FXYq7FXYq7FXYq7FXYq7FXYq7FXYq7FXYq7FXYq7FXYq7FXYq7FXYq7FXYq7FXYqjNPmW3uoJ5TRElRmPsGBOW4PrHvH3ul9pJcOgzk/6lk/3BYxnYP5HuxV2KuxV2KuxV2Ksk8pecNZ8i6nD5l8o3sthqVuapNC1DTurDoynurAqe4wxkYmw5Wj1uTRzGTFIxkOo/G48js/Yj/nHT/nMPR/zTEHlPzuYtK81miIa8ba8b/iok/BIf99sdz9gtXiu1waoT2PN9q9mfbXH2jWLNUMn+xn7u4/0fl3D2xmW927FXYq7FXYq7FXYq7FXYq7FXYq7FXYq7FXYq7FXYq7FXYq7FXYq7FXYq7FXYq7FXYq7FXYq7FXYq7FXYq7FX//S+/mKuxV2KuxV2KuxV2KuxV2KuxV2KuxV2KuxV2KuxV2KuxV2KuxV2KuxV2KuxV2KuxV2KuxV2KuxV2KuxV2KuxV2KuxV2KuxV2KuxV2KuxV2KuxV2KuxV2KuxV2KuxV2KuxV2KuxV2KuxV2KuxV2KuxV2KuxV2KuxV2KuxV2KuxV2KuxV2KuxV2KuxV2KuxV2KuxV2KuxV2KuxV2KuxV2KuxV2KuxV2KrMWLsVdirsVdirsVdirsVdirsVdirsVdirsVdirsVdirsVdirsVdirsVdirsVdirsVdirsVdirsVdirsVdirsVdirsVdirsVdirsVdirsVdirsVdirsVdirsVdirsVdirsVdiqjc3MNnDJd3kiRQRKzySSMFVVUVLMTsABuScBNbllCBmRGIsnYAcye4Pyq/5yU/5zGuPMDT+RfykuHt9KHKO61RKrJcdisB6pH4vsz9uK/b5DtTtsz9GLl1Pf7vJ959iv8Agcx09anXC5844zuI+c++X9HkOtnl88eu5zmX2B2KuxV2KuxV2KuxV2KuxV2KuxV2KuxV2KuxV2KuxV2KuxV2KuxV2KuxV2KuxV2KuxV2KuxV2KrX+yfllmH6h7w6H2p/4ztR/wAJy/7iSTZ2L+SbsVdirsVdirsVdirsVbVipDKaEbgjFX6Wf84zf85pyab9X8hfnLcNJafDFaaxISXj7BLk9WXwl+0v7dR8S5+n1dbS+b6j7K+3Jx1g1hsco5D08p94/pdOvePqnDNHcxpcW7rJFIodHQgqykVBBGxBHQ5sX1yMhIWFTCydirsVdirsVdirsVdirsVdirsVdirsVdirsVdirsVdirsVdirsVdirsVdirsVdirsVdirsVdirsVdir//T+/mKuxV2KuxV2KuxV2KuxV2KuxV2KuxV2KuxV2KuxV2KuxV2KuxV2KuxV2KuxV2KuxV2KuxV2KuxV2KuxV2KuxV2KuxV2KuxV2KuxV2KuxV2KuxV2KuxV2KuxV2KuxV2KuxV2KuxV2KuxV2KuxV2KuxV2KuxV2KuxV2KuxV2KuxV2KuxV2KuxV2KuxV2KuxV2KuxV2KuxV2KuxV2KuxV2KuxV2KuxV2KrMWLsVdirsVdirsVdirsVdirsVdirsVdirsVdirsVdirsVdirsVdirsVdirsVdirsVdirsVdirsVdirsVdirsVdirsVdirsVdirsVdirsVdirsVdirsVdirsVdirsVdirsVS3WNYsfL1jca3rdxHa2FrG0s00rBURF6kk5CcxAcUtgG7TaaepmMeMGUpGgBzJfjX/wA5K/8AOU+ofm3PL5V8pPJZ+UImpx3WS8KnZ5e4Su6x/wCyf4qBOH7V7XOpPBDaP+69/wCp+j/Yr2Ex9jxGbPUsx+Ix+Uf6XfL4Da78eZpH0Z2KuxV2KuxV2KuxV2KuxV2KuxV2KuxV2KuxV2KuxV2KuxV2KuxV2KuxV2KuxV2KuxV2KuxV2KuxVa/2T8ssw/UPeHQ+1P8Axnaj/hOX/cSSbOxfyTdirsVdirsVdirsVdirsVdir7e/5xf/AOctb38q5YPJPnqSS78oO3GOTd5bEk9U7tF/MnVftJvVWy9PqeDY8vue89lPbGXZxGHPZx9D1h7u+PeOnMdx+zOm6laazaQ6rpM8dzZXMaywzRMGR0YVDKw2IIzag2+34sscsRKBBB3BHIhG4Wx2KuxV2KuxV2KuxV2KuxV2KuxV2KuxV2KuxV2KuxV2KuxV2KuxV2KuxV2KuxV2KuxV2KuxV2KuxV//1Pv5irsVdirsVdirsVdirsVdirsVdirsVdirsVdirsVdirsVdirsVdirsVdirsVdirsVdirsVdirsVdirsVdirsVdirsVdirsVdirsVdirsVdirsVdirsVdirsVdirsVdirsVdirsVdirsVdirsVdirsVdirsVdirsVdirsVdirsVdirsVdirsVdirsVdirsVdirsVdirsVdirsVdirsVdirsVdirsVdiqzFi7FXYq7FXYq7FXYq7FXYq7FXYq7FXYq7FXYq7FXYq7FXYq7FXYq7FXYq7FXYq7FXYq7FXYq7FXYq7FXYq7FXYq7FXYq7FXYq7FXYq7FXYq7FXYq7FXYq7FXYq7FXYqlusaxY+X7G41vW7iO1sLWNpZppW4oiKKkk5CcxAcUtgG7TaaepmMeMGUpGgBzJfit/zkt/zktf/nNfNoWhNJa+ULWSsMP2WuWXpNMP+IJ0Xqfi6cJ2r2qdWeGO0R9vmX6X9ivYqHYkPEyVLNIbnpAfzY/pl19z5RzTvfOxV2KuxV2KuxV2KuxV2KuxV9H/AJe/84refPzN0K285+V4rNtNujKsRmuAjH0pDG3w0P7SnNppux8uogJxqj5vG9r+3ei7LznT5jLijV1GxuARv7izX/oRj80f986f/wBJg/5pzI/0P5/L5us/5Oj2b3z/ANL+13/QjH5o/wC+dP8A+kwf804/6H8/l81/5Oj2b3z/ANL+13/QjH5o/wC+dP8A+kwf804/6H8/l81/5Oj2b3z/ANL+13/QjH5o/wC+dP8A+kwf804/6H8/l81/5Oj2b3z/ANL+13/QjH5o/wC+dP8A+kwf804/6H8/l81/5Oj2b3z/ANL+13/QjH5o/wC+dP8A+kwf804/6H8/l81/5Oj2b3z/ANL+13/QjH5o/wC+dP8A+kwf804/6H8/l81/5Oj2b3z/ANL+13/QjH5o/wC+dP8A+kwf804/6H8/l81/5Oj2b3z/ANL+13/QjH5o/wC+dP8A+kwf804/6H8/l81/5Oj2b3z/ANL+13/QjH5o/wC+dP8A+kwf804/6H8/l81/5Oj2b3z/ANL+13/QjH5o/wC+dP8A+kwf804/6H8/l81/5Oj2b3z/ANL+13/QjH5o/wC+dP8A+kwf804/6H8/l81/5Oj2b3z/ANL+13/QjH5o/wC+dP8A+kwf804/6H8/l81/5Oj2b3z/ANL+13/QjH5o/wC+dP8A+kwf804/6H8/l81/5Oj2b3z/ANL+13/QjH5o/wC+dP8A+kwf804/6H8/l81/5Oj2b3z/ANL+13/QjH5o/wC+dP8A+kwf804/6H8/l81/5Oj2b3z/ANL+13/QjH5o/wC+dP8A+kwf804/6H8/l81/5Oj2b3z/ANL+13/QjH5o/wC+dP8A+kwf804/6H8/l81/5Oj2b3z/ANL+13/QjH5o/wC+dP8A+kwf804/6H8/l81/5Oj2b3z/ANL+13/QjH5o/wC+dP8A+kwf804/6H8/l81/5Oj2b3z/ANL+13/QjH5o/wC+dP8A+kwf804/6H8/l81/5Oj2b3z/ANL+1A6p/wA4T/mXpVlc6ndw2AgtoZJpKXYJ4opY0HHwGGPYWaB4jW2/N1Xbv/BG7P1ejzYYGXFPHOIuPWUSB17y+Ls3D+Z7sVdirsVdirsVdirsVdirsVdir7G/5xc/5yjvfydvY/KvmuSS58m3MnxLuz2bsd5Yh1KE7vGOv2l+KofK0+o8PY8ntvZP2sl2XLwstnEfnA948u8fEb8/tjpupWms2kGraTNHc2VzGssM0TBkdGFVZSNiCM2wNvuuLLHLETgQQRYI5EI3C2OxV2KuxV2KuxV2KuxV2KuxV2KuxV2KuxV2KuxV2KuxV2KuxV2KuxV2KuxV2KuxV2KuxV2KuxV//9X7+Yq7FXYq7FXYq7FXYq7FXYq7FXYq7FXYq7FXYq7FXYq7FXYq7FXYq7FXYq7FXYq7FXYq7FXYq7FXYq7FXYq7FXYq7FXYq7FXYq7FXYq7FXYq7FXYq7FXYq7FXYq7FXYq7FXYq7FXYq7FXYq7FXYq7FXYq7FXYq7FXYq7FXYq7FXYq7FXYq7FXYq7FXYq7FXYq7FXYq7FXYq7FXYq7FXYq7FXYq7FXYqsxYuxV2KuxV2KuxV2KuxV2KuxV2KuxV2KuxV2KuxV2KuxV2KuxV2KuxV2KuxV2KuxV2KuxV2KuxV2KuxV2KuxV2KuxV2KuxV2KuxV2KuxV2KuxV2KuxV2KuxV2KuxVRubmKzhku7uRYoIkZ5JHYKqqoqWYnYADck4CaFllCBmRGIsnYAcye5+L/8AzlP/AM5Kz/m3qD+UvKsrReULOT4aVU3kin+9cfyA/wB2p/12+KgThe1+1TqTwR+kfb5/qfpP2E9io9j4/HzC80h/yrB/hH9L+cfgNtz48zSPozsVdirsVdirsVdirsVdirsVdir95v8AnFGx/R/5T+WYKU5W803/ACNuJJP+Ns9D7Hjw6ePu+8l+Vfb3L4namY+YH+ljGP6H0NmzeQdirsVdirsVdirsVdirsVdirsVdirsVdirsVdirsVdirsVdirsVYr57/wCUa1n/ALZ13/yZbIz5FxNfIxwzI/my+4v5os0D8suxV2KuxV2KuxV2KuxV2KuxV2KuxV9u/wDOJX/OT8v5V3sfkXzrOz+ULuSkcjkk2Mrn7a/8VMT+8XsfjXfkGy9NqODY8vue89jvas9nS8DMf3ZOx/mHv/qnqPiOt/aOGaO5jS4t3WSKRQyOpBVlIqCCNiCOhzavuMZCQsKmFk7FXYq7FXYq7FXYq7FXYq7FXYq7FXYq7FXYq7FXYq7FXYq7FXYq7FXYq7FXYq7FXYq7FXYq/wD/1vv5irsVdirsVdirsVdirsVdirsVdirsVdirsVdirsVdirsVdirsVdirsVdirsVdirsVdirsVdirsVdirsVdirsVdirsVdirsVdirsVdirsVdirsVdirsVdirsVdirsVdirsVdirsVdirsVdirsVdirsVdirsVdirsVdirsVdirsVdirsVdirsVdirsVdirsVdirsVdirsVdirsVdirsVdirsVdirsVdiqzFi7FXYq7FXYq7FXYq7FXYq7FXYq7FXYq7FXYq7FXYq7FXYq7FXYq7FXYq7FXYq7FXYq7FXYq7FXYq7FXYq7FXYq7FXYq7FXYq7FXYq7FXYq7FXYq7FXYq7FXYq7FX5Sf85jf85KN5guLj8pPIs9NLt39PVLqNv96JFO8CEf7rQ/bP7bCn2V+Pj+2+1OMnFDl1Pf5e597/AOBz7FflojXakeoi8cT/AAg/xn+kencN+Z2+eOcy+wOxV2KuxV2KuxV2KuxV2KuxV2KuxV/Qt+Rdj+jvy68q2pFCNFsHI8C8CufxOeldnx4cMB/RH3PyJ7U5fE7Qzy/2yf2SI/Q9WzMdC7FXYq7FXYq7FXYq7FXYq7FXYq7FXYq7FXYq7FXYq7FXYq7FXYqxXz3/AMo1rP8A2zrv/ky2RnyLh9o/3E/6svuL+aLNA/LTsVdirsVdirsVdirsVdirsVdirsVdir9K/wDnCv8A5yYOly2/5N+fbj/QpWEej3crf3Tk7Wzk/sMf7on7LfB0K8c/SaivSfg+o+w3tT4ZGjznY/RI9D/MPkf4e47d1fVnNk+vOxV2KuxV2KuxV2KuxV2KuxV2KuxV2KuxV2KuxV2KuxV2KuxV2KuxV2KuxV2KuxV2KuxV2Kv/1/v5irsVdirsVdirsVdirsVdirsVdirsVdirsVdirsVdirsVdirsVdirsVdirsVdirsVdirsVdirsVdirsVdirsVdirsVdirsVdirsVdirsVdirsVdirsVdirsVdirsVdirsVdirsVdirsVdirsVdirsVdirsVdirsVdirsVdirsVdirsVdirsVdirsVdirsVdirsVdirsVdirsVdirsVdirsVdirsVdiqzFi7FXYq7FXYq7FXYq7FXYq7FXYq7FXYq7FXYq7FXYq7FXYq7FXYq7FXYq7FXYq7FXYq7FXYq7FXYq7FXYq7FXYq7FXYq7FXYq7FXYq7FXYq7FXYq7FXYq7FXYq+Hv+cwf+civ+Vdac35eeT56eZtRi/fzRnezt3FKgjpLINk7qtX2PAnn+2+0/Aj4cPqP2D9ZfUP+B17Hfylk/NZx+6gdgf8AKTH+9j17z6f5z8d+u5ziX6LdirsVdirsVdirsVdirsVdirsVdirsVf0j+TLH9GeX9J02lPq9haxU8OESr/DPUcEeGAHcB9z8Z9pZfFz5J985H5klkuWuE7FXYq7FXYq7FXYq7FXYq7FXYq7FXYq7FXYq7FXYq7FXYq7FXYqxXz3/AMo1rP8A2zrv/ky2RnyLh9o/3E/6svuL+aLNA/LTsVdirsVdirsVdirsVdirsVdirsVdirYJUhlNCNwRir9qP+cOv+cjB+aWkDyL5tnr5q0uIcZHPxXlstAJKnrImwk7nZ96tx2ulz8Yo833P2K9pv5Rx+BlP7yA5/z49/vH8Xz769t5mPeOxV2KuxV2KuxV2KuxV2KuxV2KuxV2KuxV2KuxV2KuxV2KuxV2KuxV2KuxV2KuxV2KuxV//9D7+Yq7FXYq7FXYq7FXYq7FXYq7FXYq7FXYq7FXYq7FXYq7FXYq7FXYq7FXYq7FXYq7FXYq7FXYq7FXYq7FXYq7FXYq7FXYq7FXYq7FXYq7FXYq7FXYq7FXYq7FXYq7FXYq7FXYq7FXYq7FXYq7FXYq7FXYq7FXYq7FXYq7FXYq7FXYq7FXYq7FXYq7FXYq7FXYq7FXYq7FXYq7FXYq7FXYq7FXYq7FXYqsxYuxV2KuxV2KuxV2KuxV2KuxV2KuxV2KuxV2KuxV2KuxV2KuxV2KuxV2KuxV2KuxV2KuxV2KuxV2KuxV2KuxV2KuxV2KuxV2KuxV2KuxV2KuxV2KuxV2KuxV5J+df5taf+TXle582alxkuv7mxtiaGe4YHivjxH2nPZQe9AcLX6waWBmfgO8vQezPs/k7b1IwQ2HOcv5sRzPv6Dz8n4G+ZfMeo+b9Vu/M/mGdrjUb6VpppW7s3gOwA2UDYAADYZ51lynLIyluS/WOi0WPR4o4cQqMRQH46956ndI8rcp2KuxV2KuxV2KuxV2KuxV2KuxV2Ko3TbM6heW9gv2p5UiHzdgP45KEeIgNWbJ4cDLuBPyD+l1VCAIgooFAPbPVH4sJtdih2KuxV2KuxV2KuxV2KuxV2KuxV2KuxV2KuxV2KuxV2KuxV2KuxVivnv/AJRrWf8AtnXf/JlsjPkXD7R/uJ/1ZfcX80WaB+WnYq7FXYq7FXYq7FXYq7FXYq7FXYq7FXYqyLyj5r1PyPrNl5t8tzG31KwmWaFx0qOoYd1YVVh0ZSQeuGMjE2HJ0esnpMkcuM1KJsfjuPI+T+gz8mPzY0z85fK1p5z0ekcrj0ry2rVre4UDnGfbfkp/aQqdq0zd4soyCw/R3YfbEO1cAzQ90h/Nl1H6u8U9Wy13DsVdirsVdirsVdirsVdirsVdirsVdirsVdirsVdirsVdirsVdirsVdirsVdirsVdir//0fv5irsVdirsVdirsVdirsVdirsVdirsVdirsVdirsVdirsVdirsVdirsVdirsVdirsVdirsVdirsVdirsVdirsVdirsVdirsVdirsVdirsVdirsVdirsVdirsVdirsVdirsVdirsVdirsVdirsVdirsVdirsVdirsVdirsVdirsVdirsVdirsVdirsVdirsVdirsVdirsVdirsVdirsVdirsVdirsVdiqzFi7FXYq7FXYq7FXYq7FXYq7FXYq7FXYq7FXYq7FXYq7FXYq7FXYq7FXYq7FXYq7FXYq7FXYq7FXYq7FXYq7FXYq7FXYq7FXYq7FXYq7FXYq7FXYq7FXYqpXFxFaRPdXTrHDEpd3cgKqqKkknYADcnATW5ZQgZkRjuTsB3l+En/OTH50y/nN5slvbJ2Hl/T+VtpsZqAUr8UxH80pFfEKEU/Zzz3tXX/m8lj6RsP1/F+qPYn2aHYmlEZf3k/VM+fSPujy99nq+ds1j2LsVdirsVdirsVdirsVdirsVdirsVdirPPyssf0n508uabSv1jWLCKn+vcIP45k6OPFliP6Q+91XbuXwtHmn3Y5n5RL+jDPTX47dirsVdirsVdirsVdirsVdirsVdirsVdirsVdirsVdirsVdirsVdirFfPf/ACjWs/8AbOu/+TLZGfIuH2j/AHE/6svuL+aLNA/LTsVdirsVdirsVdirsVdirsVdirsVdirsVdir6d/5xX/POT8lvNaHVJG/w1qpS31FNyE3/dzgeMZJr4oWFK0pkabN4Z8nqvZHt89laj1f3c9peXdL/N+637xxSpcIs8DK8bqGVlIIYEVBBHUEZuH6DjISFhUwsnYq7FXYq7FXYq7FXYq7FXYq7FXYq7FXYq7FXYq7FXYq7FXYq7FXYq7FXYq7FXYq/wD/0vv5irsVdirsVdirsVdirsVdirsVdirsVdirsVdirsVdirsVdirsVdirsVdirsVdirsVdirsVdirsVdirsVdirsVdirsVdirsVdirsVdirsVdirsVdirsVdirsVdirsVdirsVdirsVdirsVdirsVdirsVdirsVdirsVdirsVdirsVdirsVdirsVdirsVdirsVdirsVdirsVdirsVdirsVdirsVdirsVdiqzFi7FXYq7FXYq7FXYq7FXYq7FXYq7FXYq7FXYq7FXYq7FXYq7FXYq7FXYq7FXYq7FXYq7FXYq7FXYq7FXYq7FXYq7FXYq7FXYq7FXYq7FXYq7FXYq7FXYq/Pz/AJzk/OtvLelR/lN5dm46jqkfqaiyHeO0rQR1HQykb/5AIIo4zm/aDX+HHwo8zz93d8fu9765/wAC72Z/M5Trso9MDUL6z/nf5nT+kf6L8mc419/dirsVdirsVdirsVdirsVdirsVdirsVdir23/nG+x/SH5n+VoKV46lDL/yKrJ/xrmf2XHizw9/3bvM+2eXw+zc5/oEf6b0/pfv/no78mOxV2KuxV2KuxVIdY81aL5edItf1KzsXkBZFubiOIsB1IDsKge2AyA5uPm1eLBtklGN95A+9J/+Vl+UP+pg0n/pOg/5ryPiR7w0fypp/wDVIf6aP63f8rL8of8AUwaT/wBJ0H/NePiR7wv8qaf/AFSH+mj+t3/Ky/KH/UwaT/0nQf8ANePiR7wv8qaf/VIf6aP63f8AKy/KH/UwaT/0nQf814+JHvC/ypp/9Uh/po/rd/ysvyh/1MGk/wDSdB/zXj4ke8L/ACpp/wDVIf6aP63f8rL8of8AUwaT/wBJ0H/NePiR7wv8qaf/AFSH+mj+t3/Ky/KH/UwaT/0nQf8ANePiR7wv8qaf/VIf6aP63f8AKy/KH/UwaT/0nQf814+JHvC/ypp/9Uh/po/rd/ysvyh/1MGk/wDSdB/zXj4ke8L/ACpp/wDVIf6aP63f8rL8of8AUwaT/wBJ0H/NePiR7wv8qaf/AFSH+mj+t3/Ky/KH/UwaT/0nQf8ANePiR7wv8qaf/VIf6aP63f8AKy/KH/UwaT/0nQf814+JHvC/ypp/9Uh/po/rd/ysvyh/1MGk/wDSdB/zXj4ke8L/ACpp/wDVIf6aP63f8rL8of8AUwaT/wBJ0H/NePiR7wv8qaf/AFSH+mj+t3/Ky/KH/UwaT/0nQf8ANePiR7wv8qaf/VIf6aP62MedvzG8pz+XdXhh17S3kfT7pVVb2AkkxMAAA+5ORnkFHcOJr+09OcMwMkPpl/EO4+b+dXNG/NDsVdirsVdirsVdirsVdirsVdirsVdirsVdirsVfsR/zgv+d/8AjDQW/KzzBNy1fRIw1mzneayqAF9zCSF/1CngTm00ebiHCej7V7AdvfmsX5XIfVAenzh/x3l7qffmZr6K7FXYq7FXYq7FXYq7FXYq7FXYq7FXYq7FXYq7FXYq7FXYq7FXYq7FXYq7FXYq7FX/0/v5irsVdirsVdirsVdirsVdirsVdirsVdirsVdirsVdirsVdirsVdirsVdirsVdirsVdirsVdirsVdirsVdirsVdiryLzl+e/kb8v8AUm8u+btV+qagqJIYvq1zJ8LiqnlHGy7/ADxViv8A0Nb+Vn/V+/6cb3/qjirv+hrfys/6v3/Tje/9UcVd/wBDW/lZ/wBX7/pxvf8AqjiqdeXf+ci/y882albeXPL+sfWNRu39OGL6pdJyalacniVRsO5GKvbcVdirsVdirsVdirsVeL+aP+chfy/8mapceWfMur/VtStSomi+q3T8Syhx8SRMpqrA7E4qkH/Q1v5Wf9X7/pxvf+qOKu/6Gt/Kz/q/f9ON7/1RxV3/AENb+Vn/AFfv+nG9/wCqOKsj8p/85AeQfPOqQeWPK2r/AFrU7nmYovqt1Hy9NC7fFJEqiiqTufxxV7JirsVdirsVdirsVdirsVdirsVdirsVdirsVdirsVdirzjz5+bflP8ALJ7aHzxqH1F7wO0A9CeXkI6Bv7pHpTkOtPbFXn//AENb+Vn/AFfv+nG9/wCqOKu/6Gt/Kz/q/f8ATje/9UcVd/0Nb+Vn/V+/6cb3/qjiq9P+cqvytkYRpr1WYgAfUr3qf+eOKvoTFXYq7FXYq7FXYq7FXYq7FXYq7FXYq7FXYq7FVmLF2KuxV2KuxV2KuxV2KuxV2KuxV2KuxV2KuxV2KuxV2KvL/PP5z+Tvy2u4dJ866l9Sup4vXjT6vcS1TkVrWKNwNwdia4qwn/oaz8rP+r9/05Xv/VHFad/0NZ+Vn/V+/wCnK9/6o4rTv+hrPys/6v3/AE5Xv/VHFaZx5F/OTyf+ZVzNpvkrUvrtzbxiWVPq88XFCeNayxoDuexrir07FXYq7FXYq7FXYq7FXYq7FXYq7FXYq7FXYq7FXYq7FXYq7FXYq7FXYq7FWKeefOOn/l/oGoectdbjZafA0zgdWI2VF/ynYhV9yMp1GcYIGcuQc/svs7J2jnhp8f1TNDy7yfICyfIP57PPHnHUPzA16/8AOWvPzvdQnaZ99lB2VFr+yigKvsBnmuoznPMzlzL9e9l9nY+zsENPi+mAoefeT5k7nzLFMpc92KuxV2KuxV2KuxV2KuxV2KuxV2KuxV2Kvp7/AJw4sfrv5t6CSKrCL2Y/7G0lA/4YjNt2HG9RH4/cXiP+CNl4Oy8vnwD/AGcf0P3Oz0B+XXYq7FXYq7FXYq/Hn/n4lqPreedG0sGog0ZJT7GW4lH6kGavXH1D3Pin/BLy3qoR7oX85S/U/P7MJ85dirsVdirsVdirsVdirsVdirsVdirsVdirsVdirsVdirsVdirsVdirsVdirsVdirsVdirsVdirsVdirN/y48+ah+WfmTTvPGhH/SrCYScK0EkZ+GSNv8l0JU/Oo3yWOZgbDn9mdoT7PzRzw5xN+8dR8Rs/op8n+a9P886JYeb/AC/J6un6hAk8TdwGG6sOzKaqw7MCM3sZCQsP0totZDWYo5cZuMhY/HeOR82SZJynYq7FXYq7FXYq7FXYq7FXYq7FXYq7FXYq7FXYq7FXYq7FXYq7FXYq7FXYq7FX/9T7+Yq7FXYq7FXYq7FXYq7FXYq7FXYq7FXYq7FXYq7FXYq7FXYq7FXYq7FXYq7FXYq7FXYq7FXYq7FXYq7FXYq7FXYq/Iv/AJzH/wDJjz/8wVr/AMROKvlfFXYq7FXtP/OOv/kyPLn/ADGf8aNir9s8VdirsVdirsVdirsVfi//AM5Qf+TP8wf8ZLf/AKhosVeB4q7FXYq+jP8AnE7/AMmjon+re/8AUJLir9kMVdirsVdirsVdirsVdirsVdirsVdirsVdirsVdirsVfnH/wA54/72+Wv+MN7/AMSixV+f+KuxV2Koqx/3ph/4yJ+sYq/oSxV2KuxV2KuxV2KuxV2KuxV2KuxV2KuxV2KuxVZixdirsVdirsVdirsVdirsVdirsVdirsVdirsVdirsVdir8vv+c5f+Ut0n/tlD/k/JikPifFLsVdir7i/5wX/5SXWv+2cv/J5cUF+m+KHYq7FXYq7FXYq7FXYq7FXYq8Yv/wA9/K0Hmiw/LjS7j9IazeTmFxbENFBRST6knTltTitSD9rjitPZ8VdirsVdirsVdirsVdirsVdirsVdir8t/wDnPb82Td3ln+UOkS/ubXhe6lxPWVh+5iP+qp5kdDzQ9VzkfaLWWRhHTc/oH6fk+6f8Cj2f4IS12QbyuMP6o+qXxPp+Eu9+b2cu+zuxV2KuxV2KuxV2KuxV2KuxV2KuxV2KuxV2Kvs7/nBCx+t/mabilfqulXc3yq0cf/G+b32ejef3A/ofN/8AgqZeDs6v52SI+wy/Q/Z7O5fm52KuxV2KuxV2Kvw+/wCc7NR+u/mvd21a/U7Gyg+VY/V/5mZqNYbm+Cf8EHLx68jujEfZxfpfHOYrxLsVdirsVdirsVdirsVdirsVdirsVdirsVdirsVdirsVdirsVdirsVdirsVdirsVdirsVdirsVdirsVdir9QP+ffv5u0N7+Tesy9ed/pfI9/93xD/k4oH/FhzYaLL/Cfg+r/APA57Z+rRzP9KH++j/vh/nP1EzYvrDsVdirsVdirsVdirsVdirsVdirsVdirsVdirsVdirsVdirsVdirsVdirsVdir//1fv5irsVdirsVdirsVdirsVdirsVdirsVdirsVdirsVdirsVdirsVdirsVdirsVdirsVdirsVdirsVdirsVdirsVdir8i/8AnMf/AMmPP/zBWv8AxE4q+V8VdirsVe0/846/+TI8uf8AMZ/xo2Kv2zxV2KuxV2KuxV2KuxV+L/8AzlB/5M/zB/xkt/8AqGixV4HirsVdir6M/wCcTv8AyaOif6t7/wBQkuKv2QxV2KuxV2KuxV2KuxV2KuxV2KuxV2KuxV2KuxV2KuxV+cf/ADnj/vb5a/4w3v8AxKLFX5/4q7FXYqirH/emH/jIn6xir+hLFXYq7FXYq7FXYq7FXYq7FXYq7FXYq7FXYq7FVmLF2KuxV2KuxV2KuxV2KuxV2KuxV2KuxV2KuxV2KuxV2Kvy+/5zl/5S3Sf+2UP+T8mKQ+J8UuxV2KvuL/nBf/lJda/7Zy/8nlxQX6b4odirsVdirsVdirsVdirzn8xPzW8tfldZ/X/Nt4sUjAmG2j+OeWn8kY3p25GijuwxV+Z/5uf85T+ZfzF9XSNCLaNoTVUxQv8Av5V/4tlFDQ90Wi9m59cU0wj/AJxx/wDJk+Xf+Yo/8m3xUv2txQ7FXYq7FXYq7FXYq7FXYq7FXYqxXzz5usvIWgaj5y1k0tNOt3nYVoWKj4UH+U7UVfcjKdRmGGBmeQDn9l9nT7Qzw0+PnMge7vPuA3PkH873mnzJe+cNYvvNOtP6l9qFxJcTN25SNWg8AOgHYADPM82U5ZGUuZNv2DodFDRYo4cYqMAIj4fp7/NIcrct2KuxV2KuxV2KuxV2KuxV2KuxV2KuxV2KuxV9/wD/AD71sfU84a5qVP7rSfSr/wAZZ42/40zpPZqP7yR/o/pH6nyb/gu5a0mOHfkv5RI/3z9bc7J+f3Yq7FXYq7FXYq/AP/nLTUf0p+bfme4rXhcxQf8AIm3ji/41zS6k3Mvzp7Y5fE7QynzA/wBLED9D50yh5l2KuxV2KuxV2KuxV2KuxV2KuxV2KuxV2KuxV2KuxV2KuxV2KuxV2KuxV2KuxV2KuxV2KuxV2KuxV2KuxVlHknzbfeQ9e07zjojcb3TbmO4j3oG4ndG/yXFVbxBOShLhNhy9BrJaPLHNDnEgj9XuPIv6OfKHmix87aJp/m3RH52Oo28dzEe4DrXifBlOzDsQRm9jLiFh+mtFq46vFHLDlIAj4/q6sjyTlOxV2KuxV2KuxV2KuxV2KuxV2KuxV2KuxV2KuxV2KuxV2KuxV2KuxV2KuxV//9b7+Yq7FXYq7FXYq7FXYq7FXYq7FXYq7FXYq7FXYq7FXYq7FXYq7FXYq7FXYq7FXYq7FXYq7FXYq7FXYq7FXYq7FXYq/Iv/AJzH/wDJjz/8wVr/AMROKvlfFXYq7FXtP/OOv/kyPLn/ADGf8aNir9s8VdirsVdirsVdirsVfi//AM5Qf+TP8wf8ZLf/AKhosVeB4q7FXYq+jP8AnE7/AMmjon+re/8AUJLir9kMVdirsVdirsVdirsVdirsVdirsVdirsVdirsVdirsVfnH/wA54/72+Wv+MN7/AMSixV+f+KuxV2Koqx/3ph/4yJ+sYq/oSxV2KuxV2KuxV2KuxV2KuxV2KuxV2KuxV2KuxVZixdirsVdirsVdirsVdirsVdirsVdirsVdirsVdirsVdir8vv+c5f+Ut0n/tlD/k/JikPifFLsVdir7i/5wX/5SXWv+2cv/J5cUF+m+KHYq7FXYq7FXYql+q6tZaHay6rrNxFa2cK8pJpnCIo8SxoBir4H/Nz/AJzOVPV0P8po+Tbq2qXCbD3hibr/AK0g/wBgeuKafAOsa1f+YbyXWNduZbu9mblJNM5d2PuT+A7dBilLMVe2f844/wDkyfLv/MUf+Tb4oL9rcUOxV2KuxV2KuxV2KuxV2KuxV2Kvzh/5z/8AzKNnY6Z+VenyUkvCNQvgD/uqMlYUPszhmPvGucv7R6qgMQ67n3dPx5Psv/Al7F45z1sx9Poh/WO8j8I0P84vy0zkX3Z2KuxV2KuxV2KuxV2KuxV2KuxV2KuxV2KuxV2Kv0v/AOfdVjym82akw+ymnQqf9Yzs36hnVezMfrPu/S+K/wDBhy7YIf8ADD/uB+kv09zrHxB2KuxV2KuxV2Kv5yPzu1H9K/mF5q1AGqya1qHE/wCSLhwv4AZosxuR978ydvZfE1mWXfkn/ui8vyt1LsVdirsVdirsVdirsVdirsVdirsVdirsVdirsVdirsVdirsVdirsVdirsVdirsVdirsVdirsVdirsVdirsVfrV/z74/M39KaLqP5V6jJW40xzfWQJ3NvM1JVA8ElPL/nrmy0WSxwvsX/AAOO1fExS0sjvH1R/qnn8pb/AOc/RrM99NdirsVdirsVdirsVdirsVdirsVdirsVdirsVdirsVdirsVdirsVdirsVdir/9f7+Yq7FXYq7FXYq7FXYq7FXYq7FXYq7FXYq7FXYq7FXYq7FXYq7FXYq7FXYq7FXYq7FXYq7FXYq7FXYq7FXYq7FXYq/Iv/AJzH/wDJjz/8wVr/AMROKvlfFXYq7FXtP/OOv/kyPLn/ADGf8aNir9s8VdirsVdirsVdirsVfi//AM5Qf+TP8wf8ZLf/AKhosVeB4q7FXYq+jP8AnE7/AMmjon+re/8AUJLir9kMVdirsVdirsVdirsVdirsVdirsVdirsVdirsVdirsVfnH/wA54/72+Wv+MN7/AMSixV+f+KuxV2Koqx/3ph/4yJ+sYq/oSxV2KuxV2KuxV2KuxV2KuxV2KuxV2KuxV2KuxVZixdirsVdirsVdirsVdirsVdirsVdirsVdirsVdirsVdir8vv+c5f+Ut0n/tlD/k/JikPifFLsVdir7i/5wX/5SXWv+2cv/J5cUF+m+KHYq7FXYq7FXYq+QP8AnNn/AJQG2/7a9v8A8mZsVD8pcWTsVdir2z/nHH/yZPl3/mKP/Jt8UF+1uKHYq7FXYq7FXYq7FXYq7FXYqskkSFGllYKigszMaAAbkk4CaTGJkaD+ez86/P7/AJnedtY848i1tcXDJag/s28XwRCnaqKCf8ok55tr9T+Yyyn57e7o/Xnsz2QOytHjwdQLl/XO8vtNDyp5ZmG752KuxV2KuxV2KuxV2KuxV2KuxV2KuxV2KuxV2Kv1g/595WPp+WvMOpU/vdRihr/xih5f8b52Ps1H0SPn+j9r4J/wXst6jFDugT85V/vX6GZ0r5C7FXYq7FXYq0SAKnYDFX8x2vagdW1O91U7m5uZpv8AkY5b+Oc/I2X5U1GTxZyl3kn5lKsDS7FXYq7FXYq7FXYq7FXYq7FXYq7FXYq7FXYq7FXYq7FXYq7FXYq7FXYq7FXYq7FXYq7FXYq7FXYq7FXYq7FXsv8Azj9+Yp/K3z7o3myRylks4t73fY20/wC7kJ8eIPMD+ZRluDJwSBd37Odp/wAnauGXpdS/qy2Py5+8P6HgQwDKag7gjN4/SbeKXYq7FXYq7FXYq7FXYq7FXYq7FXYq7FXYq7FXYq7FXYq7FXYq7FXYq7FX/9D7+Yq7FXYq7FXYq7FXYq7FXYq7FXYq7FXYq7FXYq7FXYq7FXYq7FXYq7FXYq7FXYq7FXYq7FXYq7FXYq7FXYq7FXYq/Iv/AJzH/wDJjz/8wVr/AMROKvlfFXYq7FXtP/OOv/kyPLn/ADGf8aNir9s8VdirsVdirsVdirsVfi//AM5Qf+TP8wf8ZLf/AKhosVeB4q7FXYq+jP8AnE7/AMmjon+re/8AUJLir9kMVdirsVdirsVdirsVdirsVdirsVdirsVdirsVdirsVfnH/wA54/72+Wv+MN7/AMSixV+f+KuxV2Koqx/3ph/4yJ+sYq/oSxV2KuxV2KuxV2KuxV2KuxV2KuxV2KuxV2KuxVZixdirsVdirsVdirsVdirsVdirsVdirsVdirsVdirsVdirwX81/wDnHjy9+cGo2+u+Y7u/t57a3Fsi2kkSqVDs9Tzjc1qx7/RitvLP+hHfJH/Vy1n/AJHW3/VDFbd/0I75I/6uWs/8jrb/AKoYrbv+hHfJH/Vy1n/kdbf9UMVt6t+U/wDzj55f/J6+utY8t3V/cTXcAgcXbxMoUMGqOEaGtR3JxW3u+KuxV2KuxV2KuxV8gf8AObP/ACgNt/217f8A5MzYqH5S4snYq7FXtn/OOP8A5Mny7/zFH/k2+KC/a3FDsVdirsVdirsVdirsVdirsVfNv/OWXn3/AAD+W2qz278L3UwNLtqGh5XAIkI8CIg5B8QM1XbOo8HAe87D4/st7P2A7J/lDtGAP0w/eS/zOXzlwj3Pwozz5+qHYq7FXYq7FXYq7FXYq7FXYq7FXYq7FXYq7FXYq7FX7I/84D2P1X8t7m5I3udZuZK+ywwp/wAanO49nY1hJ75H7g/Of/BXy8faAHdjiP8AZSP6X23m+fMnYq7FXYq7FWM+ddR/RHl7VtWrT6rYXU9fD04mb+GRmaBcXXZfCwzn3RkfkCX8z2aB+WHYq7FXYq7FXYq7FXYq7FXYq7FXYq7FXYq7FXYq7FXYq7FXYq7FXYq7FXYq7FXYq7FXYq7FXYq7FXYq7FXYq7FXYq/fz/nFXz+fzE/LTRtTuZPUvrKM6bdkmp9S2ooJPi0fBz/rZutNPjiH6J9ke0fz2ihI84jgl747faKPxfRGXvTOxV2KuxV2KuxV2KuxV2KuxV2KuxV2KuxV2KuxV2KuxV2KuxV2KuxV2Kv/0fv5irsVdirsVdirsVdirsVdirsVdirsVdirsVdirsVdirsVdirsVdirsVdirsVdirsVdirsVdirsVdirsVdirsVdir8i/8AnMf/AMmPP/zBWv8AxE4q+V8VdirsVe0/846/+TI8uf8AMZ/xo2Kv2zxV2KuxV2KuxV2KuxV+L/8AzlB/5M/zB/xkt/8AqGixV4HirsVdir6M/wCcTv8AyaOif6t7/wBQkuKv2QxV2KuxV2KuxV2KuxV2KuxV2KuxV2KuxV2KuxV2KuxV+cf/ADnj/vb5a/4w3v8AxKLFX5/4q7FXYqirH/emH/jIn6xir+hLFXYq7FXYq7FXYq7FXYq7FXYq7FXYq7FXYq7FVmLF2KuxV2KuxV2KuxV2KuxV2KuxV2KuxV2KuxV2KuxV2KuxV2KuxV2KuxV2KuxV2KuxV2KuxV8gf85s/wDKA23/AG17f/kzNioflLiydirsVe2f844/+TJ8u/8AMUf+Tb4oL9rcUOxV2KuxV2KuxV2KuxV2KuxV+Uf/AD8E87G/17R/INs9YtPtmvZwDt6tweKA+6olR7SZx3tJqOKccY6Cz7z+Ptfe/wDgR9meHgyao85y4R/VjufmT/sX55ZzT7A7FXYq7FXYq7FXYq7FXYq7FXYq7FXYq7FXYq7FXYq/cH/nCyx+qflNo81KG5mvpvuuZE/40zvuwo1p4+d/eX5i/wCCVl4+1Mg7hAf7AH9L6rzcPBuxV2KuxV2KvHv+cg9R/Rf5aebLutCdGvYgfeWIxj8WyrOagfc6T2ky+Hosx/oSHzFfpfzs5o35pdirsVdirsVdirsVdirsVdirsVdirsVdirsVdirsVdirsVdirsVdirsVdirsVdirsVdirsVdirsVdirsVdirsVdir9Jv+fdvnk2uq65+XVy/7q7gTUbdT0EkJEcoHuyuh+SZn6Ge5i+of8DXX8OTJpz1HGPeNj8wR8n6vZsn192KuxV2KuxV2KuxV2KuxV2KuxV2KuxV2KuxV2KuxV2KuxV2KuxV2KuxV//S+/mKuxV2KuxV2KuxV2KuxV2KuxV2KuxV2KuxV2KuxV2KuxV2KuxV2KuxV2KuxV2KuxV2KuxV2KuxV2KuxV2KuxV2KvyL/wCcx/8AyY8//MFa/wDETir5XxV2KuxV7T/zjr/5Mjy5/wAxn/GjYq/bPFXYq7FXYq7FXYq7FX4v/wDOUH/kz/MH/GS3/wCoaLFXgeKuxV2Kvoz/AJxO/wDJo6J/q3v/AFCS4q/ZDFXYq7FXYq7FXYq7FXYq7FXYq7FXYq7FXYq7FXYq7FX5x/8AOeP+9vlr/jDe/wDEosVfn/irsVdiqKsf96Yf+MifrGKv6EsVdirsVdirsVdirsVdirsVdirsVdirsVdirsVWYsXYq7FXYq7FXYq7FXYq7FXYq7FXYq7FXYq7FXYq7FXYq7FXYq7FXYq7FXYq7FXYq7FXYq7FXyB/zmz/AMoDbf8AbXt/+TM2Kh+UuLJ2KuxV7Z/zjj/5Mny7/wAxR/5Nvigv2txQ7FXYq7FXYq7FXYq7FXYq7FX89356ecP8eefvMHmdX5wTX0kcDV6wQ/uoj9KIpzzXtDP42aUvPb3DYP157LdnfyfocWHkREE/1peqX+yJeT5hu/dirsVdirsVdirsVdirsVdirsVdirsVdirsVdirsVfvl/zi/Y/o/wDKvyxb0pysvW/5HSNJ/wAbZ6L2THhwQ933vyj7cZfE7TzH+lX+lAj+h71mxeUdirsVdirsVfMf/OY+o/o78ofMbg0eZbSBff1LqIH/AIWuY+qNQLynttl8Ps7J58I+co/ofgpmmfnl2KuxV2KuxV2KuxV2KuxV2KuxV2KuxV2KuxV2KuxV2KuxV2KuxV2KuxV2KuxV2KuxV2KuxV2KuxV2KuxV2KuxV2Kvaf8AnHbzmfIX5j+XfMLNwgF6ltcGu3o3P7mQn/VV+XzAy3BPhkC7z2a135PWY8nTiAPul6T9ht/Q3m8fpN2KuxV2KuxV2KuxV2KuxV2KuxV2KuxV2KuxV2KuxV2KuxV2KuxV2KuxV//T+/mKuxV2KuxV2KuxV2KuxV2KuxV2KuxV2KuxV2KuxV2KuxV2KuxV2KuxV2KuxV2KuxV2KuxV2KuxV2KuxV2KuxV2KvyL/wCcx/8AyY8//MFa/wDETir5XxV2KuxV7T/zjr/5Mjy5/wAxn/GjYq/bPFXYq7FXYq7FXYq7FX4v/wDOUH/kz/MH/GS3/wCoaLFXgeKuxV2Kvoz/AJxO/wDJo6J/q3v/AFCS4q/ZDFXYq7FXYq7FXYq7FXYq7FXYq7FXYq7FXYq7FXYq7FX5x/8AOeP+9vlr/jDe/wDEosVfn/irsVdiqKsf96Yf+MifrGKv6EsVdirsVdirsVdirsVdirsVdirsVdirsVdirsVWYsXYq7FXYq7FXYq7FXYq7FXYq7FXYq7FXYq7FXYq7FXYq7FXYq7FXYq7FXYq7FXYq7FXYq7FXyB/zmz/AMoDbf8AbXt/+TM2Kh+UuLJ2KuxV7Z/zjj/5Mny7/wAxR/5Nvigv2txQ7FXYq7FXYq7FXYq7FXYq84/N/wA1f4I8k695pRuEtnp87Qnp++ZSsX3uVzF1ubwcUpdwPz6fa7n2d0H5/WYsPSU43/Vu5f7EF/O7nmb9hOxV2KuxV2KuxV2KuxV2KuxV2KuxV2KuxV2KuxV2KuxV/RH+TVj+jfIPlexIo0ei6erf631dOX41z0zQx4cUB/RH3PyB7R5fF12aXfln/ui9JzKdK7FXYq7FXYq+KP8AnPnUfqX5X/Vq0+uaraQfOiyS/wDMvMTWmofF4T/giZeDQ13ziPvl+h+J+al8JdirsVdirsVdirsVdirsVdirsVdirsVdirsVdirsVdirsVdirsVdirsVdirsVdirsVdirsVdirsVdirsVdirsVdirYJUhlNCNwRir+kT8qvNn+OvJ2h+byeUl/p9vNL7SlAJB9Dhhm9xy4ogv072RrPzmmx5f50QT763+22f5Y7J2KuxV2KuxV2KuxV2KuxV2KuxV2KuxV2KuxV2KuxV2KuxV2KuxV2Kv//U+/mKuxV2KuxV2KuxV2KuxV2KuxV2KuxV2KuxV2KuxV2KuxV2KuxV2KuxV2KuxV2KuxV2KuxV2KuxV2KuxV2KuxV2KvyL/wCcx/8AyY8//MFa/wDETir5XxV2KuxV7T/zjr/5Mjy5/wAxn/GjYq/bPFXYq7FXYq7FXYq7FX4v/wDOUH/kz/MH/GS3/wCoaLFXgeKuxV2Kvoz/AJxO/wDJo6J/q3v/AFCS4q/ZDFXYq7FXYq7FXYq7FXYq7FXYq7FXYq7FXYq7FXYq7FX5x/8AOeP+9vlr/jDe/wDEosVfn/irsVdiqKsf96Yf+MifrGKv6EsVdirsVdirsVdirsVdirsVdirsVdirsVdirsVQF/qVppULXmqTxW1uv2pJnVEHzZiBixeO63/zkf8AlvoJK3fmC1lbwtBJc1+mFXH44rTzy9/5zO/Ly1r6H6Ruaf76tgK/8jHTFaSj/oeDyJWn1DWqePoW1P8AqIxWk6sf+cy/y7uyBcPqFrXvNa1p/wAi2fFaekaH/wA5Dflz5hKrYeYbON22C3Ra2NfD98ExWnrtpeW9/Et3YypNA4qskbBlI9iKg4qicVdirsVdirsVdirsVdirsVdirsVdirsVdirsVdirsVdirsVdirsVdir5A/5zZ/5QG2/7a9v/AMmZsVD8pcWTsVdir2z/AJxx/wDJk+Xf+Yo/8m3xQX7W4odirsVdirsVdirsVdirsVfF/wDznb5kOjfluNGjaj6tqNvbsvjHFynJ+QaNPvzRe0OXgw13kD9P6H0r/gV6Lx+0PEP+ThKXxNQ+6RfjNnDP0i7FXYq7FXYq7FXYq7FXYq7FXYq7FXYq7FXYq7FXYq7FX9Kfl2x/Rmk2Gm0p9XtYYaf6iBf4Z6nijwxA7gH4v1mXxcsp98ifmbTnJuM7FXYq7FXYq/O3/n4xqPpeVPL+k1/v9Ueen/GGBl/5mZg647Aeb5p/wTctafHDvmT8gf8Ain5FZrHxl2KuxV2KuxV2KuxV2KuxV2KuxV2KuxV2KuxV2KuxV2KuxV2KuxV2KuxV2KuxV2KuxV2KuxV2KuxV2KuxV2KuxV2KuxV+2v8Azgf5n/Tv5YRaQ7Vk0e/urSh68HIuFPy/ekD5ZttHK4V3Pu3/AAPtX42hEP5kpR+B9X++fZ+Zb3LsVdirsVdirsVdirsVdirsVdirsVdirsVdirsVdirsVdirsVdirsVf/9X7+Yq7FXYq7FXYq7FXYq7FXYq7FXYq7FXYq7FXYq7FXYq7FXYq7FXYq7FXYq7FXYq7FXYq7FXYq7FXYq7FXYq7FXYq/Iv/AJzH/wDJjz/8wVr/AMROKvlfFXYq7FXtP/OOv/kyPLn/ADGf8aNir9s8VdirsVdirsVdirsVfi//AM5Qf+TP8wf8ZLf/AKhosVeB4q7FXYq+jP8AnE7/AMmjon+re/8AUJLir9kMVdirsVdirsVdirsVdirsVdirsVdirsVdirsVdirsVfnH/wA54/72+Wv+MN7/AMSixV+f+KuxV2Koqx/3ph/4yJ+sYq/oSxV2KuxV2KuxV2KsE/NK8n0/yZ5jv7CV4LqDR7+WKWJijo6W7lWVhQhgRUEbg4q/GL/lb3nv/qaNb/7iVz/zXirv+Vvee/8AqaNb/wC4lc/814q7/lb3nv8A6mjW/wDuJXP/ADXir6r/AOcPvPnmbzN52utP8yazqOoWq6VPIsV3dzTIHE0IDBXYioBIr13OKv0txV2KvMfzH/ODyt+Vlv8AWPNd6qXLLyitIvjuJf8AVQHYf5TFV/ysVfn9+YP/ADmh5o19pLPyPDHotkagSkCa5YePJhwWo7BSR2fFXyZrvmTVvM9wb/zHfXN/c7/vLmV5GFewLE0HsNsVSXFXYq7FXYq7FWReXfN2t+UZxe+WNQurCaoJNvKycv8AWANGHsQRir61/L//AJzU8xaMyWXn61j1e0FAZ4gsNyB47fu3+XFCe7Yop98/l5+bflf80Lb615SvllmRQ0trJ8FxF/rRnenbktV8GxQ9JxV2KuxV2KuxV2KuxV2KuxV+c/8AzmR548x+V/NGmWflrWNQ06CTTRI8dpdSwqzetIORCMATQAVxSHyD/wArd89f9TPrf/cSuf8AmvFLv+Vu+ev+pn1v/uJXP/NeKu/5W756/wCpn1v/ALiVz/zXir7G/wCcNPO3mLzR5h1e18zavqGowx2CuiXl1LMqt6qioDsQDTaoxQX6IYodirsVfHn/ADmV5n1jyv5d0m68s6hd6dNJqBR3s55IWZfSY0JQgkV3ocVD87P+Vu+ev+pn1v8A7iVz/wA14snf8rd89f8AUz63/wBxK5/5rxVJ9b8+eZvM1uNP8x6zqOoWquJBFd3c0yBwCAwV2IqASK9dzirFMVdirsVR2m6neaNcx6npFxLa3kJ5RzQSNHIhpSqspBBp4HFWa/8AK3fPX/Uz63/3Ern/AJrxV3/K3fPX/Uz63/3Ern/mvFXf8rd89f8AUz63/wBxK5/5rxV3/K3fPX/Uz63/ANxK5/5rxV+62LF2KuxV2KuxV+XX/Pw/XjJf+WvK6NQQwXV5Ivj6rJGh+j03p8znJe02TeMfefx8n3P/AID+kqGbN3mMR8ASf90H5t5yz7Q7FXYq7FXYq7FXYq7FXYq7FXYq7FXYq7FXYq7FXYqnHl6x/Seq2Om0r9YuYYaf67hf45ZijxSA7yHH1eXwsUp90SfkLf0qZ6k/FzsVdirsVdirsVfFX/OXn5DebPz0l8u2PkxrOK207661zLeTNGoab0QlAquxoEboMxNVhOWqeF9s/Z7UdsHHHDwgR4rMjXPhrkCehfPWg/8APuPVJeL+aPM9tB/MlnaPNX2DSPFT58T8sojoD1LzWn/4GOQ/3uUD+rEy+0mP3PatB/598fl9p3GTW77VtRkHVTLFDGfoSPn/AMPl0dDEc7d7p/8Agb6OH1ynL4gD7Bf2vX9I/wCcRfyk0Wht/LUEzDq1zNcT1+iSRl+4ZaNLAdHdYfYzs/FyxA+8yl95Z/Y/kf8Al3popZ+VNEQj9o6dbs3/AARQn8cmMMR0Hydlj7A0ePlix/6SP6mRwfl75WtRS20PTIx/kWcK/qXJcA7nJj2bgjyxwH+aP1IxfJ+goKJpdiB7W0X/ADTjwhsGixD+CPyH6kPN5D8s3A4XGi6dIvg1pCR+K48A7mEuzsEucI/6UfqY1f8A5Jfl7qYpfeVdEkJ/a/R9uG/4IID+OROGJ6D5OLk7B0eT6sWP/SR/U881j/nEP8pNaqZ/LcMDno1rPcQU+SxyBfvGVnSwPR1uf2L7Py88QHuMo/caeMeY/wDn3p5F1AM/lzU9U02Y9A7RXEQ/2JRX/wCSmVS0MTyt0ep/4G2ln/dynE/CQ+4H/ZPnHzf/AM+9POmkhpvKGqafq8S9Ek5WkzfJW5x/fIMoloZDlu8xrf8AgbanHvinGfvuB/SP9k+SfPH5Pedfy3Yjztol5YRA09do+cBPgJk5Rk/JsxZ4pQ5h43X9i6nQf30JR86uP+mFx+15tkHVuxV2KuxV2KuxV2KuxV2KuxV2KuxV2KuxV2KuxV2KuxV2KuxV2KuxV2KuxV2Kv06/59x+YOM/mjyrI320s72Jf9UvHIf+GTNhoJcw+q/8DLU75cX9WQ+0H7w/UrNi+tOxV2KuxV2KuxV2KuxV2KuxV2KuxV2KuxV2KuxV2KuxV2KuxV2KuxV//9b7+Yq7FXYq7FXYq7FXYq7FXYq7FXYq7FXYq7FXYq7FXYq7FXYq7FXYq7FXYq7FXYq7FXYq7FXYq7FXYq7FXYq7FXYq/Iv/AJzH/wDJjz/8wVr/AMROKvlfFXYq7FXtP/OOv/kyPLn/ADGf8aNir9s8VdirsVdirsVdirsVfi//AM5Qf+TP8wf8ZLf/AKhosVeB4q7FXYq+jP8AnE7/AMmjon+re/8AUJLir9kMVdirsVdirsVdirsVdirsVdirsVdirsVdirsVdirsVfnH/wA54/72+Wv+MN7/AMSixV+f+KuxV2Koqx/3ph/4yJ+sYq/oSxV2KuxV2KuxV2KvPPze/wCUE80f9sTUv+oZ8VfhNirsVdir7E/5wi/5T28/7Y9x/wAn4MVfqxir4d/Pz/nLCHys8/k78tXjudWSsdxf7PFbt0Kxjo8g7k/Ap2+I1CqvzV1XVb3XLuXVtZuJbq9nbnLNM5d2PiWO5xVL8VdirsVdirsVdirsVdirsVTHSdWvdCu4tW0W4ltb2BucU0LlHU+II3xV+mP/ADj7/wA5Txec5IPJf5htHb649EtrwAJFdN0CsOiSntT4XOw4tRSoIfa+KHYq7FXYq7FXYq7FXYq/L7/nOX/lLdJ/7ZQ/5PyYpD4nxS7FXYq+4v8AnBf/AJSXWv8AtnL/AMnlxQX6b4odirsVfEH/ADnP/wAoxo3/AG0j/wAmXxUPzFxZOxV2KuxV2KuxV2KuxV2KuxV2Kv6GcWLsVdirsVdir8Wf+c5dZ/Sf5oT2Na/o7T7O1p4clM//ADNzhPaCfFnruAH6f0v0t/wLtN4XZol/PnKXyqH+9fHmaR9FdirsVdirsVdirsVdirsVdirsVdirsVdirsVdirsVekfk3Y/pLz75XsaVEutaerf6v1hK/hXMrQx4ssB/SH3ul9o8vhaHNLuxT/3Jf0SZ6Y/IDsVdirsVdirsVdirsVdirsVdirsVdirsVdirsVdirsVWSxJMjQzKHjYEMrCoIPUEHFBAOxfLP5mf84dflz+Yolu7ex/QmqPUi60wCJS3i8P902/Wiqx/mzGyaWM/J5LtX2J0eusiPBLvht84/SfkD5vzT/N7/nDnz1+Vqy6rYRDXdDjqxu7FCZEUd5YN3XxJXmgHVhmBl0soeb5Z217E6rs65RHiQ/nR5j+tHmPhY83ybmM8e7FXYq7FXYq7FXYq7FXYq7FXYq7FXYq7FXYq7FXYq7FXYq7FXYq7FXYq+0/+cCtZ/Rn5oLYE0Go6Zd21PErwn/5lHMrRGpvc/wDA8z+HruH+dCQ+6X+9ftjm3fdnYq7FXYq7FXYq7FXYq7FXYq7FXYq7FXYq7FXYq7FXYq7FXYq7FXYq/wD/1/v5irsVdirsVdirsVdirsVdirsVdirsVdirsVdirsVdirsVdirsVdirsVdirsVdirsVdirsVdirsVdirsVdirsVdir8i/8AnMf/AMmPP/zBWv8AxE4q+V8VdirsVe0/846/+TI8uf8AMZ/xo2Kv2zxV2KuxV2KuxV2KuxV+L/8AzlB/5M/zB/xkt/8AqGixV4HirsVdir6M/wCcTv8AyaOif6t7/wBQkuKv2QxV2KuxV2KuxV2KuxV2KuxV2KuxV2KuxV2KuxV2KuxV+cf/ADnj/vb5a/4w3v8AxKLFX5/4q7FXYqirH/emH/jIn6xir+hLFXYq7FXYq7FXYq88/N7/AJQTzR/2xNS/6hnxV+E2KuxV2KvsT/nCL/lPbz/tj3H/ACfgxV63/wA5T/8AORcmmNP+WHkOcrdUMepXkTbx16wRkdG/34w+z9kfFy4qvzgxV2KuxV2KuxV2KuxV2KuxV2KuxV2KtqxUhlJBBqCMVfrH/wA4r/ne/wCY2lN5S8yy8/MOmRgiRj8VzbigEh8XQ0V/Gqt1Y0WJD61xV2KuxV2KuxV2KuxV+X3/ADnL/wApbpP/AGyh/wAn5MUh8T4pdirsVfcX/OC//KS61/2zl/5PLigv03xQ7FXYq+IP+c5/+UY0b/tpH/ky+Kh+YuLJ2KuxV2KuxV2KuxV2KuxV2KuxV/QzixdirsVdirsVfgZ/zk3qf6X/ADS80XRNeF+bf/pHRYf+NM867WnxZ5nzr5bP1j7EYPB7MwR/oX/piZfpeE5rnqnYq7FXYq7FXYq7FXYq7FXYq7FXYq7FXYq7FXYq7FXvP/OMFj+kPzT8rwUrxvvW/wCRUbSf8a5seyY8WeHv+7d5X23y+H2ZmP8ARr/TER/S/fPPRX5QdirsVdirsVdirsVdirsVdirsVdirsVdirsVdirsVdirsVdirsVfHn57f84deVvzWWbXfLax6H5nar+vClLeduv7+Je5PWRKNvVg/TMXNpRPcbF4r2g9icHaVzx1DJ3j6Zf1h/vhv32/Hf8xPy08xflXq8nljztZvaXa/EjfajmSuzxONmU+I3B2YBgRmryYzA0XxPtPsrN2dk8LNGj9hHeD1H4O7A8g692KuxV2KuxV2KuxV2KuxV2KuxV2KuxV2KuxV2KuxV2KuxV2KuxV9A/8AOK2qHSPzY8rXQNOd6bf/AKSInhp9PPLtMamHo/ZHL4WvxH+lX+mBj+l/QHm7fox2KuxV2KuxV2KuxV2KuxV2KuxV2KuxV2KuxV2KuxV2KuxV2KuxV2Kv/9D7+Yq7FXYq7FXYq7FXYq7FXYq7FXYq7FXYq7FXYq7FXYq7FXYq7FXYq7FXYq7FXYq7FXYq7FXYq7FXYq7FXYq7FXYq/Iv/AJzH/wDJjz/8wVr/AMROKvlfFXYq7FXtP/OOv/kyPLn/ADGf8aNir9s8VdirsVdirsVdirsVfi//AM5Qf+TP8wf8ZLf/AKhosVeB4q7FXYq+jP8AnE7/AMmjon+re/8AUJLir9kMVdirsVdirsVdirsVdirsVdirsVdirsVdirsVdirsVfnH/wA54/72+Wv+MN7/AMSixV+f+KuxV2Koqx/3ph/4yJ+sYq/oSxV2KuxV2KuxV2KvPPze/wCUE80f9sTUv+oZ8VfhNirsVdir0n8tPzIvfywutS1jQxTUbzTZbGCX/fLSyRsZKdyqoeP+VQmoFMVecyyvM7TTMXkclmZjUknckk9ScVWYq7FWZeTfy98x/mBcmw8n6dPfSKQHaNaRpX+eRqIv+yYYq+vvKP8Azg3qt2qXHnbWIbMHcwWcZmengXbgqn5Bxii3u2kf84Y/l9p6gX/6Qv37ma5CD6BEqfrxRbKB/wA4n/lcBxOiMT4/Xbuv/J3FbY/qv/OG/wCXWoIVsor6xY9Ggui1PomEmK28D85/84O6nZo915E1aK9A3FteJ6MlPASLyVj8wg98U2+MvNXk7W/JF62jebLGaxu13CTLQMPFGFVYe6kj3xSxrFXYq7FXYqzL8v8Azpe/l75gsPN+lE+tZyhmStBJGdpIz7MpI9uvUYq/dPRNYtfMOn2uvaU/qWd5DHcQv4pIoYfgcWKaYq7FXYq7FXYq7FX5ff8AOcv/ACluk/8AbKH/ACfkxSHxPil2KuxV9xf84L/8pLrX/bOX/k8uKC/TfFDsVdiryr82Pyh0j84bC10bzJPd28NpObhGtGjVi3ErQ80cUofDFXg//Qjvkj/q5az/AMjrb/qhitu/6Ed8kf8AVy1n/kdbf9UMVt4T/wA5Df8AON3lv8pPLMPmfy7d6hPdSX0VqVupIWTg8cjE0SJDWqDv47YpBfFOKXYq7FXof5T+UbTz35t0ryjq0ksVpfTGOR4CokACM3wlgwrt3BxV+hP/AEI75I/6uWs/8jrb/qhixt3/AEI75I/6uWs/8jrb/qhitu/6Ed8kf9XLWf8Akdbf9UMVt3/Qjvkj/q5az/yOtv8Aqhitvs3FXYq7FXYq7FX86X5qXx1Pzp5j1Emvr6xfy/8ABXDnPMtZLiyyP9I/e/YvYOLwtHhh3Y4D5RDA8xnbOxV2KuxV2KuxV2KuxV2KuxV2KuxV2KuxV2KuxV2Kvqr/AJwtsfrf5s6PNSotob6Y/wDSNIn62zcdhRvUR8r+4vCf8EnLwdl5B3mA/wBmD+h+4Wd8/MLsVdirsVdirsVdirsVdirsVdirsVdirsVdirsVdirsVdirsVdirsVedfmd+Vnl383NGk8r+c7UTQNVoZloJoJKbSRPQ8WH3MNmBXbK8mMZBRdZ2r2Rh7TxnFmFjoesT3xPQ/f1fhj+e35C69+Res/ozWAbnSbgsbDUEUiOZR+yRvwkX9pCfcEqQc1GbCcZ3fAPaD2dy9j5OGe8T9Mukv1EdR+h4XlLoHYq7FXYq7FXYq7FXYq7FXYq7FXYq7FXYq7FXYq7FXYq7FXYq9E/KG/Ol+evLOoqaehrWnyH5LcIT+GTxGpD3uy7FyeHqsUu6cD/ALIP6QM3z9OuxV2KuxV2KuxV2KuxV2KuxV2KuxV2KuxV2KuxV2KuxV2KuxV2KuxV/9H7+Yq7FXYq7FXYq7FXYq7FXYq7FXYq7FXYq7FXYq7FXYq7FXYq7FXYq7FXYq7FXYq7FXYq7FXYq7FXYq7FXYq7FXYq/Iv/AJzH/wDJjz/8wVr/AMROKvlfFXYq7FXtP/OOv/kyPLn/ADGf8aNir9s8VdirsVdirsVdirsVfi//AM5Qf+TP8wf8ZLf/AKhosVeB4q7FXYq+jP8AnE7/AMmjon+re/8AUJLir9kMVdirsVdirsVdirsVdirsVdirsVdirsVdirsVdirsVfnH/wA54/72+Wv+MN7/AMSixV+f+KuxV2Koqx/3ph/4yJ+sYq/oSxV2KuxV2KuxV2KvPPze/wCUE80f9sTUv+oZ8VfhNirsVdirsVdiraqWIVRUnYAYq+8vyP8A+cQZdZSHzT+aqyW9mwDw6YpKSuDuDMw3QH+QfH4lOhVforo2iaf5ds49I0G1hs7KEUSGBAiD6B3Pc9T3xVMcWLsVdirsVdirE/OfkbRPzA059B82Wcd3avUryFHjalOUbDdWHiD7HbbFX5G/nr+ROo/k5qKurNd+X7tiLS7I3B6+lLTYOB9Dj4lpRlVTbwTFLsVdirsVfqx/zhh50bX/ACdP5Xun5XGi3JRQTU+hPV4/ub1APYDFiX2DirsVdirsVdirsVfl9/znL/yluk/9sof8n5MUh8T4pdirsVfcX/OC/wDykutf9s5f+Ty4oL9N8UOxV2KuxV2KuxV8gf8AObP/ACgNt/217f8A5MzYqH5S4snYq7FXtn/OOP8A5Mny7/zFH/k2+KC/a3FDsVdirsVdirsVdirsVdir+a3X7g3eqXt0TUy3Mz1/1nJzyzIbkT5v2npIcGOMe6IH2JRkHIdirsVdirsVdirsVdirsVdirsVdirsVdirsVdirsVfbX/OA9l9a/Mi4uD/x7aNdSD5mWFP+Ns33s7G8x8on7w+Z/wDBXy8HZ4HfkiPskf0P2SzuH5ydirsVdirsVdirsVdirsVdirsVdirsVdirsVdirsVdirsVdirsVdirsVYX+YHkDRfzN0O68nebrcXFhdL8njcfZkjb9l1O4P0GqkgwnATFFwe0uzsXaGI4cosH5g9CO4h+BP51/k7q/wCSfmSbyprgMtu1ZbK7C0S4gJ2YeDDo6/st4gqTpc2I4zRfnXt3sTJ2TmOKe45xl0lHv9/eOheRZW6Z2KuxV2KuxV2KuxV2KuxV2KuxV2KuxV2KuxV2KuxV2KuxVO/LN0bHWNPvR1hu4JP+BkBwxNFv0s+DJE9xB+1/TTnQP1Q7FXYq7FXYq7FXYq7FXYq7FXYq7FXYq7FXYq7FXYq7FXYq7FXYq7FX/9L7+Yq7FXYq7FXYq7FXYq7FXYq7FXYq7FXYq7FXYq7FXYq7FXYq7FXYq7FXYq7FXYq7FXYq7FXYq7FXYq7FXYq7FXYq/Iv/AJzH/wDJjz/8wVr/AMROKvlfFXYq7FXtP/OOv/kyPLn/ADGf8aNir9s8VdirsVdirsVdirsVfi//AM5Qf+TP8wf8ZLf/AKhosVeB4q7FXYq+jP8AnE7/AMmjon+re/8AUJLir9kMVdirsVdirsVdirsVdirsVdirsVdirsVdirsVdirsVfnH/wA54/72+Wv+MN7/AMSixV+f+KuxV2Koqx/3ph/4yJ+sYq/oSxV2KuxV2KuxV2KvPPze/wCUE80f9sTUv+oZ8VfhNirsVdirsVdir9E/+cR/yGhaGH82PN8Ad2PLSreRdlAP+9DA9ST/AHfh9vuhCr9CcVdiqzFi7FXYq7FXYq7FWJeevJmnfmDod55S11OVrdxleVAWjcbpItejKaEfcdq4q/DLzV5bvPJ+sXvlfV143ljO8ElOhKmgYezDcHuCMWSQYq7FXYq+xP8AnCjzA2m+drnQmakOpWEg4+MkLB1P0Lz+/FBfqrih2KuxV2KuxV2Kvy+/5zl/5S3Sf+2UP+T8mKQ+J8UuxV2KvuL/AJwX/wCUl1r/ALZy/wDJ5cUF+m+KHYq7FXYq7FXYq+QP+c2f+UBtv+2vb/8AJmbFQ/KXFk7FXYq9s/5xx/8AJk+Xf+Yo/wDJt8UF+1uKHYq7FXYq7FXYq7FXYq7FX8zUr+o7P4sT95zyov2zEUKU8DJ2KuxV2KuxV2KuxV2KuxV2KuxV2KuxV2KuxV2KuxVM9G1rUPLt5DrOg3U1nfwNzingco6H2ZaHJ48hxniiaLRqdNj1MDjyREonmCLB+Bfo7+S//Od7xejoH5zQl12RdWtU+Ie88Kjf3aMV/wCKz1zp9D7Q/wAOb/TD9I/V8nxz2k/4FYN5dAf+Scj/ALiR+6X+mfpJoPmDTPNNjDrnly7hvdPnXlHPA4dGHzHcdx1B2O+dTjyRyDiibHk+MavSZNJM48sTGQ5giinGTcd2KuxV2KuxV3Tc4qx+982aJptRqOp2VuR19W4jSn/BMMrlmjHmR83Lx6DNl+iEj7ok/oSGT81vJMW0vmXRl/1tQtx/xvlR1mIfxR+Ycsdg6w8sOT/SS/Uqx/mf5Om/uvMOkN/q39uf+N8I1eM/xR+YYnsTVjniyf6SX6mQ2PmHStUp+jL61uK9PRmR/wDiJOWxyxlyIPxcPLo8uL64yHvBH3pxk3HdirsVdirsVdirsVdirsVdirsVdirwr/nIT8lbH87/ACrP5fmCR6vbBp9MuWG8U4H2SevCT7Lj5NTkq5TnxeIKef8AaTsKPa+A4ztIbwPdL9R5H59A/n91bSrvQr240XV4Xt760leCeFxRkkQlWUjxBGaQiti/OWbDLDIwmKIJBHcRzS/FrdirsVdirsVdirsVdirsVdirsVdirsVdirsVdirsVdiqvbSelNHL/K6t9xxZQNEF/T7nQv1a7FXYq7FXYq7FXYq7FXYq7FXYq7FXYq7FXYq7FXYq7FXYq7FXYq7FX//T+/mKuxV2KuxV2KuxV2KuxV2KuxV2KuxV2KuxV2KuxV2KuxV2KuxV2KuxV2KuxV2KuxV2KuxV2KuxV2KuxV2KuxV2KvyL/wCcx/8AyY8//MFa/wDETir5XxV2KuxV7T/zjr/5Mjy5/wAxn/GjYq/bPFXYq7FXYq7FXYq7FX4v/wDOUH/kz/MH/GS3/wCoaLFXgeKuxV2Kvoz/AJxO/wDJo6J/q3v/AFCS4q/ZDFXYq7FXYq7FXYq7FXYq7FXYq7FXYq7FXYq7FXYq7FX5x/8AOeP+9vlr/jDe/wDEosVfn/irsVdiqKsf96Yf+MifrGKv6EsVdirsVdirsVdirzz83v8AlBPNH/bE1L/qGfFX4TYq7FXYq7FXo/5SeRJPzJ82aZ5RTkILiblcsv7MEY5yGvY8QQP8ojFX7mWdnBp9vFYWMaxW0CLFFGgoqogoqgdgAKDFUTirsVWYsXYq7FXYq7FXYq7FX5Z/85s+VU0nzfZeZ4FCpq1mBIQPtTWx4Mf+AMY+jFIfGWKXYq7FXu//ADjNeGx/Mzy/MDTlNNEf+ekEifxxQX7RYodirsVdirsVdir8vv8AnOX/AJS3Sf8AtlD/AJPyYpD4nxS7FXYq+4v+cF/+Ul1r/tnL/wAnlxQX6b4odirsVdirsVdir5A/5zZ/5QG2/wC2vb/8mZsVD8pcWTsVdir2z/nHH/yZPl3/AJij/wAm3xQX7W4odirsVdirsVdirsVdirsVfzNzp6cjx/ysR9xzyov2zE2LUsDJ2KuxV2KuxV2KuxV2KuxV2KuxV2KuxV2KuxV2KuxV2KuxV6X+Wv5veavylvv0p5Jv3t1YgzWz/HbzAdpIzsdtuQow/ZYZl6XW5NMbgfh0PwdL217PabtiHBqIg90uUo/1Zc/hyPUF+o35W/8AOcPk3zVZmP8AMA/4f1WFOT8leW3lp1MTICwPfgwr2DPnW6Tt/HkH7z0n7Pg+G9u/8DDV6Sd6X97AnblGcf6wJA/zgfeAq+ZP+c8fy50gtHokeo6s4+y0FuIoz8zMyMP+AOOX2hwx+mz8P1/qY6L/AIFfaGbfIYY/fLiP+wEh/snhmvf8/ENRkLJ5Y8tW8I/Ze8unlr7lI1jp8uR+eYGT2mP8MR8T/Y9RpP8AgQYx/fZifKMRH7SZfc8c1r/nOP8ANLVOX1G5sNNB6C1s0any9cy5g5PaDPLkQPcP129Hpv8AgX9m4vqE5/1pn/ecDyjWP+cjPzN1yv17zTqahuot5zbj7oeAzDn2nnnzmfga+532n9juzsH04If5w4/91xPMdT8zaxrZLazqF3dlupuJ5JK/PkTmJPLKfMk+8u7waLFg/u4Rj7gB9wSTK3KdirsVdirKdG88+ZPLlP8AD+sahY8en1W6lip/wDDLoaieP6ZEe4kODqey9Pqf73HCX9aMZfeHs3lv/nLT81PLRURa/LeQjrHfRx3Ab5u6+p9zjM7F2znx/wAV+/f9rzet9gOzNVzxCJ74Ex+wHh+x9NeS/wDn4XdRlLf8wtBjlT9q40yQow/54ylgT/z1XNrg9pT/AJSPxH6j+t4ntL/gRRO+lykf0cgv/ZRqv9KX2z+XH/OQvkP80+Fv5W1aMag4/wB4br9xcV8Aj/bp39MuPfN9pe0sWp+k79x2P49z5n2z7I63snfNA8P8+Pqh8xy/zqe1ZnvNOxV2KuxV2KuxV2KuxV2Kvyg/5z9/JtdMvbX849DipBfMtpqgUbCZV/dSn/XUcGPSqr3fNbrcVeofF8f/AOCL2H4chrIDaXpn/W/hl8RsfcO9+a+YD5c7FXYq7FXYq7FXYq7FXYq7FXYq7FXYq7FXYq7FXYq7FVSFPUkSP+ZgPvOKYiy/qAzoX6udirsVdirsVdirsVdirsVdirsVdirsVdirsVdirsVdirsVdirsVdir/9T7+Yq7FXYq7FXYq7FXYq7FXYq7FXYq7FXYq7FXYq7FXYq7FXYq7FXYq7FXYq7FXYq7FXYq7FXYq7FXYq7FXYq7FXYq/Iv/AJzH/wDJjz/8wVr/AMROKvlfFXYq7FXtP/OOv/kyPLn/ADGf8aNir9s8VdirsVdirsVdirsVfi//AM5Qf+TP8wf8ZLf/AKhosVeB4q7FXYq+jP8AnE7/AMmjon+re/8AUJLir9kMVdirsVdirsVdirsVdirsVdirsVdirsVdirsVdirsVfnH/wA54/72+Wv+MN7/AMSixV+f+KuxV2Koqx/3ph/4yJ+sYq/oSxV2KuxV2KuxV2KvPPze/wCUE80f9sTUv+oZ8VfhNirsVdirsVfoL/zgt5SWSfW/PE61Max6fA3u37yX8BH95xV+i+KuxV2KrMWLsVdirsVdirsVdir4f/5zn0pZvLOja1Sr2+otAD4CeFmP4xDFIfmNil2KuxV6l+SM/wBX/MDy1J0rqton/ByBf44qX7j4sXYq7FXYq7FXYq/L7/nOX/lLdJ/7ZQ/5PyYpD4nxS7FXYq+4v+cF/wDlJda/7Zy/8nlxQX6b4odirsVdirsVdir5A/5zZ/5QG2/7a9v/AMmZsVD8pcWTsVdir2z/AJxx/wDJk+Xf+Yo/8m3xQX7W4odirsVdirsVdirsVdirsVfzXeYbb6nqt9Z/76upo/8AgXIzy3KKkR5l+0tHPjxRl3xB+xJ8rcl2KuxV2KuxV2KuxV2KuxV2KuxV2KuxV2KuxV2KuxV2KuxV2KuxV2KuxV2KuxV2KuxV2KuxV2KuxV2KuxVcrMjB0JDA1BGxBGKCLfZX5L/85m+avy9eLR/Ojya/oAopEz1u4V8Y5W3cD+SQnwVkGb3Q9uZMG0/UPtHx/W+ce0n/AAN9L2iDk09YsnkPRL+tEcvfH3kSfrX5C/MLQPzM0mPzP5MvEu7KT4Wps8b0qUkQ7qw8D8xUEHOy0+phqI8UDY/HN8A7W7Iz9l5Th1ETGQ+RHfE9R+ObNcvda7FXYq7FXYq7FXYqwf8AMryPafmT5X1TyPqlBDqNs8IcivpydY5APFHCsPlkMkOMU4Hamgjr8E8EuUhXuPQ/A0X84OsaVdaDf3Wh6ohivLOeS3njPVZImKsPoIIzQkVs/MObDLDMwlsYkg+8bFLsWt2KuxV2KuxV2KuxV2KuxV2KuxV2KuxV2KuxV2KuxVOfLtubvVbC0AqZbqFKf6zgYY827TR4skR3kfe/przoH6pdirsVdirsVdirsVdirsVdirsVdirsVdirsVdirsVdirsVdirsVdir/9X7+Yq7FXYq7FXYq7FXYq7FXYq7FXYq7FXYq7FXYq7FXYq7FXYq7FXYq7FXYq7FXYq7FXYq7FXYq7FXYq7FXYq7FXYq/Iv/AJzH/wDJjz/8wVr/AMROKvlfFXYq7FXtP/OOv/kyPLn/ADGf8aNir9s8VdirsVdirsVdirsVfi//AM5Qf+TP8wf8ZLf/AKhosVeB4q7FXYq+jP8AnE7/AMmjon+re/8AUJLir9kMVdirsVdirsVdirsVdirsVdirsVdirsVdirsVdirsVfnH/wA54/72+Wv+MN7/AMSixV+f+KuxV2Koqx/3ph/4yJ+sYq/oSxV2KuxV2KuxV2KvPPze/wCUE80f9sTUv+oZ8VfhNirsVdirsVfsF/ziJog0j8trC648ZNQuLq7fxP7wxKfpWNfoxV9NYq7FXYqsxYuxV2KuxV2KuxV2KvlX/nMi1Fx+XMspH9xfWsg+klP+NsVD8kMWTsVdirP/AMqG4ed/LTjtrOnn7rhMVfu1ixdirsVdirsVdir8vv8AnOX/AJS3Sf8AtlD/AJPyYpD4nxS7FXYq+4v+cF/+Ul1r/tnL/wAnlxQX6b4odirsVdirsVdir5A/5zZ/5QG2/wC2vb/8mZsVD8pcWTsVdir2z/nHH/yZPl3/AJij/wAm3xQX7W4odirsVdirsVdirsVdirsVfzq/mvYfovzt5k02lPQ1i/jHyW4cDPMtZHhyyH9I/e/YvYGXxdHhn344H5xDAMxnbOxV2KuxV2KuxV2KuxV2KuxV2KuxV2KuxV2KuxV2KuxV2KuxV2KuxV2KuxV2KuxV2KuxV2KuxV2KuxV2KuxV2KvUvyk/N3Xvyb1uPzJ5XlrG1FurRyfRuYgd0ceI/ZYbqencHM0WtnpZcUfiOhdF7Qez2DtrCcWYf1ZD6oHvH6RyL92/yy/MjR/zW8v2vnLyxJytpxxkianqQyr9uKQDoy1+RFGFVIOeg6TVR1MBOP8AYe5+We2+xsvZGeWnzDccj0lHpIeR+w7HcM/zJdS7FXYq7FXYq7FXYq/EH/nOXyIPKP5kza1apxs9et475aDYTD93MPmWUOf9fNRrIcMr73wX2/7P/La0zHLIBL48pfaL+L42zFeIdirsVdirsVdirsVdirsVdirsVdirsVdirsVdirsVegflNYnU/PHlrTgK+vrOnxf8FcIMniFyHvdj2Pj8TVYo984D/ZB/SJm+fp52KuxV2KuxV2KuxV2KuxV2KuxV2KuxV2KuxV2KuxV2KuxV2KuxV2Kv/9b7+Yq7FXYq7FXYq7FXYq7FXYq7FXYq7FXYq7FXYq7FXYq7FXYq7FXYq7FXYq7FXYq7FXYq7FXYq7FXYq7FXYq7FXYq/Iv/AJzH/wDJjz/8wVr/AMROKvlfFXYq7FXtP/OOv/kyPLn/ADGf8aNir9s8VdirsVdirsVdirsVfi//AM5Qf+TP8wf8ZLf/AKhosVeB4q7FXYq+jP8AnE7/AMmjon+re/8AUJLir9kMVdirsVdirsVdirsVdirsVdirsVdirsVdirsVdirsVfnH/wA54/72+Wv+MN7/AMSixV+f+KuxV2Koqx/3ph/4yJ+sYq/oSxV2KuxV2KuxV2KvPPze/wCUE80f9sTUv+oZ8VfhNirsVdirsVfuZ+SdiNO8geWrYCldKtJCPeWMOfxbFXqGKuxV2KrMWLsVdirsVdirsVdir5o/5y5Xl+WWpn+WezP/ACXQYqH4+4snYq7FWc/leSvnLy6w6jV7A/8ATwmKv3gxYuxV2KuxV2KuxV+X3/Ocv/KW6T/2yh/yfkxSHxPil2KuxV9xf84L/wDKS61/2zl/5PLigv03xQ7FXYq7FXYq7FXyB/zmz/ygNt/217f/AJMzYqH5S4snYq7FXtn/ADjj/wCTJ8u/8xR/5Nvigv2txQ7FXYq7FXYq7FXYq7FXYq/A/wD5ye0s6P8Amn5ntCKc736x/wBJEazf8b5512tDhzzHnfz3frD2Hz+N2Zhl/R4f9KTH9DwbNc9W7FXYq7FXYq7FXYq7FXYq7FXYq7FXYq7FXYq7FXYq7FXYq7FXYq7FXYq7FXYq7FXYq7FXYq7FXYq7FXYq7FXYq7FX1T/ziZ+dcn5UebYtN1WYr5b1l0trxWPwRSE0in9uJNHP8hJ3Krm47G1/5bJR+mWx/Qfx0eE9v/Zodr6UzgP3mO5R75D+KHx5j+kB3l+4ed8/MLsVdirsVdirsVdir88v+fiPlRb/AMp6L5xjWs2m6g1sxHaK6jJJPsHiUf7LMHXRsAvmv/BL0fHp4ZhzjKvhIfriPm/IXNY+MOxV2KuxV2KuxV2KuxV2KuxV2KuxV2KuxV2KuxV2KvfP+cXNL/TH5reVrQCvC/Fx/wBI6NN/xpl2nFzD0Psnh8XX4h/Sv/Sgy/Q/oIzdv0c7FXYq7FXYq7FXYq7FXYq7FXYq7FXYq7FXYq7FXYq7FXYq7FXYq7FX/9f7+Yq7FXYq7FXYq7FXYq7FXYq7FXYq7FXYq7FXYq7FXYq7FXYq7FXYq7FXYq7FXYq7FXYq7FXYq7FXYq7FXYq7FXYq/Iv/AJzH/wDJjz/8wVr/AMROKvlfFXYq7FXtP/OOv/kyPLn/ADGf8aNir9s8VdirsVdirsVdirsVfjD/AM5Rrx/NDzAP+LLY/faxHFXgOKuxV2Kvov8A5xPIH5paID3W9p/0hy4q/ZHFXYq7FXYq7FXYq7FXYq7FXYq7FXYq7FXYq7FXYq7FX5xf854EfXvLS9xDen/hosVfAGKuxV2Ko7TE9S8t4/5poxt7sMVf0HYq7FXYq7FXYq7FXnn5vf8AKCeaP+2JqX/UM+KvwmxV2KuxV2Kv3z8iwi28t6Pbr0j060QfRCoxVlOKuxV2KrMWLsVdirsVdirsVdir5q/5y3/8llqn/Gaz/wCohMVD8e8WTsVdirOPyx/5THy9/wBtew/6iExV+8OLF2KuxV2KuxV2Kvy+/wCc5f8AlLdJ/wC2UP8Ak/JikPifFLsVdir7i/5wX/5SXWv+2cv/ACeXFBfpvih2KuxV2KuxV2KvkD/nNn/lAbb/ALa9v/yZmxUPylxZOxV2KvbP+ccf/Jk+Xf8AmKP/ACbfFBftbih2KuxV2KuxV2KuxV2KuxV+Lv8AznRop0z8zpL+lBqOnWlzXx4hoP8AmVnC+0GPhz33gH9H6H6U/wCBbqfF7NEf5k5R+dT/AN8+OM0b6O7FXYq7FXYq7FXYq7FXYq7FXYq7FXYq7FXYq7FXYq7FXYq7FXYq7FXYq7FXYq7FXYq7FXYq7FXYq7FXYq7FXYq7FXYq/eb/AJxb/MR/zJ/LvS9UvZPU1GxB068YmpMluAFYnxeMo592Oeh9kan8xhBPMbH4fsflX257HHZmvnCIqMvXH3S6e4S4gPIPobNm8g7FXYq7FXYq7FXzh/zlvoQ1/wDKbzJbhavb28V2p8Pq8ySMR/sVYfI5RqY3AvMe2Wn8bs/KO4CX+lIP3AvwHzSvzq7FXYq7FXYq7FXYq7FXYq7FXYq7FXYq7FXYq7FXYq+zf+cDtF/Sn5pw31K/o3Try6r4cgsH/M3MrRi5vb/8D7B4mvEv5sZH/e/75+2+bd94dirsVdirsVdirsVdirsVdirsVdirsVdirsVdirsVdirsVdirsVdir//Q+/mKuxV2KuxV2KuxV2KuxV2KuxV2KuxV2KuxV2KuxV2KuxV2KuxV2KuxV2KuxV2KuxV2KuxV2KuxV2KuxV2KuxV2KvyL/wCcx/8AyY8//MFa/wDETir5XxV2KuxV7T/zjr/5Mjy5/wAxn/GjYq/bPFXYq7FXYq7FXYq7FX41f85WRlPzS16vRvqRH/SHDir54xV2KuxV9Bf84sS+l+aOgMe7Xa/8FaSj+OKv2axV2KuxV2KuxV2KuxV2KuxV2KuxV2KuxV2KuxV2KuxV+a3/ADnbNy1jy/B3W0uW/wCCkUfwxV8GYq7FXYqnHl2MzarYwr1a6hUfS4GKv6BMVdirsVdirsVdirzz83v+UE80f9sTUv8AqGfFX4TYq7FXYq7FX7/eVf8Aji6b/wAwdv8A8m1xVPsVdirsVWYsXYq7FXYq7FXYq7FXzV/zlv8A+Sy1T/jNZ/8AUQmKh+PeLJ2KuxVnH5Y/8pj5e/7a9h/1EJir94cWLsVdirsVdirsVfl9/wA5y/8AKW6T/wBsof8AJ+TFIfE+KXYq7FX3F/zgv/ykutf9s5f+Ty4oL9N8UOxV2KuxV2KuxV8gf85s/wDKA23/AG17f/kzNioflLiydirsVe2f844/+TJ8u/8AMUf+Tb4oL9rcUOxV2KuxV2KuxV2KuxV2Kvy+/wCfiGgFLvyz5oQbSRXdnI3hwZJEH083+7OS9pse8Ze8PuP/AAHtXcc2E9DGQ+Ng/dF+a+cs+1OxV2KuxV2KuxV2KuxV2KuxV2KuxV2KuxV2KuxV2KuxV2KuxV2KuxV2KuxV2KuxV2KuxV2KuxV2KuxV2KuxV2KuxV2Kv0p/594+aWS88xeSpWqskUGoRL4FGMUp+nnH92dT7NZt5Q9x/Qf0Pi//AAX9DcMOoHQygfiOKP3SfqHnWvhzsVdirsVdirsVef8A5sacNX8keZNLYVFxo+oRfS1u4GQyi4n3Ou7YxeLpcse+Ex/sS/m4zQvy+7FXYq7FXYq7FXYq7FXYq7FXYq7FXYq7FXYq7FXYq/TL/n3H5fMl95n80utBFDaWUbePqM8jj6OCffmfoI8y+p/8DLTXLLl7hGI+Nk/cH6pZsn1x2KuxV2KuxV2KuxV2KuxV2KuxV2KuxV2KuxV2KuxV2KuxV2KuxV2Kv//R+/mKuxV2KuxV2KuxV2KuxV2KuxV2KuxV2KuxV2KuxV2KuxV2KuxV2KuxV2KuxV2KuxV2KuxV2KuxV2KuxV2KuxV2KvyL/wCcx/8AyY8//MFa/wDETir5XxV2KuxV7T/zjr/5Mjy5/wAxn/GjYq/bPFXYq7FXYq7FXYq7FX5B/wDOYFv6P5lXslP761tH+6IL/wAa4q+X8VdirsVe1f8AOOl0LP8AMny7Ke936f8AyMjZP44q/bLFXYq7FXYq7FXYq7FXYq7FXYq7FXYq7FXYq7FXYq7FX5b/APOcl56vnLTLEf7p0lHPzknl/goxV8V4q7FXYqy78v4PrXmjRLalfU1OzSn+tMoxV+92KuxV2KuxV2KuxV55+b3/ACgnmj/tial/1DPir8JsVdirsVdir9/vKv8AxxdN/wCYO3/5NriqfYq7FXYqsxYuxV2KuxV2KuxV2Kvmr/nLf/yWWqf8ZrP/AKiExUPx7xZOxV2Ks4/LH/lMfL3/AG17D/qITFX7w4sXYq7FXYq7FXYq/L7/AJzl/wCUt0n/ALZQ/wCT8mKQ+J8UuxV2KvuL/nBf/lJda/7Zy/8AJ5cUF+m+KHYq7FXYq7FXYq+QP+c2f+UBtv8Atr2//JmbFQ/KXFk7FXYq9s/5xx/8mT5d/wCYo/8AJt8UF+1uKHYq7FXYq7FXYq7FXYq7FXxr/wA50+WjrX5atq0a1fSNQtrokdeElYCPlWRSflmj9oMXHgvuIP6P0vpH/As1vgdo8B/ykJR+Iqf+9L8YM4V+k3Yq7FXYq7FXYq7FXYq7FXYq7FXYq7FXYq7FXYq7FXYq7FXYq7FXYq7FXYq7FXYq7FXYq7FXYq7FXYq7FXYq7FXYq7FX2B/zg3qh0/8ANK2tFNBfWF5bn3CoJv1x5u/Z+fDnA7wR+n9D55/wUMHidmyl/NnA/bw/75+1md2/NLsVdirsVdirsVSbzHEJ9Jv4GFQ9rOpHzQjBLk0aqPFjkPI/c/mRzn35VdirsVdirsVdirsVdirsVdirsVdirsVdirsVdirsVftZ/wA4E+WTov5Z/pqRaPq+o3NyrdzHFxgA+QaNz9ObXRRqN977p/wPNL4Wi4/58ifgPT98S+2MzHu3Yq7FXYq7FXYq7FXYq7FXYq7FXYq7FXYq7FXYq7FXYq7FXYq7FXYq/wD/0vv5irsVdirsVdirsVdirsVdirsVdirsVdirsVdirsVdirsVdirsVdirsVdirsVdirsVdirsVdirsVdirsVdirsVdir8i/8AnMf/AMmPP/zBWv8AxE4q+V8VdirsVe0/846/+TI8uf8AMZ/xo2Kv2zxV2KuxV2KuxV2KuxV+VH/Obll9X892d0B8NxpMDV/ylmlU/gBir46xV2KuxVnv5V6h+i/Ofl7UK0EWq2TN/q+svL8K4q/d/FXYq7FXYq7FXYq7FXYq7FXYq7FXYq7FXYq7FXYq7FX5Cf8AOYOpi/8AzJvLYGv1K1tLf5VjEv8AzMxV8vYq7FXYq9U/I6x/SP5geWrelaapay/8ipBJ/wAa4q/cjFXYq7FXYq7FXYq88/N7/lBPNH/bE1L/AKhnxV+E2KuxV2KuxV+/3lX/AI4um/8AMHb/APJtcVT7FXYq7FVmLF2KuxV2KuxV2KuxV81f85b/APkstU/4zWf/AFEJiofj3iydirsVZx+WP/KY+Xv+2vYf9RCYq/eHFi7FXYq7FXYq7FX5ff8AOcv/ACluk/8AbKH/ACfkxSHxPil2KuxV9xf84L/8pLrX/bOX/k8uKC/TfFDsVdirsVdirsVfIH/ObP8AygNt/wBte3/5MzYqH5S4snYq7FXtn/OOP/kyfLv/ADFH/k2+KC/a3FDsVdirsVdirsVdirsVdirz/wDNfyr/AI28m675UReUt9p9xFCP+LeBMR+hwpzG1mHxscod4Pz6O27A1/5DV4s/SM4k/wBW/V/sbfzrkU2PXPMn7FaxV2KuxV2KuxV2KuxV2KuxV2KuxV2KuxV2KuxV2KuxV2KuxV2KuxV2KuxV2KuxV2KuxV2KuxV2KuxV2KuxV2KuxV2Kvpj/AJw8cp+b3lwr3N8D9NjPm17E/wAYj8fuLxX/AARBfZWb/M/6aQfupnoL8tuxV2KuxV2KuxVKNfk9LS72X+W2mb7kOCXJp1JqEj5H7n8x+c+/KjsVdirsVdirsVdirsVdirsVdirsVdirsVdirsVdir+jz8nvKf8AgbyRoHlR14y2WnW6TD/i4oGl+9yxze4o8MQH6b7F0f5PS48XWMRfvq5fbb0jLHaOxV2KuxV2KuxV2KuxV2KuxV2KuxV2KuxV2KuxV2KuxV2KuxV2KuxV/9P7+Yq7FXYq7FXYq7FXYq7FXYq7FXYq7FXYq7FXYq7FXYq7FXYq7FXYqhrq8gsk9e9lSGMdWkYKPvOKsA1X84vI2ikrqXmLS0deqLdRu4/2KEt+GKvNdU/5y0/LPTarFqkl26/s29rMfuZ1VT9+KvNdU/5zm8qQVGj6RqVyR0M3owqfpDyH8MVfVP5eecF8/wDlzTvOMUH1Zb+H1fRL8+HxEEcqLXp4DFWZ4q7FXYq7FXYq7FXYq7FXYq/Ir/nMYg/mRcAdrK0H/CHFXyxirsVdir23/nHFOf5leXR1/wBKY/dG5xV+1+KuxV2KuxV2KuxV2Kvzf/5zv0307/y5rAH97BdwE/8AGNo2A/4c4q+A8VdirsVV7a4ks5o7u3PGWJ1dD4MpqD9+Kv6BtLv49VsrbVLfeK5hjmSn8rqGH4HFUfirsVdirsVdirsVdirsVdirsVdirsVdirsVdirsVfht+d2tjzD598xaopqh1CeJD4pC3pKfpCjFXlmKuxV2Kvo3/nFDTDqX5m6Q5FUtlurhv9jA6r/wzDFX7H4q7FXYq7FXYq7FXnn5vf8AKCeaP+2JqX/UM+KvwmxV2KuxV2Kv3+8q/wDHF03/AJg7f/k2uKp9irsVdiqzFi7FXYq7FXYq7FXYq+av+ct//JZap/xms/8AqITFQ/HvFk7FXYqzj8sf+Ux8vf8AbXsP+ohMVfvDixdirsVdirsVdir8vv8AnOX/AJS3Sf8AtlD/AJPyYpD4nxS7FXYq+4v+cF/+Ul1r/tnL/wAnlxQX6b4odirsVdirsVdir5A/5zZ/5QG2/wC2vb/8mZsVD8pcWTsVdir2z/nHH/yZPl3/AJij/wAm3xQX7W4odirsVdirsVdirsVdirsVdir+fb8/vJ58ifmF5g8uBOECXsk8A7CG4/fRgfJXA+YzzbtHB4OaUfPb3HcP1z7Jdo/yhoMWXmeEA/1o+mX2i3j+YT0TsVdirsVdirsVdirsVdirsVdirsVdirsVdirsVdirsVdirsVdirsVdirsVdirsVdirsVdirsVdirsVdirsVdirsVfU/8AzhfaG5/NvRZgKi3ivpT7A2kifrbNv2FG9RH4/cXhP+CTk4ey8g7zAf7OJ/Q/cXO/fmF2KuxV2KuxV2KsK/Mm9Gm+Udf1Emgg0q+lJ8OEDt/DIZDUT7nB7Un4enyS7oSPyiX81uaF+XHYq7FXYq7FXYq7FXYq7FXYq7FXYq7FXYq7FXYq9e/ITyb/AI+/MLy95XdOcE19HLcLTrBB++lB+aIwyzDDikA7n2d0P53V48XQyBP9WPql9gf0TZvX6WdirsVdirsVdirsVdirsVdirsVdirsVdirsVdirsVdirsVdirsVdirsVf/U+/mKuxV2KuxV2KuxV2KuxV2KuxV2KuxV2KuxV2KuxV2KuxV2KuxV2Kvwm/Nueabzt5iFy7OU1e/QcmJoBcOABXsMVeeYq7FXYq/ZX/nFS++vflholTVofrULf7G5kp/wpGKvofFXYq7FXYq7FXYq7FXYq7FX48/85c3An/M7VIh1hhs0P026N/xtir5pxV2KuxV7/wD84uQfWPzQ0BPB7l/+BtZW/hir9ncVdirsVdirsVdirsVfF3/Ob+im88nafrUa1ay1JVY+CTRuCf8AglQYq/LTFXYq7FXYq/av/nG7zIvmf8udCuq1ktbf6jIO4NsTEK/NVU/I4q9xxV2KuxV2KuxV2KuxV2KuxV2KuxV2KuxV2KuxVjnnDzBF5U0PUvM1z/d2FpNckePpoWA+ZIoMVfgXNM9xI9xOxaSRizMepJNST88VUsVdirsVfbX/ADg3opuvNeq68wqlnp3oj2eeVSD/AMDG2Kv1CxV2KuxV2KuxV2KvPPze/wCUE80f9sTUv+oZ8VfhNirsVdirsVfv95V/44um/wDMHb/8m1xVPsVdirsVWYsXYq7FXYq7FXYq7FXzV/zlv/5LLVP+M1n/ANRCYqH494snYq7FWcflj/ymPl7/ALa9h/1EJir94cWLsVdirsVdirsVfl9/znL/AMpbpP8A2yh/yfkxSHxPil2KuxV9xf8AOC//ACkutf8AbOX/AJPLigv03xQ7FXYq7FXYq7FXyB/zmz/ygNt/217f/kzNioflLiydirsVe2f844/+TJ8u/wDMUf8Ak2+KC/a3FDsVdirsVdirsVdirsVdirsVflX/AM/BvJJtNY0X8wbZP3V7bvYXDAbCSA84yfdldgPaPOQ9pMFSjkHUUfh+PsfeP+BF2nx4cmlJ3iRMe6Wx+RA/0z86s5h9jdirsVdirsVdirsVdirsVdirsVdirsVdirsVdirsVdirsVdirsVdirsVdirsVdirsVdirsVdirsVdirsVdirsVdir7s/5wA0Nr7z3qOuMtYrDSpFB8JJpY1X71V86H2cx3lMu4feQ+Wf8FnVeHooY+ssg+UQSftMX7AZ2r88uxV2KuxV2KuxV4X/AM5M6uNE/KzzXeMeIfTZbavvc0gA+nnTKdQagXn/AGqzeDoMp/oEf6b0/pfz2ZpH5udirsVdirsVdirsVdirsVdirsVdirsVdirsVdir9G/+fd/kY32va1+YVylYdPtlsbckbercHk5HuqJQ+0mZ2hhZJfTP+BroOPLPUHlEcI98tz8gP9k/WnNm+xuxV2KuxV2KuxV2KuxV2KuxV2KuxV2KuxV2KuxV2KuxV2KuxV2KuxV2Kv8A/9X7+Yq7FXYq7FXYq7FXYq7FXYq7FXYq7FXYq7FXYq7FXYq7FXYq7FXYq/DL87LU2fn/AMzQnvq15J/yMlZ/44q8wxV2KuxV+q3/ADhLq4vfI93pbH47LU5VA/yJI0cH/guWKvsbFXYq7FXYq7FXYq7FXYq7FX4pf85I341H8yvMVwpqFulh+mGJIz93HFXiGKuxV2Kvqj/nDix+t/mPBcUr9Vsrqb5VUR/8b4q/XTFXYq7FXYq7FXYq7FXi/wDzkP5dPmf8u9f09FLSxWpu0p15WzCbb3IQj6cVfiXirsVdirsVfoZ/zg154VTq35d3b0ZiNRtQe+wjmA+6Mgf6xxV+iGKuxV2KuxV2KuxV2KuxV2KuxV2KuxV2KuxV2KvkH/nM3zsvl/yXH5Xgel3rdwsZAND6EBEkh/4Lgp8QxxV+UOKuxV2KuxV+on/OD3lw6f5V1PzJKvF9RvhGp/mjt0oD/wAG7j6MVfbGKuxV2KuxV2KuxV55+b3/ACgnmj/tial/1DPir8JsVdirsVdir9/vKv8AxxdN/wCYO3/5NriqfYq7FXYqsxYuxV2KuxV2KuxV2Kvmr/nLf/yWWqf8ZrP/AKiExUPx7xZOxV2Ks4/LH/lMfL3/AG17D/qITFX7w4sXYq7FXYq7FXYq/L7/AJzl/wCUt0n/ALZQ/wCT8mKQ+J8UuxV2KvuL/nBf/lJda/7Zy/8AJ5cUF+m+KHYq7FXYq7FXYq+QP+c2f+UBtv8Atr2//JmbFQ/KXFk7FXYq9s/5xx/8mT5d/wCYo/8AJt8UF+1uKHYq7FXYq7FXYq7FXYq7FXYq+d/+cqPIR/MD8t9XsbdOd9YINStR1PO2qzADuWiLqPds1na+n8fCQOY3Hw/Zb2HsH2t/J3aOORNRl6Je6ew+UuE/B+D2eeP1W7FXYq7FXYq7FXYq7FXYq7FXYq7FXYq7FXYq7FXYq7FXYq7FXYq7FXYq7FXYq7FXYq7FXYq7FXYq7FXYq7FXYq7FX65/8+//ACa2k+UdU853CcZNYvRFESOsNoCoI/56PIP9jnaezmDhxmf84/YP22/Pv/BZ7R8bVQ04/wAnGz/Wn/x0R+b75zonyh2KuxV2KuxV2Kvif/nPjzGNH/LL9Dg/Hq2pWtvx8Ui5Tk/IGNfvGYmtlUK73hP+CJqvC0PB/PlEfAXL/eh+KGal8JdirsVdirsVdirsVdirsVdirsVdirsVdirsVdir97v+cSPy/wD+VfflnpNtcJwvtTU6pc1FDyuQCgI7FYhGpHiDm500OGA+b9DexvZ35LRQB5y9Z/zuX+xoPpbMh6l2KuxV2KuxV2KuxV2KuxV2KuxV2KuxV2KuxV2KuxV2KuxV2KuxV2KuxV//1vv5irsVdirsVdirsVdirsVdirsVdirsVdirsVdirsVdirsVdirsVdir8ZP+co9NOmfmbrikUSZ7edT4iSBCf+GqMVfP2KuxV2Kvuz/nBjzKLTW9a8pytQXtrFdRg9OVu5VgPciSvyX2xV+mGKuxV2KuxV2KuxV2KuxVa7rGpkkICqCST0AGKvwJ8461/iTX9U8wgki/vrm6FfCWRnH68VY3irsVdir7p/5wV0j1/MGua7Ta2sYravh68vL/AJlYq/TPFXYq7FXYq7FXYq7FVG4t47uJ7W4UPFKrI6noVYUI+kYq/BHzt5al8na/qfla5rzsLua3BPVlRiFb/ZLQj54qxfFXYq7FWYeQfOV5+X3mCw84aVvPZTBylaCRD8LoT4OpK/TXFX7m+VvM1h5x0mz8z6FIJbG9iWWJu9D1UjsymqsOxBGKp/irsVdirsVdirsVdirsVdirsVdirsVdirTMFBZjQDck4q/F7/nI78zV/M7zlc31hJz0iwH1OyIPwsiE8pB/xkYkg/y8QemKvBcVdirsVdir90Pyb8pHyN5K0Xy1IvCeC0R518JpaySj6HYjFXpmKuxV2KuxV2KuxV55+b3/ACgnmj/tial/1DPir8JsVdirsVdir9/vKv8AxxdN/wCYO3/5NriqfYq7FXYqsxYuxV2KuxV2KuxV2Kvmr/nLf/yWWqf8ZrP/AKiExUPx7xZOxV2Ks4/LH/lMfL3/AG17D/qITFX7w4sXYq7FXYq7FXYq/L7/AJzl/wCUt0n/ALZQ/wCT8mKQ+J8UuxV2KvuL/nBf/lJda/7Zy/8AJ5cUF+m+KHYq7FXYq7FXYq+QP+c2f+UBtv8Atr2//JmbFQ/KXFk7FXYq9s/5xy/8mT5d/wCYo/8AJtsUF+1uKHYq7FXYq7FXYq7FXYq7FXYq0yhwUcAqRQg9CMCg0/ny/PT8vm/LDzxrHlFUKWkVwZrPwNtN8cVD3op4n/KU55v2hpvy+WUOl7e48n669lu1x2rosefqRUv68dpfM7+4h5JmE9C7FXYq7FXYq7FXYq7FXYq7FXYq7FXYq7FXYq7FXYq7FXYq7FXYq7FXYq7FXYq7FXYq7FXYq7FXYq7FXYq7FU20HRLzzLqVp5e0aMzX19PHbwRj9qSRgqj7z17ZPHjOSQiOZ2cfVamGlxyy5DUYgyJ8gLL+iT8vPJtr+XvlrS/JWnUMOnWscHKlObgVdyPF3JY+5z0zTYBggIDoH4/7X7Rl2jqJ6ifOcifcOg+AofBmWXuudirsVdirsVdir8mP+fivm8Xeu6B5Ggeq2NpLfTAH9u4fggPuFiJHs/vmt10twHx3/gma3iy48A/hBkffI0Psj9r838wHzB2KuxV2KuxV2KuxV2KuxV2KuxV2KuxV2KuxV6x+Rv5eP+aXnjRvJnEta3Fysl2R2tov3kxr2qilR/lEZZhhxyAdx2B2b/KOqhh6E+r+qN5fZt739FMcaxKsUShUUBVUCgAHQAZvH6WArYL8KXYq7FXYq7FXYq7FXYq7FXYq7FXYq7FXYq7FXYq7FXYq7FXYq7FXYq7FX//X+/mKuxV2KuxV2KuxV2KuxV2KuxV2KuxV2KuxV2KuxV2KuxV2KuxV2Kvy7/5zi0A2XmvTPMKikV/p/pE+MlvIeR/4GRMVfE+KuxV2KvR/yj87H8u/N+lebWJEFtcBbgCu8EgKS7DqQjEgeIGKv3RhmjuI0uIGDxSKGRlNQVIqCD4EYqqYq7FXYq7FXYq7FXYq8K/5yO8+J5B8ialeI/G+vozYWgBoxknBUsP9ROT/ADA8cVfixirsVdirsVfqZ/zhD5ebTvKF/wCYJVo2pX5VD4xwIFB/4NnGKvtDFXYq7FXYq7FXYq7FXYq/Ln/nNfyIdG8zWnnm1Slrq8IjmYDYXFuAu5/yo+FPHi2KvinFXYq7FXYq+sP+cZvz/P5YXp8reaJGbyxeyVLbk2sp29QD+Rv2wP8AWG4IZV+sttcw3sMd5ZyLLBKoeORGDKysKggjYgjoRiqvirsVdirsVdirsVdirsVdirsVdirsVfDf/OV35/Q6DZz/AJY+UJw2rXSGPUJ42r9XibrECP8AdjjZv5V/ymFFX5j4q7FXYq7FXtn/ADj15DP5heetM0qVOdjayfXrvao9GAhqH2duKf7LFX7YYq7FXYq7FXYq7FXYq88/N7/lBPNH/bE1L/qGfFX4TYq7FXYq7FX7/eVf+OLpv/MHb/8AJtcVT7FXYq7FVmLF2KuxV2KuxV2KuxV81f8AOW//AJLLVP8AjNZ/9RCYqH494snYq7FWcflj/wApj5e/7a9h/wBRCYq/eHFi7FXYq7FXYq7FX5ff85y/8pbpP/bKH/J+TFIfE+KXYq7FX3F/zgv/AMpLrX/bOX/k8uKC/TfFDsVdirsVdirsVfI//OaaFvy+jYfs6pbE/wDASD+OKh+T2LJ2KuxV7H/zj7MIPzG8uO3Q3yL9LAqP14oL9tsUOxV2KuxV2KuxV2KuxV2KuxV2Kvzq/wCc/fy1Oo6Xpv5pafHWXT2+o3xA39CVqxMfZJCV+cgzmPaPS8URlHTY+7p9v3vsX/Al7a8PLPRSO0/XD+tEeofGNH/NflXnIPvLsVdirsVdirsVdirsVdirsVdirsVdirsVdirsVdirsVdirsVdirsVdirsVdirsVdirsVdirsVdirsVdirsVfpn/zgx+RkgkP50eZoeKAPDo8bjrWqyXHypVE8auf5TnV+z/Z/+Wl/m/pP6A+J/wDBR9qBX8n4T3HIR84w/wB9L/NHe/TnOrfEnYq7FXYq7FXYq0TTc9MVfzt/n959H5lfmBrvm2B/UtJrpobU9jbwARREeHJVDfMnNHnnxyJfmj2j7R/P6vJlHImo/wBWPpHzAt47lTpXYq7FXYq7FXYq7FXYq7FXYq7FXYq7FXYq7FX6tf8APvb8sTZafqf5sajHSS9J06wJG/oxsGmcezOFX5xt45sdDjocT69/wN+yuCEtVIfV6Y+4fUfiaH+aX6VZsH1F2KuxV2KuxV2KuxV2KuxV2KuxV2KuxV2KuxV2KuxV2KuxV2KuxV2KuxV2Kv8A/9D7+Yq7FXYq7FXYq7FXYq7FXYq7FXYq7FXYq7FXYq7FXYq7FXYq7FXYq+Qv+c0PKJ13yRF5it15T6NdpKxpU+jN+7cD/ZFCfZcVflBirsVdirsVfp7/AM4jfnfBr+mxflf5kmC6tYpxsHc09e3UbRg/zxDYDvHSn2WOKvt/FXYq7FXYq7FXYqgtS1K10e1m1XVZkt7O3RpJZZWCoiKKkknoBir8cP8AnIf85pPze18S6eXTQNP5RWMbbFqn45mHZnoKDsoUda1VfP8AirsVdirYBYhVFSdgBir91Pyi8o/4E8m6N5WkULPbWiGcD/f0n7yX/h2bFXo+KuxV2KuxV2KuxV2KuxV5D+ef5cL+aPk++8txKDqCAXNix7XEQJUV7BwShPYMTir8RpoZLaR7e4VkljYo6MKFWBoQQehBxVSxV2KuxV2Kvpj8j/8AnJTWfynZNE1NX1Ly0W3ti37yCp3aBjsPEofhJ6cSS2Kv1J8h/mV5c/MqyGqeUL6O5UAGSKvGaIntJGfiX59D+ySMVZ3irsVdirsVdirsVdirsVdiqXarq9joVrJqutXMVpZwjlJNO4RFHuzEDFX5/fnZ/wA5iLPHN5Z/KUsA1Ul1V1Kmnf6up3H+uwBH7K9GxV+fM00lxI1xcMzyuxZ3YkszE1JJO5JPU4qp4q7FXYq7FX6yf84h/la3kryw3mzVY+Gq64ElAYbx2q/3S+xepc+xQHdcVfXGKuxV2KuxV2KuxV2KvPPze/5QTzR/2xNS/wCoZ8VfhNirsVdirsVfv95V/wCOLpv/ADB2/wDybXFU+xV2KuxVZixdirsVdirsVdirsVfNX/OW/wD5LLVP+M1n/wBRCYqH494snYq7FWcflj/ymPl7/tr2H/UQmKv3hxYuxV2KuxV2KuxV+X3/ADnL/wApbpP/AGyh/wAn5MUh8T4pdirsVfcX/OC//KS61/2zl/5PLigv03xQ7FXYq7FXYq7FXyz/AM5iwet+XFxJ/vq9tH+9iv8AxtiofkZiydirsVZn+XOsJ5e816Hrs7BIbTUrSaRj0CJKpav0VxV+82LF2KuxV2KuxV2KuxV2KuxV2KuxVjXnLyrZeeND1DyjrK8rPUbaS3k2qV5igYf5SmjL4EDKc+EZoGB5EU5vZuvnoM0M+PnCQkPh09x5Hyfzu+bvK995K1q/8p62nC+0+4kt5R2JQ05DxVhRlPcEHPNM2E4ZGEuYNP2F2froa7DHPj3jMCQ+PT3jkfNjuVOY7FXYq7FXYq7FXYq7FXYq7FXYq7FXYq+hv+cXPJej/mD+YNl5U822wu9Mura89SIsy7rAzKQykEEEAgg5s+yMEc+YQmLBB+55D257Sy9naCWbAeGUZQo7H+IA7HbcPof82f8AnAvWNHMur/lRd/pO0FW+oXTLHcqPBJNo5Pp9M9viObLWezso74jY7jz/AFH7HkOwP+CrizVDWx4D/PjZgfePqj8OIe58Fa75f1PyxeSaP5js7ixvovtwXMbRuPfiwBoex6HOeyYpYzUgQfN9W0urx6qAyYpCUT1iQR8wk+VuQ7FXYq7FXYq7FXYq7FXYq7FXYq7FXYq7FXYq7FX2N/zjH/zi7ffmzdxebfN0Ult5PgetTVXvWU/3cfcR12eQf6qfFUpvOyeyTqTxz2j/ALr3eXeXzr239uYdkQODAQcxHvGO+sv6X82PxO2x+ztnZwadbxafYRJDbQIsUUUahURFFFVQNgABQAZ3MYiIoPzdkySySMpEkk2SeZJ5konCwdirsVdirsVdir5r/wCcsPzOH5Yfl3qV5aycNU1NTptlQ/EHnUh3HhwjDMD/ADcR3zH1OTgi8t7Ydrfyfo5EfVL0R98uZ+EbPvp+BmaZ+d3Yq7FXYq7FXYq7FXYq7FXYq7FXYq7FXYq7FWQeU/LN95z1mw8p6InqX+o3EdtCO3KRqVPgo6sewBOGMeI0HJ0ellqskcUOciAPj+N39HPkbyhY+QPL+m+TNFFLPTbaO3Q0oWKj4nP+U7VZvcnN7CPCKD9Ndn6KOiwxww5RAH7fidyyvJuY7FXYq7FXYq7FXYq7FXYq7FXYq7FXYq7FXYq7FXYq7FXYq7FXYq7FXYq7FX//0fv5irsVdirsVdirsVdirsVdirsVdirsVdirsVdirsVdirsVdirsVdiqS+Y9CtfNGlXvlzU15Wl9byW8o78ZFKkj3Faj3xV+Dvmvy1eeTtZvvK+rLxu7Cd4H2oDxOzD2YUYeIIxVj+KuxV2Koi0u57CeO+sZHhuIXWSOSNiroymoZSNwQehGKv0S/J3/AJzKt5IotA/NkGOdQETVIkqr+80aiqn/ACkBB7qvXFX3VofmHS/M1qup+Xry3vrRuktvIsi/Kqk0Pt1xVOMVdirsVeK/mH/zkB5K/LdJE1fUEudQStLKzImmLeDAHin+zK4q/Mz85v8AnIbzB+b0hsZf9A0BG5R2MTEhiOjTNtzYdtgq9lruVXgGKuxV2KuxV9C/84yfl035g+d7P6zHy0zSyL+6JHwn0z+7Q9vjem3dQ3hir9l8VdirsVdirsVdirsVdirsVdir8xP+cwfyZby/qR/NDy/F/uM1BwL9EG0Ny3+7DTosvc/78rU/GBir4exV2KuxV2KuxVM9H1q/8v3Ueq6FdTWd5EapNBI0br8mUg4q+ufI/wDzmp5r0FUs/OFrBrVutB6v+89xT3ZQUNPdAT3bFX1L5a/5zG/L3W1VdVlu9JmNARdQM619mh9Tb3YLir2fSfzc8k65QaX5h0yV26J9biV/+AZg34YqzW31WyuxytbmGVfFJFYfgcVRZmjG5ZafMYql1zrum2Y5Xd5bxAdTJKi/rOKsN1P84fI2j1GoeYtLRl6oLuJ3/wCBVi34Yq8m8wf85fflxooYWV3c6nKu3C0tn6/603pr9IJxV86+cP8AnOXVbsPbeR9Ihs1OwuLxzM9PERrxVT8y4xV8gecvzE8yfmBcC984alPfOpJRJGpGlf5I1oi/7FRirDMVdirsVdirsVfS3/ONP5Kyfmnrw1TWIj/hrTHV7okfDNIN1gB716v4JtsWXFX7CKoQBEACgUAGwAGKrsVdirsVdirsVdirsVeefm9/ygnmj/tial/1DPir8JsVdirsVdir9/vKv/HF03/mDt/+Ta4qn2KuxV2KrMWLsVdirsVdirsVdir5q/5y3/8AJZap/wAZrP8A6iExUPx7xZOxV2Ks4/LH/lMfL3/bXsP+ohMVfvDixdirsVdirsVdir8vv+c5f+Ut0n/tlD/k/JikPifFLsVdir7i/wCcF/8AlJda/wC2cv8AyeXFBfpvih2KuxV2KuxV2Kvn3/nKawN/+WOuKgq8S20w+SXMZb/ha4qH40YsnYq7FXYq/T//AJx0/wCcmtL1vTbXyV+YF0lnrNqiwQXU7cYrlFFE5OdlkA2PI/H1B5EqFBD7YR1kUSRkMrCoINQQcULsVdirsVdirsVdirsVdirsVdir8wP+c9/ylMU9n+cGjxfu5QljqfEdHA/cSn5j92T/AJMY75yXtFo6IzD3H9B/R8n3H/gT+0FxloMh5XPH7v44/P1D3y7n5q5yz7U7FXYq7FXYq7FXYq7FXYq7FXYq7FXYq+r/APnCn/ybGlf8w99/1Dvm57B/xge4/c8F/wAEv/jLn74f7oP29zvX5jYj5v8AIXl3z/afovznpltqNuK8RPGGZK9Sj/aQ+6kHKc+nhnFTAPvdh2d2rqOzpcennKB8jz945H3EF8PfmD/z7+0PUjJe/ltqkumympW0vQZ4K+CyCkiD3b1Tmg1Ps3GW+M15Hcfr+99P7I/4LWbFUdXATH86Ppl8Y/Sfhwvivzx/zir+ZfkQtJeaLLqFotf9I0z/AEpCB34oPUUe7IuaHUdj58PONjvG/wC37H0rsv287O1+0cggf5uT0H5n0n4SL57ngktpGt7lGjlQlWRwQwI7EHcHNaRXN66MhIWNwpYGTsVdirsVdirsVdirsVdirsVdiqfeW/K2r+cL6PQ/K1jPf38v2YbeMu1PE06AdyaAdzlmLDLKeGIJPk4mt12LRQOTNIRiOsjX4PlzfpV+Rv8AzgxFp7w+ZfzmZJ5lIePSIW5Rgjp68i7P/qJ8Pi7Alc6rs/2f4fVm/wBL+s/ofF/aj/gonIDh0FgcjkPP/Mj0/rS37gOb9Hba2hsoY7OzjSKCJQkccahVVVFAqgbAAbADOnArYPjc5mZMpGydyTzJ81fCxdirsVdirsVdirsVfht/zmb+cS/mf52fRtHl9TQtA52duVNVknr+/lHiCwCKehVAw+1mn1eXjlQ5B8C9uO2/5Q1PBA+jHcR5y/il89h5C+r5BzGeLdirsVdirsVdirsVdirsVdirsVdirsVdirsVfph/z7+/KE3V3efnHrMX7q252Omch1kYfv5R/qqfTB6Hk46rmfosX8R+D6l/wOexuKUtXMcvTD3/AMUvgPT8T3P1UzZPrrsVdirsVdirsVdirsVdirsVdirsVdirsVdirsVdirsVdirsVdirsVdirsVdir//0vv5irsVdirsVdirsVdirsVdirsVdirsVdirsVdirsVdirsVdirsVdirsVfn9/zmd+UT3ccf5saFFykhVYNTVRuUG0c3+x+wx8OHZTir85MVdirsVdirsVTPSta1HQZvruh3dxZXA29W2leJ/wDgkIOKvWtP/wCcjvzK0xBFbeYrplH+/wARzn75UYn78VTKX/nKP80Jl4Pr7gf5NraqfvEQOKsA8wfmt5x80q0Ov67qFzCwIaJrhxEa/wDFakL+GKvP8VdirsVdirsVVYIJbqVLW1RpJpGCIiAszMxoAANySdgMVfs7/wA48flKv5TeV47O+Vf03flbm/YUNHI+GIHwjBp4cixGxxV71irsVdirsVdirsVdirsVdirsVSzWdGsvMNjcaHrUK3FjdRtFNE4qGVhQj+hG4O43xV+N357/AJH6h+T2rEIHuPL927GyuyK+/pSEbCRR9Dj4l/aCqvB8VdirsVdirsVdirsVdirsVdirsVdirsVdirsVdirsVdirsVes/lB+UGsfm9rC6RpCmKwiKte3jLVIYyf+Gdv2V796KCQq/ZvyZ5O0vyFo9t5W8twiGxtVoo6s7Hdnc92Y7k/woMVZRirsVdirsVdirsVdirsVeefm9/ygnmj/ALYmpf8AUM+KvwmxV2KuxV2Kv3+8q/8AHF03/mDt/wDk2uKp9irsVdiqzFi7FXYq7FXYq7FXYq+av+ct/wDyWWqf8ZrP/qITFQ/HvFk7FXYqzj8sf+Ux8vf9tew/6iExV+8OLF2KuxV2KuxV2Kvy+/5zl/5S3Sf+2UP+T8mKQ+J8UuxV2KvuL/nBf/lJda/7Zy/8nlxQX6b4odirsVdirsVdirBPzR0RvMnk/XdDiHKW5066SMf8WemSn/DUxV+EOLJ2KuxV2KuxVkek+cdf0FPR0LVb6yjH7NtcyxD7kYYqnbfmt52fZ/Mmske+oXH/ADXiqXT+fvM91X6zrWpSV687yZv1tir9yPJusjzFoGla+DX67Y21zX/jLGrfxxYskxV2KuxV2KuxV2KuxVjPnPynYeetDv8Ayhrqc7HUIHgk8V5DZl/ylajKezAHKc+EZoGEuRDm9m9oT7PzRz49pQII/UfIjY+Rfz2efvJWofl15g1DyXry8bywmaIsBRXXqki1/ZdSGX2OebanAcEzCXMP172T2nj7SwQ1GLlMX7j1B8wbB9zD8odi7FXYq7FXYq7FXYq7FXYq7FXYq7FX1f8A84U/+TY0r/mHvv8AqHfNz2D/AIwPcfueC/4Jf/GXP3w/3Qft7nevzG7FXYq7FWG+afy78r+d09Pzdo9jqJpQPc26O6j/ACXI5L9BGUZtNjzfXEH3h2Wh7Y1OgN4Mkof1ZED4jkfi+aPNP/ODH5a69yl0dL7R5TuPqlwXSvus4kNPYMuarN7P4J8rj7j+u3tND/wUe0dPtkMcg/pRo/OHD9oL578x/wDPvDVIuT+UvMltcV+zHfW7wU9i8Zlr8+A+Wa3L7MyH0SHxFfdb1+j/AOC/iP8Af4ZDzhIS+yQj97xHXP8AnCj81dHJNrpttqKL+1aXkX4CUxsfuzAydg6iPIA+4j9NPTaX/gl9mZvqnKH9aJ/3vEPteUar+Qv5jaLX6/5W1cKvVorOWVR/soww/HMOfZ2aHOEvlf3O+we1fZ+f6c+P4yET8pEFgd75W1rTDTUtNvLcjr6tvIn/ABIDMaWGUeYI+DtcWuw5fonE+6QP3FImUqeLAgjscrcoG3AFjRRU+2Kk0nVh5Z1jVTTTNPu7kn/fMEj/APEQcsjilLkCfg42XW4sX1ziPeQPvL0HRvyE/MbXiF03yvqxB6NLayQof9lKFX8cyYdnZp8oH5V97qdT7V9n6f68+P4SEj8o2Xt/lj/nBb8ytbKtrSWGjxH7X1m5Ej09lgEgJ9iy5n4vZ/PP6qj7z+q3mNd/wUezsH93x5D/AEY0PnPh+4vqfyN/zgF5T0dkuvPWpXWsyruYIR9VgPseJaQ/MOnyzcaf2cxw3mTL7B+v7XhO1P8Ags6rN6dNCOMd59cvtAj84l9o+U/JGgeRLMaR5P0620612qlvGFLEd3b7TH3Yk++bzDghhFQAA8nzbX9p59fPjzzlM/0jde4cgPIMpy5wXYq7FXYq7FXYq7FXYq+Pf+cwvz5X8pvLB8uaBMF80a1G8UHE/FbwH4ZJ/EH9mP8AyqsK8CMxdVm4BQ5l4r219of5NweHjP7yew/ox6y/RHz36Pw6zUPgbsVdirsVdirsVdirsVdirsVdirsVdirsVdirMPIHkjUfzH8w6f5J8vryvdQnWJSRVUXq8jU/ZRQWb2GShAzNBzeztBPXZo4cfORr3d59wG5f0U+RfJun/l9oGn+S9AThY6dAsMderEbs7U/adiWb/KJzeQgICg/S3Z+hhosUcOPlEV+s+8nc+bK8m5jsVdirsVdirsVdirsVdirsVdirsVdirsVdirsVdirsVdirsVdirsVdirsVdir/AP/T+/mKuxV2KuxV2KuxV2KuxV2KuxV2KuxV2KuxV2KuxV2KuxV2KuxV2KuxVDXlnBqNvLYX8azW06NHLG4DK6MKMpB2II2IxV+Pv/OQ35DXf5S6m2paUjzeV7xybabdjCx39GQ+I/ZY/aX/ACg2Kvm7FXYq7FXYq7FXYq7FXYq7FXYq7FXYq7rsMVfpT/zi1/zjnJoJh/Mvz5AU1Ajnp1nIN4Qf93SA9HI+wp+wPiPxU4qvvPFXYq7FXYq7FXYq7FXYq7FXYq7FXYqkPmbyxpfnHTZ/LnmS2S60+5XjJG4+4g9QwO4Ybg7jFX5Ofnl/zjXrP5WSya3owk1HywSSLhRWS3B6LOB08BIBxPfiSBir5kxV2KuxV2KuxV2KuxV2KuxV2KuxV2KuxV2KuxV2KuxV9Dfkp/zjvrv5tzpqEwaw8uI3729dd5KHdYFP227cvsr3JI4lV+tfkvyTo/5f6VD5a8q2y21lDvtu7ueru3VmPcn5CgAGKsrxV2KuxV2KuxV2KuxV2KuxV55+b3/KCeaP+2JqX/UM+KvwmxV2KuxV2Kv3+8q/8cXTf+YO3/5NriqfYq7FXYqsxYuxV2KuxV2KuxV2Kvmr/nLf/wAllqn/ABms/wDqITFQ/HvFk7FXYqzj8sf+Ux8vf9tew/6iExV+8OLF2KuxV2KuxV2Kvy+/5zl/5S3Sf+2UP+T8mKQ+J8UuxV2KvuL/AJwX/wCUl1r/ALZy/wDJ5cUF+m+KHYq7FXYq7FXYq7FX4g/nj+X8v5becdR8vmMpZPIbmyNKBreUkpT/AFd0PupxZB5JirsVdirsVdirsVdir9nv+cYtZ/Tf5a6HK5rJbxy2rDw9GVkX/hQpxYl73irsVdirsVdirsVdirsVfAn/ADnF+Sp80aOn5q+X4uWp6RHwvlQby2da8/cwkkn/ACGYn7AznO39B4kfFjzHP3fs+59Z/wCBf7TflMx0WU+nIbh5ZO7/AD/90B3vyRzjH6CdirsVdirsVdirsVdirsVdirsVdir6v/5wp/8AJsaV/wAw99/1Dvm57B/xge4/c8F/wS/+Mufvh/ug/b3O9fmN2KuxV2KuxV2KuxV2KuxV2KqckMcv96it23AOCmQkRydHEkQ4xKqjwUAYgUgyJ5qmFDsVdirsVdirsVdirsVdirsVdirsVeZfm3+aujfk75duPOPmZ6rH8FvbqQJLiYj4Y0r3PUn9lQWPTK8uQYxZdV2z2vj7LwnNk+A6yl0A/Gw3fz+fmN+YGr/mh5hvfOvmeT1L28eoUV4RRjZI0HZUGw+81JJzSZJmZsvzl2n2lk7QzSzZTufkB0A8gwjIuA7FXYq7FXYq7FXYq7FXYq7FXYq7FXYq7FXYq/Xr/nBD8kW8saPJ+bXmGHjqWrx+np6uN47OtTJv0MzAEf5CqQaOc2ejw8I4j1fZv+B92D+XxnVZB6pio+UO/wDzvuA736FZnPpLsVdirsVdirsVdirsVdirsVdirsVdirsVdirsVdirsVdirsVdirsVdirsVdirsVf/1Pv5irsVdirsVdirsVdirsVdirsVdirsVdirsVdirsVdirsVdirsVdirsVdiqV63olh5jsZ9D123jurC5Qxywyiqsp/iOoI3B3G+Kvy5/O//AJxR1fyO83mLyIkup6BUu0Kjnc2w78lG7oP5l3A+0NuRVfHuKuxV2KuxV2KuxV2KuxV2KuxVkHlnyrq/nK+j0PyvZzX19J0jhWtB4seiqO7MQB3OKv00/Ir/AJxSsPIjw+avPZj1DXkIeGBfit7ZuoO/95IP5j8Kn7IJAfFX2RirsVdirsVdirsVdirsVdirsVdirsVdirsVWSRrKrRSqGRgQykVBB6gjFXxd+bf/OHWjeaGl1v8unj0jUmqzWrA/VJD7AVMRP8Akgr4IOuKvzw87/lr5l/Lm5+o+cNOmtCSQkpHKGT/AFJFqjfIGo7gYqwbFXYq7FXYq7FXYq7FXYq7FXYq7FXYq7FWU+U/JOu+erwaT5SsJ7+525CJaqgPQu5oqD3YgYq/Qf8AKP8A5w0sNGaLXPzRkS/u1oy6fCT9XQ9R6jbGQ/5IonY8xir7mt7eKziS1tI1igjUIkaKFVVAoAANgAOgGKq2KuxV2KuxV2KuxV2KuxV2KuxV55+b3/KCeaP+2JqX/UM+KvwmxV2KuxV2Kv3+8q/8cXTf+YO3/wCTa4qn2KuxV2KrMWLsVdirsVdirsVdir5q/wCct/8AyWWqf8ZrP/qITFQ/HvFk7FXYqzj8sf8AlMfL3/bXsP8AqITFX7w4sXYq7FXYq7FXYq/L7/nOX/lLdJ/7ZQ/5PyYpD4nxS7FXYq+4v+cF/wDlJda/7Zy/8nlxQX6b4odirsVdirsVdirsVeCfn9+Slv8AnDogitSkGvWPJ7GdtlNftRORvweg3/ZajdKgqh+PGvaBqPli/n0HzBbSWl/bOUlhlFGU/qIPUEbEbgkYskoxV2KuxV2KuxV2Kv1G/wCcH9Z+t+UNS0V2q1nqTOo8EmiSg/4JWOKC+08UOxV2KuxV2KuxV2KuxVSngjuo3trlFkhkUo6OAVZWFCCDsQR1GAi9imEjA2NiORfhT/zk1+SUv5MeapLaxRj5d1IvcabIakKtfjhJ/miJA90Kt1Jp592roPymSh9J3H6vg/VHsR7TjtvSgyP7yFRmPPpP3S++x0fOOat7J2KuxV2KuxV2KuxV2KuxV2KuxV9X/wDOFP8A5NjSv+Ye+/6h3zc9g/4wPcfueC/4Jf8Axlz98P8AdB+3ud6/MbsVdirsVdirsVdirsVdirsVdirsVdirsVdirsVdirsVdirsVdirsVdirz/8y/zM0H8ptDn82+cbgQ2sXwxxrQyzyEVWOJf2mP3AVZiFBIhkyCAsuu7V7Vxdm4jlzGgOQ6yPcB1P9p2fg9+d/wCdut/nhr7eYddJhsoeUdjYqxMdvET0HTk7UBd6VY+ChVGmzZjkNl+e+3u3sva+XxJ7AfTHpEfrPU9fdQeM5U6N2KuxV2KuxV2KuxV2KuxV2KuxV2KuxV2KuxV9I/8AOL/5Iy/nV5uis75G/wAO6bxudTkFQClfghB/mlIp4hA7Ddcv0+HxJeT0/sp2Ce1tQBL6I7zPl0j75fdZfvdb28VrElraoscMahERAAqqooAANgAOgzcv0NGIiKGwCrhZOxV2KuxV2KuxV2KuxV2KuxV2KuxV2KuxV2KuxV2KuxV2KuxV2KuxV2KuxV2KuxV//9X7+Yq7FXYq7FXYq7FXYq7FXYq7FXYq7FXYq7FXYq7FXYq7FXYq7FXYq7FXYq7FXYq+ePzN/wCcZvJv5lNJqLwHTNXepN3ZALzbxkj+w/uaBz/Nir4b86/84deefLTPN5fEGt2YOzW7COani0UhG/sjPir5q1zyxrHlmX6t5i0+6sJakBbmF4iaeHICuKpHirsVdirsVXIjSMI4wWZjQACpJOKvXPKn5DeffORQ6Pod0sDkUnuV+rxU8Q0vHkP9WuKvrXyF/wA4OpGyXv5kapzAoTaafUA+zTOK08QqD2bFX295Q8jaD5CsxpHlCwhsbbbkIl+JyO7uas592JOKsrxV2KuxV2KuxV2KuxV2KuxV2KuxV2KuxV2KuxV2KuxVB6hp1pq1u+n6pBFc2so4yRTIrow8CrAgj54q+XfO3/OHvkbzQXutDWbRLtqmtq3OEk+MT1AHsjIMVfK3mr/nCnzppBaXy1cWerwj7Kq/1eY/7GT4B/yMxV4Dr/5P+dvLBYa3oGoRIvWRYHkj/wCRkYZPxxV506NGxjkBVgaEEUIOKrcVdirsVdirsVdirMdB/L3zP5oK/wCHdHv7xX6PDbSMnzLgcQPcnFXvflb/AJw6/MDXismrx2ukQHqbqYPJT2SLnv7MVxV9T+Sf+cLPKOglLrzdc3GtXC0JjP8Ao9vX/UQlz9MlD3XFX1nomgab5btU0ry/aQWVmn2YreNY0HvRQN/E9TiqbYq7FXYq7FXYq7FXYq7FXYq7FXYq7FWGfmPpV1rvlPXtD0qP1b280u9t4I6hecksDoi1YgCrECpIHicVfk1/0Kt+aX/VgP8A0mWf/VbFXf8AQq35pf8AVgP/AEmWf/VbFXf9Crfml/1YD/0mWf8A1WxV3/Qq35pf9WA/9Jln/wBVsVfsD5ftpbLS7KzuV4zRW0MbrUGjKgBFRt1xVN8VdirsVWYsXYq7FXYq7FXYq7FXh/8AzkX5R1fzz5Ev/LflW2+talNJbNHFzRKhJlZvikZV2AJ3OKh+bP8A0Kv+aP8A1YD/ANJln/1WxTbv+hV/zR/6sB/6TLP/AKrYrbv+hV/zR/6sB/6TLP8A6rYrbKvIn/ONP5k6P5l0bV9S0Qx2lrqNpPM/1u1PGOOZWY0WUk0AJoAT4Yrb9bMUOxV2KuxV2KuxV8Gf85W/k35x/MjzFp2q+S9NN7awaeIJHE8EdH9V2pSR1J2I3ApikPlz/oVf80f+rAf+kyz/AOq2K27/AKFX/NH/AKsB/wCkyz/6rYrbv+hV/wA0f+rAf+kyz/6rYrb6r/5xQ/J7zf8Alvrmqaj51002VvcWSxROZ4JOTiRWpSN2I2HcYqX3Xih2KuxV2KuxV2KuxV2KvKPzQ/Jny1+bVqLfzLblb2NSIL2Cizx+3KhDL/ksCO4od8Vfnh58/wCcPPOvlh3n8siPXLAElTARHOB/lROdz/qM+KbfNOteWNY8tyeh5h0+7sZK043MDxH/AIcDFKRYq7FXYqn+keVdb18gaFpt5ek7D6tbyS1/4BTir9Ev+cO/IPm3yLcay/mvS57Cwv4bdo2n4qTJEz7cK8xs56qBtigvujFDsVdirsVdirsVdirsVdiryb86vyn0785PK9z5R1PjHc/31lckVMFwoPB/9U1KuO6k96EYWv0Y1WMwPwPcXf8Asz2/k7E1Mc8NxynH+dA8x7+o8w/AzzN5b1Hyfqt35Y8wwtb6jYytDNG3Zl7g9wRupGxBBGxzzrLilikYy2IfrLQ63HrcUc2I3GQsH8dehHQ7JFlblOxV2KuxV2KuxV2KuxV2KuxV9Yf84UKT+bGlkdra+J/6R3zc9g/4wPcfueB/4JZ/1rn/AFof7oP28zvX5kdirsVdirsVdirsVdirsVdirsVdirsVdirsVdirsVdirsVdirsVdir5+/PL/nI7yv8AkdZEatILzXpE5W2mQMPVevRpDuI4/wDKYVO/BWIIyjNnGP3vOdv+0+DsiPrPFM8oDn7z/NHmfgC/En82Pze8x/nJrLeZPONxzK1W2to6rBbxk14Rr292NWb9onbNTlynIbL4P2x21m7VyeJmPuA+mI7gP08z1eX5W6l2KuxV2KuxV2KuxV2KuxV2KuxV2KuxV2KuxVPfLHlrUfOOrWflfy7A1xqV9MsEES92bxPYAbsTsACTsMMYmRoORpNLPVZBixi5SNAfj7X9BP5IflFp35LeVrXyhpfGS6/vr66AoZ7hgOTePEfZQdlA71J3eHEMYp+jewexodlYBijuecj/ADpdT7ug8nr2Wu6dirsVdirsVdirsVdirsVdirsVdirsVdirsVdirsVdirsVdirsVdirsVdirsVdirsVf//W+/mKuxV2KuxV2KuxV2KuxV2KuxV2KuxV2KuxV2KuxV2KuxV2KuxV2KuxV2KuxV2KuxV2KqM9vFdIYLlFkjbYq4DA/MHFXnmqfk55F1ljJqPl3S3kbq62kaMfmygH8cVYbc/84wflhdmsvl+If8Y7i5j/AOISjFUMn/OKv5Wxmq6APpvLw/rmxVP7H/nHr8uNPobfy5YtT/fytN/ycLVxV6No3lPRPLo4+X9Ns7EUp/otvHF/xBRiqf4q7FXYq7FXYq7FXYq7FXYq7FXYq7FXYq7FXYq7FXYq7FXYq7FXYq7FXYq7FUp1LQNL1kcdYsra7U7UnhSQf8MDirAr38kPy/vyTceWtLBPUx2scf8AxALirG7j/nGX8srk1k8vQj/UmuE/4jIMVS//AKFS/Kz/AKsP/T7e/wDVbFURD/zi3+V9uapoCH/Xurp/+JSnFWQWf5A/l1Y0MPlvT2p/v2L1f+JlsVZxpXkny7oVP0JpFhZ06fV7WKOn/AqMVZPirsVdirsVdirsVdirsVdirsVdirsVdirsVdirsVdirsVdirsVdirsVdirsVdiqzFi7FXYq7FXYq7FXYq7FXYq7FXYq7FXYq7FXYq7FXYq7FXYq7FXYq7FXYq7FXYq7FXYq7FXYq7FXYq7FXYqskjSVTHKoZDsQwqD9GKsVvfIHljUiW1HRdNnJ6mWzhev/BKcVStfyl8jIeaeWdFDeI062r/xDFU9sfJvl/S6fozSrC3p09G1iT/iKjFWRgBRQbAYq3irsVdirsVdirsVdirsVdirsVdir4h/5zC/5x4/5WNph/MHyjBXzNpsX76KMfFd2y7laDrJH1Tuy1Tc8KaDtvszx4+JD6h9o/WH0/8A4HXth/JmT8rnP7qZ2J/ycz1/qy69x9X85+OnTY5xD9GOxV2KuxV2KuxV2KuxV2KuxV7X/wA4/wD5m2f5Qecbbz3rNvLdWVtFLHLHAV9TjMPT5KGoCV5VoSK+Iza9jZfDzgnz+58v/wCDH2hHs7sTLqJgkQljsDn6skYbe7iv4P21/Lj84fKH5r2ovvI+qQ3bhQ0lsTwuIv8AXiajgV2rTif2WOd7jyxnyfmHsztvT9pR4sEwe8cpD3x5/oemZY7V2KuxV2KuxV2KuxV2KuxV2KuxV2KuxV2KuxV2KuxV2KuxVjfmrzhonkfT5Nf83X9vp1hH9qW4cKCf5VHVmPZVBY9hkZSERZcXWa3Fo4eJlkIgdSfxZ8hu/M/87f8AnPme9Wby9+S0LW8RqjavdIPUI8YIW2X2eSp/yFO+YGbW9I/N8s7e/wCCIZ3j0Yr+mef+bHp7zv5B+bOpald6zdS6rq88t1eTuZJZpnLyOx6lmYkknxOa8m+b5dlyyyyMpkknmTuT8UFiwdirsVdirsVdirsVdirsVdirsVdirsVdirsVcBXYYq/Zv/nDb/nHD/lW2mL+YvnGDj5o1KL9xDIPis7Z96U7SyDd+6rRNjzB2ulwcA4jzfb/AGI9mPyEPzGYfvJDYH+CJ/3x69w2733TmY+gOxV2KuxV2KuxV2KuxV2KuxV2KuxV2KuxV2KuxV2KuxV2KuxV2KuxV2KuxV2KuxV2KuxV/9f7+Yq7FXYq7FXYq7FXYq7FXYq7FXYq7FXYq7FXYq7FXYq7FXYq7FXYq7FXYq7FXYq7FXYq7FXYq7FXYq7FXYq7FXYq7FXYq7FXYq7FXYq7FXYq7FXYq7FXYq7FXYq7FXYq7FXYq7FXYq7FXYq7FXYq7FXYq7FXYq7FXYq7FXYq7FXYq7FXYq7FXYq7FXYq7FXYq7FXYq7FXYq7FXYq7FXYq7FXYq7FXYqsxYuxV2KuxV2KuxV2KuxV2KuxV2KuxV2KuxV2KuxV2KuxV2KuxV2KuxV2KuxV2KuxV2KuxV2KuxV2KuxV2KuxV2KuxV2KuxV2KuxV2KuxV2KuxV2KuxV2KuxV2KuxV+U//OZH/ONp0Gef82/Itv8A7jJ2L6raxL/cSMd51A/3W5+2P2G+L7LHjx/bnZfAfFgNv4h3efu733r/AIHHtp+YiNDqT6htjkf4h/MP9Ifw9425jf53ZzL7C7FXYq7FXYq7FXYq7FXYqub+4uP+Ma/8nFzP7N/vR8fufGP+Wgv+cZ1Pvw/9NsaA03U7zRrmPU9HuJrS8hblHNBI0ciHxVlIIPyOdMDXJ/ODFllikJQJBHIg0R8Q+zfy2/5zt8++TljsPNiw+YrBKAm5/dXQUdhOgIPzkR298y8eslHnu9x2X/wQdXpajlrIPPaX+mH6QS+6PIn/ADnD+Wnm8JBrFzPoN61AY7+MmMn2mj5LT3fh8szIayMuez3/AGf7faLVbTJxn+kNv9MLHzp9WaJ5i0rzNbjUfLl9bX9o3SW1mSZD/skJGZIkDyevwanHqBxY5CQ74kEfYnGFvdirsVdirsVdirsVdirsVdirsVdirsVaJAFTsBirwvz7/wA5K/lx+XSumva7bS3aVH1Syb6zPy8CsVQh/wBcqPfKZ6iMOZef7R9qdFofryAn+bH1S+Q5fGnwn+ZX/PwzVL8Saf8AlXpSWERqFvdQpLNTxWFf3an/AFmlHtmHk1xP0vn3an/BJyTuOlhw/wBKW8v9LyHxMnwJ5w89eYPP982tec9SudSvDWj3DlgoPZF+yi/5KgD2zCnMy3L53re0M2tlx5pGR8z9w5D3BimRcN2KuxV2KuxV2KuxV2KuxV2KuxV2KuxV2KuxV2KuxV+jf/OGH/OMjeYbi3/N/wA+29NKt39TSrSVf96JFO07g/7rQ/YH7bDl9lfjztJp79R+D6b7D+yvjkavOPSN4RP8R/nHyHTvO/Ib/WnNm+xOxV2KuxV2KuxV2KuxV2KuxV2KuxV2KuxV2KuxV2KuxV2KuxV2KuxV2KuxV2KuxV2KuxV2Kv8A/9D7+Yq7FXYq7FXYq7FXYq7FXYq7FXYq7FXYq7FXYq7FXYq7FXYq7FXYq7FXYq7FXYq7FXYq7FXYq7FXYq7FXYq7FXYq7FXYq7FXYq7FXYq7FXYq7FXYq7FXYq7FXYq7FXYq7FXYq7FXYq7FXYq7FXYq7FXYq7FXYq7FXYq7FXYq7FXYq7FXYq7FXYq7FXYq7FXYq7FXYq7FXYq7FXYq7FXYq7FXYq7FXYqsxYuxV2KuxV2KuxV2KuxV2KuxV2KuxV2KuxV2KuxV2KuxV2KuxV2KuxV2KuxV2KuxV2KuxV2KuxV2KuxV2KuxV2KuxV2KuxV2KuxV2KuxV2KuxV2KuxV2KuxV2KuxVRubaK8iktLuNZYJVZJI3AZWVhQqwOxBGxBwEXsWUJmBEomiNwRzBfjJ/wA5T/8AONE/5T3z+cPKUTS+ULuToKsbKRj/AHbnr6ZP925/1G+LiX4btfso6Y8cPpP+x8vd3fJ+kvYT22j2xDwM5rNEf8rAP4h/SH8Q/wA4bWB43zRvo7sVdirsVdirsVdirsVXN/cXH/GNf+Ti5n9m/wB6Pj9z4x/y0F/zjOp9+H/ptjSLOmfzcdirsVTLSda1DQbhdQ0O7nsrpfsy20rROPkyEHCCRybcOeeE8UCYnvBIP2PoHyv/AM5dfmt5V4xweYJr2EdY9QRLmvzeQGT7ny6OqnHq9HpPbPX6blkMh/SAl9p9X2vfdA/5+K+a7QKvmXQdNvgOptpJbZj/AMEZhX5D6Mvjrj1D0Wm/4Jmoj/eY4y9xMf8AinsWj/8APxjyvPT9P+XtStfH6tLDcU/4Mw1y0a4dQ7vB/wAE3Af7zHMe4iX38L0rTf8AnPD8qr6n1q41Gyr/AL/s2NP+RRkywayBdpi/4IWgnzMo++P/ABNs1sv+cwfyhvgPS8yxIfCW1u4/+JxAZIaqB6ufD217Onyyj4xkPviyOD/nJj8rLkAx+a9MFf55eH/EgMl+Yh3uTH2q0Ev8rD5196ZJ/wA5B/lnJTj5t0XfxvoR+tsPjw7w2j2k0R/y2P8A0w/Wvb/nID8tF6+btE38L+A/qbHx4d4T/oj0X+rY/wDTj9aXXH/OSn5XWv8Ae+a9LP8AqTh/+I1wfmId4a5+1Ghjzyw+Bv7mMX3/ADmD+UOn7S+ZYnPhDa3cv4pER+OROqgOriz9tOzoc8o+EZH7olgWr/8AOe35W6bUWT6nqFP+Waz41/5HvFkDrYDvdfqP+CFoMX0mUv6sf+LMXkuvf8/HdLiLJ5Y8sXNwP2XvLtIae5SNJa/LkPnlR146B0up/wCCdjH91iJ/rSEfsAl97wbzN/zn7+ZGsBotCi03SIz9lobczSj5mZnQ/wDADKZa2R5bPPar/gi63LtAQh7hZ/2RI+x80ecPzj87+fw0fm/Xr+9hbrA8zLB/yKTjGP8Agcx5ZZS5l5XW9t6rW/32SUh3X6f9KNvsea5B1bsVdirsVdirsVdirsVdirsVdirsVdirsVdirsVdirsVdir7P/5xR/5xiuPzdv084+bomi8nWcu4NVN7Ih/ukPX0wf7xx/qL8VSmVptP4hs8nuPZD2UPac/GyisQP+nI6Dy/nH4Dfl9r7a2is4Y7O0jWKCJFjjjRQqqqigVQNgANgBm2fdYxEBQ2A5BWwsnYq7FXYq7FXYq7FXYq7FXYq7FXYq7FXYq7FXYq7FXYq7FXYq7FXYq7FXYq7FXYq7FXYq7FX//R+/mKuxV2KuxV2KuxV2KuxV2KuxV2KuxV2KuxV2KuxV2KuxV2KuxV2KuxV2KuxV2KuxV2KuxV2KuxV2KuxV2KuxV2KuxV2KuxV2KuxV2KuxV2KuxV2KuxV2KuxV2KuxV2KuxV2KuxV2KuxV2KuxV2KuxV2KuxV2KuxV2KuxV2KuxV2KuxV2KuxV2KuxV2KuxV2KuxV2KuxV2KuxV2KuxV2KuxV2KuxV2KrMWLsVdirsVdirsVdirsVdirsVdirsVdirsVdirsVdirsVdirsVdirsVdirsVdirsVdirsVdirsVdirsVdirsVdirsVdirsVdirsVdirsVdirsVdirsVdirsVdirsVdiqX6tpNnrtnPo2swR3NjdRtFNDKoZHRhQgg9jkJwExR3BbdPqJ6eYyYyYyibBHMEPxZ/5yY/5xmvfyavW8w+XlkuvKF1JSKU/E9q7HaKU+H8j/tdD8X2uF7V7KOlPFHeJ+zyP6C/S3sT7bQ7bh4WWo5ojcdJj+dH/AH0enMbcvJmaZ9AdirsVdirsVdirsVXN/cXH/GNf+Ti5n9m/3o+P3PjH/LQX/OM6n34f+m2NIs6Z/Nx2KuxV2KuxV2KuxV2KuxV2KuxV2KuxV2KuxV2KuxV2KuxV2KuxV2KuxV2KuxV2KuxV2KuxV2KuxV2KuxV2KuxV2Kvrf/nGL/nGK/8Azp1BPMHmBJLXybayfvpvstdOp3hhP/E3GyjYfF0ydPpzkNnk9l7Keyk+1Z+JksYgdz/O/ox/Senvft5pGkWWgWVvomiwR2thaxrFBDEoVERRQAAZtwK2D7xhwxwxEIAAAUAOQCY4W12KuxV2KuxV2KuxV2KuxV2KuxV2KuxV2KuxV2KuxV2KuxV2KuxV2KuxV2KuxV2KuxV2KuxV2Kv/0vv5irsVdirsVdirsVdirsVdirsVdirsVdirsVdirsVdirsVdirsVdirsVdirsVdirsVdirsVdirsVdirsVdirsVdirsVdirsVdirsVdirsVdirsVdirsVdirsVdirsVdirsVdirsVdirsVdirsVdirsVdirsVdirsVdirsVdirsVdirsVdirsVdirsVdirsVdirsVdirsVdirsVdirsVdirsVdirsVdiqzFi7FXYq7FXYq7FXYq7FXYq7FXYq7FXYq7FXYq7FXYq7FXYq7FXYq7FXYq7FXYq7FXYq7FXYq7FXYq7FXYq7FXYq7FXYq7FXYq7FXYq7FXYq7FXYq7FXYq7FXYq7FXYq7FUu1bSLLXrKfRtagjurG5jaKaGVQyOjdQQchOAmKluC3afUT08xkxkxlE2CNiC/HD/nJj/nFe9/KeaTzb5OSW88oytVuryWRJ+zIepjrssn+xf4qM/Edq9kHTHjhvH/c+/wAvN+jfYn28h2uBg1FRzD4DJ5x/pd8fjHawPG2aN9IdirsVdirsVdiq5v7i4/4xr/ycXM/s3+9Hx+58Y/5aC/5xnU+/D/02xpFnTP5uOxV2KuxV2KuxV2KuxV2KuxV2KuxV2KuxV2KuxV2KuxV2KuxV2KuxV2KuxV2KuxV2KuxV2KuxV2KuxV2KuxV2Kvs7/nGL/nFG/wDzduIvN3nFJLPydE1Qd0kvSp3SLuI67PJ/sU+KpTK0+mOTc8nuPZT2Qn2mRlzXHEPnPyHl3y+A35faXSNIstAsoNF0W3jtbC1jWKGCJQqIiigCgdBm2ArYPuWHDHDEQgAABQA5AJjhbXYq7FXYq7FXYq7FXYq7FXYq7FXYq7FXYq7FXYq7FXYq7FXYq7FXYq7FXYq7FXYq7FXYq7FXYq7FX//T+/mKuxV2KuxV2KuxV2KuxV2KuxV2KuxV2KuxV2KuxV2KuxV2KuxV2KuxV2KuxV2KuxV2KuxV2KuxV2KuxV2KuxV2KuxV2KuxV2KuxV2KuxV2KuxV2KuxV2KuxV2KuxV2KuxV2KuxV2KuxV2KuxV2KuxV2KuxV2KuxV2KuxV2KuxV2KuxV2KuxV2KuxV2KuxV2KuxV2KuxV2KuxV2KuxV2KuxV2KuxV2KrMWLsVdirsVdirsVdirsVdirsVdirsVdirsVdirsVdirsVdirsVdirsVdirsVdirsVdirsVdirsVdirsVdirsVdirsVdirsVdirsVdirsVdirsVdirsVdirsVdirsVdirsVdiqjcW8V3E9rdossEqlHjdQysrChBB2II2IOAi9iyhMwIlE0RuCOYL8sP+ck/+cN59Ea489/lHA02m/FLdaUgJkg7loB1dPFPtL+zyXZeQ7U7DMLni5dY93u8vJ939i/+CPHPWm1xqXKOQ8peU+6X9LketHn86yKbHrnMvsTsVdirsVdiq5v7i4/4xr/ycXM/s3+9Hx+58Y/5aC/5xnU+/D/02xpFnTP5uOxV2KuxV2KuxV2KuxV2KuxV2KuxV2KuxV2KuxV2KuxV2KuxV2KuxV2KuxV2KuxV2KuxV2KuxV2KuxV2Ku67DFX6N/8AOMn/ADhhceYWt/Pv5v272+lfDJaaVJVZLjuHnHVI/BNmf9riv287T6S95fJ9M9lfYc56z6sVHnGB5y85d0fLmfdz+sdtbQ2cMdnZxpFBEqpHHGoVVVRQKoGwAGwAzZPsMYiAobAcgrYWTsVdirsVdirsVdirsVdirsVdirsVdirsVdirsVdirsVdirsVdirsVdirsVdirsVdirsVdirsVdirsVf/1Pv5irsVdirsVdirsVdirsVdirsVdirsVdirsVdirsVdirsVdirsVdirsVdirsVdirsVdirsVdirsVdirsVdirsVdirsVdirsVdirsVdirsVdirsVdirsVdirsVdirsVdirsVdirsVdirsVdirsVdirsVdirsVdirsVdirsVdirsVdirsVdirsVdirsVdirsVdirsVdirsVdirsVdirsVdirsVdirsVdiqzFi7FXYq7FXYq7FXYq7FXYq7FXYq7FXYq7FXYq7FXYq7FXYq7FXYq7FXYq7FXYq7FXYq7FXYq7FXYq7FXYq7FXYq7FXYq7FXYq7FXYq7FXYq7FXYq7FXYq7FXYq7FXYq7FXYq7FXYq+I/+chf+cPdL/Mj1/NvkARaZ5masksX2ba7bqeQH93If5wKMftip5jQdpdiRz+vHtL7D+ovp3sh/wRcvZlYNVc8XIHnOHu/nR/oncfwno/I/zL5Y1XyfqM3l7zRaS2Oo27cZIZl4sPAjsQeoYVBG4JGcZlxSxHhkKIfoLRa7FrcYy4ZCUTyI/HPvB3HVIsrct2KuxVc39xcf8Y1/5OLmf2b/AHo+P3PjH/LQX/OM6n34f+m2NIs6Z/Nx2KuxV2KuxV2KuxV2KuxV2KuxV2KuxV2KuxV2KuxV2KuxV2KuxV2KuxV2KuxV2KuxV2KuxV2KuxV2Kp75a8sat5x1GDy75Xs5r7UrluMUEK8mPiT2AHUsaBRuSBhjEyNByNLpMmqmMeIGUjyA/H2v18/5xw/5w1038t/Q84/mMsOpeZxSSGD7dtZt1BFdpJR/OfhU/YFQHO0waUQ3lzfZ/Zj2IhoKzaipZOg5xh+uXnyHTvfdeZj6A7FXYq7FXYq7FXYq7FXYq7FXYq7FXYq7FXYq7FXYq7FXYq7FXYq7FXYq7FXYq7FXYq7FXYq7FXYq7FXYq7FX/9X7+Yq7FXYq7FXYq7FXYq7FXYq7FXYq7FXYq7FXYq7FXYq7FXYq7FXYq7FXYq7FXYq7FXYq7FXYq7FXYq7FXYq7FXYq7FXYq7FXYq7FXYq7FXYq7FXYq7FXYq7FXYq7FXYq7FXYq7FXYq7FXYq7FXYq7FXYq7FXYq7FXYq7FXYq7FXYq7FXYq7FXYq7FXYq7FXYq7FXYq7FXYq7FXYq7FXYq7FXYq7FXYqsxYuxV2KuxV2KuxV2KuxV2KuxV2KuxV2KuxV2KuxV2KuxV2KuxV2KuxV2KuxV2KuxV2KuxV2KuxV2KuxV2KuxV2KuxV2KuxV2KuxV2KuxV2KuxV2KuxV2KuxV2KuxV2KuxV2KuxV2KuxV5R+a/wCTHlj85NO/RXm61rPGp+rXsVFuICe6PTceKNVT3FaEYes0OPVRqY9x6h3/AGB7S6nsTJx4JbH6oneMveO/zFEd78ffzt/5xj81fkzI+oTxnU/LvL4NRt0PFQegmTcxH3JKHs5Ow4nX9k5NJvzj3j9Pc/RPsx7caXtsCIPBk6wkef8AUP8AEPt7w+b81b2bsVXN/cXH/GNf+Ti5n9m/3o+P3PjH/LQX/OM6n34f+m2NIs6Z/Nx2KuxV2KuxV2KuxV2KuxV2KuxV2KuxV2KuxV2KuxV2KuxV2KuxV2KuxV2KuxV2KuxV2KuxV2KuxV9Ifkh/zjD5u/OuVL2yiOneXQ1JNTuUPAgHcQrsZW+VFB2Z1y/Dpzk9z0/YPspqO1jxRHDDrM8v80fxH7O8h+yv5Q/kd5V/JXTv0Z5Rtq3cigXN/NRrmc/5T0FFr0RaKOtK1J2uLCMY2fbuxuwMHZUOHENzzkfql7z3eQ2ev5a7p2KuxV2KuxV2KuxV2KuxV2KuxV2KuxV2KuxV2KuxV2KuxV2KuxV2KuxV2KuxV2KuxV2KuxV2KuxV2KuxV2KuxV//1vv5irsVdirsVdirsVdirsVdirsVdirsVdirsVdirsVdirsVdirsVdirsVdirsVdirsVdirsVdirsVdirsVdirsVdirsVdirsVdirsVdirsVdirsVdirsVdirsVdirsVdirsVdirsVdirsVdirsVdirsVdirsVdirsVdirsVdirsVdirsVdirsVdirsVdirsVdirsVdirsVdirsVdirsVdirsVdirsVdiqzFi7FXYq7FXYq7FXYq7FXYq7FXYq7FXYq7FXYq7FXYq7FXYq7FXYq7FXYq7FXYq7FXYq7FXYq7FXYq7FXYq7FXYq7FXYq7FXYq7FXYq7FXYq7FXYq7FXYq7FXYq7FXYq7FXYq7FXYq7FXYqpTwR3Mb21yiyRSKVdHAZWUihBB2II6jARexTGRgbGxHIvgz86v+cHtF81err/5VvHo+qNV2snr9TlP+TQEwk+wKduK9c53X9gRyerF6T3dP2fc+r+zP/BQzaSsWtvJD+eP7we/pP41LzPJ+YHnf8vfMX5cagdD866fNYXYqV9QVSQD9qNxVXX3UkfTnJ6jTTwHhmKL7j2X2vp+08fiaeYkPLmPKQ5g+8MPb+4uP+Ma/8nFzI7N/vR8fufKv+Wgv+cZ1Pvw/9NsaRZ0z+bjsVdirsVdirsVdirsVdirsVdirsVdirsVdirsVdirsVdirsVdirsVdirsVdirsVdirsVdirL/JPkHzD+Yuop5f8lafPqF61CViX4UUmnKRzRUX/KYge+ShAzNBzNB2dm10/DwxMj5dPMnkB5l+pP5I/wDOCGkeWWh8xfm3JHq+pLR106Ov1SNuv7wmhmI8KLH1BDjfNjh0YG8t31rsH/gfY9PWTVkTl/NH0D3/AM77B736DW9vFaRJa2qLFDGoREQBVVQKAADYADoBma+jxiIihsArYWTsVdirsVdirsVdirsVdirsVdirsVdirsVdirsVdirsVdirsVdirsVdirsVdirsVdirsVdirsVdirsVdirsVdirsVf/1/v5irsVdirsVdirsVdirsVdirsVdirsVdirsVdirsVdirsVdirsVdirsVdirsVdirsVdirsVdirsVdirsVdirsVdirsVdirsVdirsVdirsVdirsVdirsVdirsVdirsVdirsVdirsVdirsVdirsVdirsVdirsVdirsVdirsVdirsVdirsVdirsVdirsVdirsVdirsVdirsVdirsVdirsVdirsVdirsVdiqzFi7FXYq7FXYq7FXYq7FXYq7FXYq7FXYq7FXYq7FXYq7FXYq7FXYq7FXYq7FXYq7FXYq7FXYq7FXYq7FXYq7FXYq7FXYq7FXYq7FXYq7FXYq7FXYq7FXYq7FXYq7FXYq7FXYq7FXYq7FXYq7FXYqxrzX5O0Tzzp76D5usINQsJOsU6cqH+ZT1Vh2ZSGHY5TmwRzDhmLDm6DtHNoMgy4JGEh1B+w9CPI7Pzq/N3/nAqSOK51T8nbv1Oa7aZfOAR8QakU52PSgElPeQ5o/5CGKfHjO3cf0H9fzd17d+2eo9pOxM3Z04A5Z+HwyB4QeDJCZ4gdgSIncGr6Abvzb81+TNd8jXzaH5w0+406+T/AHVcRlCR/MpOzL4MpIPY5KUDHYvxnrNDl0cuDNExPcRXy7x5hjOBxXYq7FXYq7FXYq7FXYq7FXYq7FXYq7FXYq7FXYq7FXYq7FXYq7FXYq7FXYq7FXYqn/lryrrHnK+j0PypY3GoX8n2YbaNnaniadAO5NAO5wxiZbByNLo8mqlwYomRPQC36H/lH/z79vLsxax+cV6LWHZv0ZYuGlPtLPuq+4j51HR1OZ2LRdZfJ9K7G/4HMpVPVyofzI8/jLkPhfvD9K/JvkXQPy+05NA8l6fBp1im/CFaFj05Oxqzt/lMS3vmfCAiKD6jouz8Wih4eGIiPL9J5k+ZZXk3MdirsVdirsVdirsVdirsVdirsVdirsVdirsVdirsVdirsVdirsVdirsVdirsVdirsVdirsVdirsVdirsVdirsVdirsVdir//0Pv5irsVdirsVdirsVdirsVdirsVdirsVdirsVdirsVdirsVdirsVdirsVdirsVdirsVdirsVdirsVdirsVdirsVdirsVdirsVdirsVdirsVdirsVdirsVdirsVdirsVdirsVdirsVdirsVdirsVdirsVdirsVdirsVdirsVdirsVdirsVdirsVdirsVdirsVdirsVdirsVdirsVdirsVdirsVdirsVdiqzFi7FXYq7FXYq7FXYq7FXYq7FXYq7FXYq7FXYq7FXYq7FXYq7FXYq7FXYq7FXYq7FXYq7FXYq7FXYq7FXYq7FXYq7FXYq7FXYq7FXYq7FXYq7FXYq7FXYq7FXYq7FXYq7FXYq7FXYq7FXYq7FXYq7FXYqxnzX5M0LzzZNovnDTrbUbJq/u7mNXCk91J3VvBlII7HIygJbFxNZocWsjwZoiQ7iL+Xd7w+B/zO/598aRqZk1H8qtSbTZjUixvuU1vXwWUVkQf6wlOYWTRA/S+edq/wDA4x5LlpZcJ/my3j8JfUPjxPz8/MT8gfPn5WtI/m3RrhLKM/72wL61sR2JlSqrXsH4t7ZhTwyhzD5z2n7O6vs7+9ga/nD1R+Y5fGi8cyp0jsVdirsVdirsVdirsVdirsVdirsVdirsVdirsVdirsVdirsVdirsVesfl5+R3nj80nX/AAZo1zcWxNDduPSth4/vpOKEjwBLe2WQwynyDuOzewNV2j/cwJH87lH/AEx2/S/QH8sf+fethZ8NR/NnUzeSChNjpxMcXyeZgHYeIVYz4Mczceh/nPovZX/A3hH1aqV/0YbD4yO5+AHvfoB5Q8jeX/IFiNF8mabbabZilUt4wpYju7fadv8AKYk++ZsYCOwfRtF2fh0UeDDERHkPv6n3lleTcx2KuxV2KuxV2KuxV2KuxV2KuxV2KuxV2KuxV2KuxV2KuxV2KuxV2KuxV2KuxV2KuxV2KuxV2KuxV2KuxV2KuxV2KuxV2KuxV2Kv/9H7+Yq7FXYq7FXYq7FXYq7FXYq7FXYq7FXYq7FXYq7FXYq7FXYq7FXYq7FXYq7FXYq7FXYq7FXYq7FXYq7FXYq7FXYq7FXYq7FXYq7FXYq7FXYq7FXYq7FXYq7FXYq7FXYq7FXYq7FXYq7FXYq7FXYq7FXYq7FXYq7FXYq7FXYq7FXYq7FXYq7FXYq7FXYq7FXYq7FXYq7FXYq7FXYq7FXYq7FXYq7FXYqsxYuxV2KuxV2KuxV2KuxV2KuxV2KuxV2KuxV2KuxV2KuxV2KuxV2KuxV2KuxV2KuxV2KuxV2KuxV2KuxV2KuxV2KuxV2KuxV2KuxV2KuxV2KuxV2KuxV2KuxV2KuxV2KuxV2KuxV2KuxV2KuxV2KuxV2KuxV2KtMocFHAKkUIPQjAgi3zp+YH/OKX5afmJzn1DRo7C+ep+taZS2kqepKqPTYnxdGOUT00Z9Hmu0fZDRa7eUBE98PSfs9J+IL4q88/8+7dXs+d1+XeuQXse5W21BDBIB4CROasfmsYzFnoT0LwvaH/AANckd9PMS8pDhPzFg/IPkLzn/zjz+YvkHm/mTy9erbp1uLdPrMIHiZIS6j/AGRBzFnglHmHjNd7N6zRf3mOVd4HEPnGx83jRBBodiMqdG1irsVdirsVdirsVdirsVdirsVdirsVdirsVdir17yb+Qf5hef+D+V/L19NA9ONxLH6EBHiJZuCH6DlkMMpcg7nQ+zur1v91jkR3kcMf9NKg+vfI3/Pu/Xr4pc/mFrVtp8JoTb2Km4lp4F24Ip9x6gzKhoSeZez0H/A1yz31ExEd0fUfmaA/wBk+0/IH/OI/wCWf5fFLi20ldTvkoRc6oRctUdwhAiBHYiMH3zLhpoQ6fN7rs72N0Wi3EOI98/V9n0/7F9JxxrEqxRKFRQAqqKAAdABl71AFbBfhS7FXYq7FXYq7FXYq7FXYq7FXYq7FXYq7FXYq7FXYq7FXYq7FXYq7FXYq7FXYq7FXYq7FXYq7FXYq7FXYq7FXYq7FXYq7FXYq7FXYq7FX//S+/mKuxV2KuxV2KuxV2KuxV2KuxV2KuxV2KuxV2KuxV2KuxV2KuxV2KuxV2KuxV2KuxV2KuxV2KuxV2KuxV2KuxV2KuxV2KuxV2KuxV2KuxV2KuxV2KuxV2KuxV2KuxV2KuxV2KuxV2KuxV2KuxV2KuxV2KuxV2KuxV2KuxV2KuxV2KuxV2KuxV2KuxV2KuxV2KuxV2KuxV2KuxV2KuxV2KuxV2KuxV2KrMWLsVdirsVdirsVdirsVdirsVdirsVdirsVdirsVdirsVdirsVdirsVdirsVdirsVdirsVdirsVdirsVdirsVdirsVdirsVdirsVdirsVdirsVdirsVdirsVdirsVdirsVdirsVdirsVdirsVdirsVdirsVdirsVdirsVdirz/zb+VPk7z3VvN+haffynb1ZrdDKPlKAHH0NlcscZcw63WdkabWf3uOMvMgX8+f2vm7zN/zgb+WGuFpNJTUNHc7gWl0XSvutwJTT2DDKJaOB8nmNV/wPdDm+jih/VlY/wBlxfe8F8w/8+5LhS0nlPzPG6/sxXtoVI+ckbtX/gBlMtD3F57U/wDAyP8AksvwlH9IJ+54vrX/ADgX+aOllvqCabqIHT6td8Sf+R6xZSdHMOjz/wDA912P6eGXul/xQi8u1T/nFj819IJF35WvXp/yzmO4+70XeuVnTTHR1GX2S1+Lnil8Kl/uSWBX35R+edMr+kfLOtQU6mTTrhR95TIHFIdD8nX5OxtVj+rFMe+Ev1MWuPLer2dfrdhdRU684JF/WMjwlxJaXJHnEj4FKngkir6iMtOtQRgaTEhpIZJKemjNXYUBOKiJKaW/l3VbsgWljdSk9OELt+oYeEtsdNklyiT8Cyix/KbzxqZA07y1rM9f99afcN+pMkMcj0Ll4+x9Vk+nFM+6Ev1M80v/AJxc/NbWKC08rX6V/wCWgJb/APJ5kyY08z0dhh9k9fl5YpfGo/7oh6jov/OB35p6pT6/Dp2m16/WrwNT/kQsuWDRzLtsH/A+1+T6hGPvl/xPE9k0H/n3HfycX80eaIIf5o7O0aWvyeR46f8AAHLY6DvLvNP/AMDKZ/vcoH9WN/aSPue9eWP+cCPy00TjJrZ1HWJB9oXFz6UZPssAjYD5ucujoojnu9DpP+B5osX18U/eaH+xo/a+kPKn5O+R/I/F/Kvl/TrOZPszJbo023/FrAuf+CzIjijHkHp9H2JpdJ/dY4xPfQv/AEx3+16TljtHYq7FXYq7FXYq7FXYq7FXYq7FXYq7FXYq7FXYq7FXYq7FXYq7FXYq7FXYq7FXYq7FXYq7FXYq7FXYq7FXYq7FXYq7FXYq7FXYq7FXYq7FXYq7FXYq/wD/0/v5irsVdirsVdirsVdirsVdirsVdirsVdirsVdirsVdirsVdirsVdirsVdirsVdirsVdirsVdirsVdirsVdirsVdirsVdirsVdirsVdirsVdirsVdirsVdirsVdirsVdirsVdirsVdirsVdirsVdirsVdirsVdirsVdirsVdirsVdirsVdirsVdirsVdirsVdirsVdirsVdirsVdirsVdirsVdirsVdiqzFi7FXYq7FXYq7FXYq7FXYq7FXYq7FXYq7FXYq7FXYq7FXYq7FXYq7FXYq7FXYq7FXYq7FXYq7FXYq7FXYq7FXYq7FXYq7FXYq7FXYq7FXYq7FXYq7FXYq7FXYq7FXYq7FXYq7FXYq7FXYq7FXYq7FXYq7FXYq7FXYq7FXYq7FXYq7FXYq7FXYq7FXYq7FXYq7FXYq7FXYq7FXYq7FXYq7FXYq7FXYq7FXYq7FXYq7FXYq7FXYq7FXYq7FXYq7FXYq7FXYq7FXYq7FXYq7FXYq7FXYq7FXYq7FXYq7FXYq7FXYq7FXYq7FXYq7FXYq7FXYq//U+/mKuxV2KuxV2KuxV2KuxV2KuxV2KuxV2KuxV2KuxV2KuxV2KuxV2KuxV2KuxV2KuxV2KuxV2KuxV2KuxV2KuxV2KuxV2KuxV2KuxV2KuxV2KuxV2KuxV2KuxV2KuxV2KuxV2KuxV2KuxV2KuxV2KuxV2KuxV2KuxV2KuxV2KuxV2KuxV2KuxV2KuxV2KuxV2KuxV2KuxV2KuxV2KuxV2KuxV2KuxV2KrMWLsVdirsVdirsVdirsVdirsVdirsVdirsVdirsVdirsVdirsVdirsVdirsVdirsVdirsVdirsVdirsVdirsVdirsVdirsVdirsVdirsVdirsVdirsVdirsVdirsVdirsVdirsVdirsVdirsVdirsVdirsVdirsVdirsVdirsVdirsVdirsVdirsVdirsVdirsVdirsVdirsVdirsVdirsVdirsVdirsVdirsVdirsVdirsVdirsVdirsVdirsVdirsVdirsVdirsVdirsVdirsVdirsVdirsVdirsVdirsVdirsVdirsVdirsVdirsVdir/9X7+Yq7FXYq7FXYq7FXYq7FXYq7FXYq7FXYq7FXYq7FXYq7FXYq7FXYq7FXYq7FXYq7FXYq7FXYq7FXYq7FXYq7FXYq7FXYq7FXYq7FXYq7FXYq7FXYq7FXYq7FXYq7FXYq7FXYq7FXYq7FXYq7FXYq7FXYq7FXYq7FXYq7FXYq7FXYq7FXYq7FXYq7FXYq7FXYq7FXYq7FXYq7FXYq7FXYq7FXYq7FXYqsxYuxV2KuxV2KuxV2KuxV2KuxV2KuxV2KuxV2KuxV2KuxV2KuxV2KuxV2KuxV2KuxV2KuxV2KuxV2KuxV2KuxV2KuxV2KuxV2KuxV2KuxV2KuxV2KuxV2KuxV2KuxV2KuxV2KuxV2KuxV2KuxV2KuxV2KuxV2KuxV2KuxV2KuxV2KuxV2KuxV2KuxV2KuxV2KuxV2KuxV2KuxV2KuxV2KuxV2KuxV2KuxV2KuxV2KuxV2KuxV2KuxV2KuxV2KuxV2KuxV2KuxV2KuxV2KuxV2KuxV2KuxV2KuxV2KuxV2KuxV2KuxV2KuxV2KuxV2KuxV2Kv/1vv5irsVdirsVdirsVdirsVdirsVdirsVdirsVdirsVdirsVdirsVdirsVdirsVdirsVdirsVdirsVdirsVdirsVdirsVdirsVdirsVdirsVdirsVdirsVdirsVdirsVdirsVdirsVdirsVdirsVdirsVdirsVdirsVdirsVdirsVdirsVdirsVdirsVdirsVdirsVdirsVdirsVdirsVdirsVdirsVdiqzFi7FXYq7FXYq7FXYq7FXYq7FXYq7FXYq7FXYq7FXYq7FXYq7FXYq7FXYq7FXYq7FXYq7FXYq7FXYq7FXYq7FXYq7FXYq7FXYq7FXYq7FXYq7FXYq7FXYq7FXYq7FXYq7FXYq7FXYq7FXYq7FXYq7FXYq7FXYq7FXYq7FXYq7FXYq7FXYq7FXYq7FXYq7FXYq7FXYq7FXYq7FXYq7FXYq7FXYq7FXYq7FXYq7FXYq7FXYq7FXYq7FXYq7FXYq7FXYq7FXYq7FXYq7FXYq7FXYq7FXYq7FXYq7FXYq7FXYq7FXYq7FXYq7FXYq7FXYq7FXYq//X+/mKuxV2KuxV2KuxV2KuxV2KuxV2KuxV2KuxV2KuxV2KuxV2KuxV2KuxV2KuxV2KuxV2KuxV2KuxV2KuxV2KuxV2KuxV2KuxV2KuxV2KuxV2KuxV2KuxV2KuxV2KuxV2KuxV2KuxV2KuxV2KuxV2KuxV2KuxV2KuxV2KuxV2KuxV2KuxV2KuxV2KuxV2KuxV2KuxV2KuxV2KuxV2KuxV2KuxV2KuxV2KrMWLsVdirsVdirsVdirsVdirsVdirsVdirsVdirsVdirsVdirsVdirsVdirsVdirsVdirsVdirsVdirsVdirsVdirsVdirsVdirsVdirsVdirsVdirsVdirsVdirsVdirsVdirsVdirsVdirsVdirsVdirsVdirsVdirsVdirsVdirsVdirsVdirsVdirsVdirsVdirsVdirsVdirsVdirsVdirsVdirsVdirsVdirsVdirsVdirsVdirsVdirsVdirsVdirsVdirsVdirsVdirsVdirsVdirsVdirsVdirsVdirsVdirsVdirsVdirsVdir/9D7+Yq7FXYq7FXYq7FXYq7FXYq7FXYq7FXYq7FXYq7FXYq7FXYq7FXYq7FXYq7FXYq7FXYq7FXYq7FXYq7FXYq7FXYq7FXYq7FXYq7FXYq7FXYq7FXYq7FXYq7FXYq7FXYq7FXYq7FXYq7FXYq7FXYq7FXYq7FXYq7FXYq7FXYq7FXYq7FXYq7FXYq7FXYq7FXYq7FXYq7FXYq7FXYq7FXYq7FXYq7FXYqsxYuxV2KuxV2KuxV2KuxV2KuxV2KuxV2KuxV2KuxV2KuxV2KuxV2KuxV2KuxV2KuxV2KuxV2KuxV2KuxV2KuxV2KuxV2KuxV2KuxV2KuxV2KuxV2KuxV2KuxV2KuxV2KuxV2KuxV2KuxV2KuxV2KuxV2KuxV2KuxV2KuxV2KuxV2KuxV2KuxV2KuxV2KuxV2KuxV2KuxV2KuxV2KuxV2KuxV2KuxV2KuxV2KuxV2KuxV2KuxV2KuxV2KuxV2KuxV2KuxV2KuxV2KuxV2KuxV2KuxV2KuxV2KuxV2KuxV2KuxV2KuxV2KuxV2KuxV2KuxV2Kv/0fv5irsVdirsVdirsVdirsVdirsVdirsVdirsVdirsVdirsVdirsVdirsVdirsVdirsVdirsVdirsVdirsVdirsVdirsVdirsVdirsVdirsVdirsVdirsVdirsVdirsVdirsVdirsVdirsVdirsVdirsVdirsVdirsVdirsVdirsVdirsVdirsVdirsVdirsVdirsVdirsVdirsVdirsVdirsVdirsVdiqzFi7FXYq7FXYq7FXYq7FXYq7FXYq7FXYq7FXYq7FXYq7FXYq7FXYq7FXYq7FXYq7FXYq7FXYq7FXYq7FXYq7FXYq7FXYq7FXYq7FXYq7FXYq7FXYq7FXYq7FXYq7FXYq7FXYq7FXYq7FXYq7FXYq7FXYq7FXYq7FXYq7FXYq7FXYq7FXYq7FXYq7FXYq7FXYq7FXYq7FXYq7FXYq7FXYq7FXYq7FXYq7FXYq7FXYq7FXYq7FXYq7FXYq7FXYq7FXYq7FXYq7FXYq7FXYq7FXYq7FXYq7FXYq7FXYq7FXYq7FXYq7FXYq7FXYq7FXYq7FXYq//S+/mKuxV2KuxV2KuxV2KuxV2KuxV2KuxV2KuxV2KuxV2KuxV2KuxV2KuxV2KuxV2KuxV2KuxV2KuxV2KuxV2KuxV2KuxV2KuxV2KuxV2KuxV2KuxV2KuxV2KuxV2KuxV2KuxV2KuxV2KuxV2KuxV2KuxV2KuxV2KuxV2KuxV2KuxV2KuxV2KuxV2KuxV2KuxV2KuxV2KuxV2KuxV2KuxV2KuxV2KuxV2KrMWLsVdirsVdirsVdirsVdirsVdirsVdirsVdirsVdirsVdirsVdirsVdirsVdirsVdirsVdirsVdirsVdirsVdirsVdirsVdirsVdirsVdirsVdirsVdirsVdirsVdirsVdirsVdirsVdirsVdirsVdirsVdirsVdirsVdirsVdirsVdirsVdirsVdirsVdirsVdirsVdirsVdirsVdirsVdirsVdirsVdirsVdirsVdirsVdirsVdirsVdirsVdirsVdirsVdirsVdirsVdirsVdirsVdirsVdirsVdirsVdirsVdirsVdirsVdirsVdir/9P7+Yq7FXYq7FXYq7FXYq7FXYq7FXYq7FXYq7FXYq7FXYq7FXYq7FXYq7FXYq7FXYq7FXYq7FXYq7FXYq7FXYq7FXYq7FXYq7FXYq7FXYq7FXYq7FXYq7FXYq7FXYq7FXYq7FXYq7FXYq7FXYq7FXYq7FXYq7FXYq7FXYq7FXYq7FXYq7FXYq7FXYq7FXYq7FXYq7FXYq7FXYq7FXYq7FXYq7FXYq7FXYqsxYuxV2KuxV2KuxV2KuxV2KuxV2KuxV2KuxV2KuxV2KuxV2KuxV2KuxV2KuxV2KuxV2KuxV2KuxV2KuxV2KuxV2KuxV2KuxV2KuxV2KuxV2KuxV2KuxV2KuxV2KuxV2KuxV2KuxV2KuxV2KuxV2KuxV2KuxV2KuxV2KuxV2KuxV2KuxV2KuxV2KuxV2KuxV2KuxV2KuxV2KuxV2KuxV2KuxV2KuxV2KuxV2KuxV2KuxV2KuxV2KuxV2KuxV2KuxV2KuxV2KuxV2KuxV2KuxV2KuxV2KuxV2KuxV2KuxV2KuxV2KuxV2KuxV2KuxV2KuxV2Kv/1Pv5irsVdirsVdirsVdirsVdirsVdirsVdirsVdirsVdirsVdirsVdirsVdirsVdirsVdirsVdirsVdirsVdirsVdirsVdirsVdirsVdirsVdirsVdirsVdirsVdirsVdirsVdirsVdirsVdirsVdirsVdirsVdirsVdirsVdirsVdirsVdirsVdirsVdirsVdirsVdirsVdirsVdirsVdirsVdirsVdiqzFi7FXYq7FXYq7FXYq7FXYq7FXYq7FXYq7FXYq7FXYq7FXYq7FXYq7FXYq7FXYq7FXYq7FXYq7FXYq7FXYq7FXYq7FXYq7FXYq7FXYq7FXYq7FXYq7FXYq7FXYq7FXYq7FXYq7FXYq7FXYq7FXYq7FXYq7FXYq7FXYq7FXYq7FXYq7FXYq7FXYq7FXYq7FXYq7FXYq7FXYq7FXYq7FXYq7FXYq7FXYq7FXYq7FXYq7FXYq7FXYq7FXYq7FXYq7FXYq7FXYq7FXYq7FXYq7FXYq7FXYq7FXYq7FXYq7FXYq7FXYq7FXYq7FXYq7FXYq7FXYq//V+/mKuxV2KuxV2KuxV2KuxV2KuxV2KuxV2KuxV2KuxV2KuxV2KuxV2KuxV2KuxV2KuxV2KuxV2KuxV2KuxV2KuxV2KuxV2KuxV2KuxV2KuxV2KuxV2KuxV2KuxV2KuxV2KuxV2KuxV2KuxV2KuxV2KuxV2KuxV2KuxV2KuxV2KuxV2KuxV2KuxV2KuxV2KuxV2KuxV2KuxV2KuxV2KuxV2KuxV2KuxV2KrMWLsVdirsVdirsVdirsVdirsVdirsVdirsVdirsVdirsVdirsVdirsVdirsVdirsVdirsVdirsVdirsVdirsVdirsVdirsVdirsVdirsVdirsVdirsVdirsVdirsVdirsVdirsVdirsVdirsVdirsVdirsVdirsVdirsVdirsVdirsVdirsVdirsVdirsVdirsVdirsVdirsVdirsVdirsVdirsVdirsVdirsVdirsVdirsVdirsVdirsVdirsVdirsVdirsVdirsVdirsVdirsVdirsVdirsVdirsVdirsVdirsVdirsVdirsVdirsVdir/9b7+Yq7FXYq7FXYq7FXYq7FXYq7FXYq7FXYq7FXYq7FXYq7FXYq7FXYq7FXYq7FXYq7FXYq7FXYq7FXYq7FXYq7FXYq7FXYq7FXYq7FXYq7FXYq7FXYq7FXYq7FXYq7FXYq7FXYq7FXYq7FXYq7FXYq7FXYq7FXYq7FXYq7FXYq7FXYq7FXYq7FXYq7FXYq7FXYq7FXYq7FXYq7FXYq7FXYq7FXYq7FXYqsxYuxV2KuxV2KuxV2KuxV2KuxV2KuxV2KuxV2KuxV2KuxV2KuxV2KuxV2KuxV2KuxV2KuxV2KuxV2KuxV2KuxV2KuxV2KuxV2KuxV2KuxV2KuxV2KuxV2KuxV2KuxV2KuxV2KuxV2KuxV2KuxV2KuxV2KuxV2KuxV2KuxV2KuxV2KuxV2KuxV2KuxV2KuxV2KuxV2KuxV2KuxV2KuxV2KuxV2KuxV2KuxV2KuxV2KuxV2KuxV2KuxV2KuxV2KuxV2KuxV2KuxV2KuxV2KuxV2KuxV2KuxV2KuxV2KuxV2KuxV2KuxV2KuxV2KuxV2KuxV2Kv/1/v5irsVdirsVdirsVdirsVdirsVdirsVdirsVdirsVdirsVdirsVdirsVdirsVdirsVdirsVdirsVdirsVdirsVdirsVdirsVdirsVdirsVdirsVdirsVdirsVdirsVdirsVdirsVdirsVdirsVdirsVdirsVdirsVdirsVdirsVdirsVdirsVdirsVdirsVdirsVdirsVdirsVdirsVdirsVdirsVdiqzFi7FXYq7FXYq7FXYq7FXYq7FXYq7FXYq7FXYq7FXYq7FXYq7FXYq7FXYq7FXYq7FXYq7FXYq7FXYq7FXYq7FXYq7FXYq7FXYq7FXYq7FXYq7FXYq7FXYq7FXYq7FXYq7FXYq7FXYq7FXYq7FXYq7FXYq7FXYq7FXYq7FXYq7FXYq7FXYq7FXYq7FXYq7FXYq7FXYq7FXYq7FXYq7FXYq7FXYq7FXYq7FXYq7FXYq7FXYq7FXYq7FXYq7FXYq7FXYq7FXYq7FXYq7FXYq7FXYq7FXYq7FXYq7FXYq7FXYq7FXYq7FXYq7FXYq7FXYq7FXYq//Q+/mKuxV2KuxV2KuxV2KuxV2KuxV2KuxV2KuxV2KuxV2KuxV2KuxV2KuxV2KuxV2KuxV2KuxV2KuxV2KuxV2KuxV2KuxV2KuxV2KuxV2KuxV2KuxV2KuxV2KuxV2KuxV2KuxV2KuxV2KuxV2KuxV2KuxV2KuxV2KuxV2KuxV2KuxV2KuxV2KuxV2KuxV2KuxV2KuxV2KuxV2KuxV2KuxV2KuxV2KuxV2KrMWLsVdirsVdirsVdirsVdirsVdirsVdirsVdirsVdirsVdirsVdirsVdirsVdirsVdirsVdirsVdirsVdirsVdirsVdirsVdirsVdirsVdirsVdirsVdirsVdirsVdirsVdirsVdirsVdirsVdirsVdirsVdirsVdirsVdirsVdirsVdirsVdirsVdirsVdirsVdirsVdirsVdirsVdirsVdirsVdirsVdirsVdirsVdirsVdirsVdirsVdirsVdirsVdirsVdirsVdirsVdirsVdirsVdirsVdirsVdirsVdirsVdirsVdirsVdirsVdir/9H7+Yq7FXYq7FXYq7FXYq7FXYq7FXYq7FXYq7FXYq7FXYq7FXYq7FXYq7FXYq7FXYq7FXYq7FXYq7FXYq7FXYq7FXYq7FXYq7FXYq7FXYq7FXYq7FXYq7FXYq7FXYq7FXYq7FXYq7FXYq7FXYq7FXYq7FXYq7FXYq7FXYq7FXYq7FXYq7FXYq7FXYq7FXYq7FXYq7FXYq7FXYq7FXYq7FXYq7FXYq7FXYqsxYuxV2KuxV2KuxV2KuxV2KuxV2KuxV2KuxV2KuxV2KuxV2KuxV2KuxV2KuxV2KuxV2KuxV2KuxV2KuxV2KuxV2KuxV2KuxV2KuxV2KuxV2KuxV2KuxV2KuxV2KuxV2KuxV2KuxV2KuxV2KuxV2KuxV2KuxV2KuxV2KuxV2KuxV2KuxV2KuxV2KuxV2KuxV2KuxV2KuxV2KuxV2KuxV2KuxV2KuxV2KuxV2KuxV2KuxV2KuxV2KuxV2KuxV2KuxV2KuxV2KuxV2KuxV2KuxV2KuxV2KuxV2KuxV2KuxV2KuxV2KuxV2KuxV2KuxV2KuxV2Kv/0vv5irsVdirsVdirsVdirsVdirsVdirsVdirsVdirsVdirsVdirsVdirsVdirsVdirsVdirsVdirsVdirsVdirsVdirsVdirsVdirsVdirsVdirsVdirsVdirsVdirsVdirsVdirsVdirsVdirsVdirsVdirsVdirsVdirsVdirsVdirsVdirsVdirsVdirsVdirsVdirsVdirsVdirsVdirsVdirsVdiqzFi7FXYq7FXYq7FXYq7FXYq7FXYq7FXYq7FXYq7FXYq7FXYq7FXYq7FXYq7FXYq7FXYq7FXYq7FXYq7FXYq7FXYq7FXYq7FXYq7FXYq7FXYq7FXYq7FXYq7FXYq7FXYq7FXYq7FXYq7FXYq7FXYq7FXYq7FXYq7FXYq7FXYq7FXYq7FXYq7FXYq7FXYq7FXYq7FXYq7FXYq7FXYq7FXYq7FXYq7FXYq7FXYq7FXYq7FXYq7FXYq7FXYq7FXYq7FXYq7FXYq7FXYq7FXYq7FXYq7FXYq7FXYq7FXYq7FXYq7FXYq7FXYq7FXYq7FXYq7FXYq//T+/mKuxV2KuxV2KuxV2KuxV2KuxV2KuxV2KuxV2KuxV2KuxV2KuxV2KuxV2KuxV2KuxV2KuxV2KuxV2KuxV2KuxV2KuxV2KuxV2KuxV2KuxV2KuxV2KuxV2KuxV2KuxV2KuxV2KuxV2KuxV2KuxV2KuxV2KuxV2KuxV2KuxV2KuxV2KuxV2KuxV2KuxV2KuxV2KuxV2KuxV2KuxV2KuxV2KuxV2KuxV2KrMWLsVdirsVdirsVdirsVdirsVdirsVdirsVdirsVdirsVdirsVdirsVdirsVdirsVdirsVdirsVdirsVdirsVdirsVdirsVdirsVdirsVdirsVdirsVdirsVdirsVdirsVdirsVdirsVdirsVdirsVdirsVdirsVdirsVdirsVdirsVdirsVdirsVdirsVdirsVdirsVdirsVdirsVdirsVdirsVdirsVdirsVdirsVdirsVdirsVdirsVdirsVdirsVdirsVdirsVdirsVdirsVdirsVdirsVdirsVdirsVdirsVdirsVdirsVdirsVdir/9T7+Yq7FXYq7FXYq7FXYq7FXYq7FXYq7FXYq7FXYq7FXYq7FXYq7FXYq7FXYq7FXYq7FXYq7FXYq7FXYq7FXYq7FXYq7FXYq7FXYq7FXYq7FXYq7FXYq7FXYq7FXYq7FXYq7FXYq7FXYq7FXYq7FXYq7FXYq7FXYq7FXYq7FXYq7FXYq7FXYq7FXYq7FXYq7FXYq7FXYq7FXYq7FXYq7FXYq7FXYq7FXYqsxYuxV2KuxV2KuxV2KuxV2KuxV2KuxV2KuxV2KuxV2KuxV2KuxV2KuxV2KuxV2KuxV2KuxV2KuxV2KuxV2KuxV2KuxV2KuxV2KuxV2KuxV2KuxV2KuxV2KuxV2KuxV2KuxV2KuxV2KuxV2KuxV2KuxV2KuxV2KuxV2KuxV2KuxV2KuxV2KuxV2KuxV2KuxV2KuxV2KuxV2KuxV2KuxV2KuxV2KuxV2KuxV2KuxV2KuxV2KuxV2KuxV2KuxV2KuxV2KuxV2KuxV2KuxV2KuxV2KuxV2KuxV2KuxV2KuxV2KuxV2KuxV2KuxV2KuxV2KuxV2Kv/1fv5irsVdirsVdirsVdirsVdirsVdirsVdirsVdirsVdirsVdirsVdirsVdirsVdirsVdirsVdirsVdirsVdirsVdirsVdirsVdirsVdirsVdirsVdirsVdirsVdirsVdirsVdirsVdirsVdirsVdirsVdirsVdirsVdirsVdirsVdirsVdirsVdirsVdirsVdirsVdirsVdirsVdirsVdirsVdirsVdiqzFi7FXYq7FXYq7FXYq7FXYq7FXYq7FXYq7FXYq7FXYq7FXYq7FXYq7FXYq7FXYq7FXYq7FXYq7FXYq7FXYq7FXYq7FXYq7FXYq7FXYq7FXYq7FXYq7FXYq7FXYq7FXYq7FXYq7FXYq7FXYq7FXYq7FXYq7FXYq7FXYq7FXYq7FXYq7FXYq7FXYq7FXYq7FXYq7FXYq7FXYq7FXYq7FXYq7FXYq7FXYq7FXYq7FXYq7FXYq7FXYq7FXYq7FXYq7FXYq7FXYq7FXYq7FXYq7FXYq7FXYq7FXYq7FXYq7FXYq7FXYq7FXYq7FXYq7FXYq7FXYq//W+/mKuxV2KuxV2KuxV2KuxV2KuxV2KuxV2KuxV2KuxV2KuxV2KuxV2KuxV2KuxV2KuxV2KuxV2KuxV2KuxV2KuxV2KuxV2KuxV2KuxV2KuxV2KuxV2KuxV2KuxV2KuxV2KuxV2KuxV2KuxV2KuxV2KuxV2KuxV2KuxV2KuxV2KuxV2KuxV2KuxV2KuxV2KuxV2KuxV2KuxV2KuxV2KuxV2KuxV2KuxV2KrMWLsVdirsVdirsVdirsVdirsVdirsVdirsVdirsVdirsVdirsVdirsVdirsVdirsVdirsVdirsVdirsVdirsVdirsVdirsVdirsVdirsVdirsVdirsVdirsVdirsVdirsVdirsVdirsVdirsVdirsVdirsVdirsVdirsVdirsVdirsVdirsVdirsVdirsVdirsVdirsVdirsVdirsVdirsVdirsVdirsVdirsVdirsVdirsVdirsVdirsVdirsVdirsVdirsVdirsVdirsVdirsVdirsVdirsVdirsVdirsVdirsVdirsVdirsVdirsVdir/9f7+Yq7FXYq7FXYq7FXYq7FXYq7FXYq7FXYq7FXYq7FXYq7FXYq7FXYq7FXYq7FXYq7FXYq7FXYq7FXYq7FXYq7FXYq7FXYq7FXYq7FXYq7FXYq7FXYq7FXYq7FXYq7FXYq7FXYq7FXYq7FXYq7FXYq7FXYq7FXYq7FXYq7FXYq7FXYq7FXYq7FXYq7FXYq7FXYq7FXYq7FXYq7FXYq7FXYq7FXYq7FXYqsxYuxV2KuxV2KuxV2KuxV2KuxV2KuxV2KuxV2KuxV2KuxV2KuxV2KuxV2KuxV2KuxV2KuxV2KuxV2KuxV2KuxV2KuxV2KuxV2KuxV2KuxV2KuxV2KuxV2KuxV2KuxV2KuxV2KuxV2KuxV2KuxV2KuxV2KuxV2KuxV2KuxV2KuxV2KuxV2KuxV2KuxV2KuxV2KuxV2KuxV2KuxV2KuxV2KuxV2KuxV2KuxV2KuxV2KuxV2KuxV2KuxV2KuxV2KuxV2KuxV2KuxV2KuxV2KuxV2KuxV2KuxV2KuxV2KuxV2KuxV2KuxV2KuxV2KuxV2KuxV2Kv/0Pv5irsVdirsVdirsVdirsVdirsVdirsVdirsVdirsVdirsVdirsVdirsVdirsVdirsVdirsVdirsVdirsVdirsVdirsVdirsVdirsVdirsVdirsVdirsVdirsVdirsVdirsVdirsVdirsVdirsVdirsVdirsVdirsVdirsVdirsVdirsVdirsVdirsVdirsVdirsVdirsVdirsVdirsVdirsVdirsVdiqzFi7FXYq7FXYq7FXYq7FXYq7FXYq7FXYq7FXYq7FXYq7FXYq7FXYq7FXYq7FXYq7FXYq7FXYq7FXYq7FXYq7FXYq7FXYq7FXYq7FXYq7FXYq7FXYq7FXYq7FXYq7FXYq7FXYq7FXYq7FXYq7FXYq7FXYq7FXYq7FXYq7FXYq7FXYq7FXYq7FXYq7FXYq7FXYq7FXYq7FXYq7FXYq7FXYq7FXYq7FXYq7FXYq7FXYq7FXYq7FXYq7FXYq7FXYq7FXYq7FXYq7FXYq7FXYq7FXYq7FXYq7FXYq7FXYq7FXYq7FXYq7FXYq7FXYq7FXYq7FXYq//Z;" vertex="1" parent="1">
          <mxGeometry x="118.07000000000001" y="-130" width="123.87" height="60.27" as="geometry" />
        </mxCell>
      </root>
    </mxGraphModel>
  </diagram>
</mxfile>
